<?xml version="1.0" encoding="UTF-8" standalone="no"?>
<!-- Created with Inkscape (http://www.inkscape.org/) -->

<svg
   version="1.1"
   id="svg1742"
   width="500"
   height="500"
   viewBox="0 0 500 500"
   sodipodi:docname="accelerator_pedal_hover.svg"
   inkscape:version="1.1.2 (b8e25be833, 2022-02-05)"
   xmlns:inkscape="http://www.inkscape.org/namespaces/inkscape"
   xmlns:sodipodi="http://sodipodi.sourceforge.net/DTD/sodipodi-0.dtd"
   xmlns="http://www.w3.org/2000/svg"
   xmlns:svg="http://www.w3.org/2000/svg">
  <defs
     id="defs1746" />
  <sodipodi:namedview
     id="namedview1744"
     pagecolor="#505050"
     bordercolor="#eeeeee"
     borderopacity="1"
     inkscape:pageshadow="0"
     inkscape:pageopacity="0"
     inkscape:pagecheckerboard="0"
     showgrid="false"
     height="750px"
     width="500px"
     inkscape:zoom="0.63033175"
     inkscape:cx="-92.808271"
     inkscape:cy="522.7406"
     inkscape:window-width="1920"
     inkscape:window-height="991"
     inkscape:window-x="-9"
     inkscape:window-y="-9"
     inkscape:window-maximized="1"
     inkscape:current-layer="g1748" />
  <g
     inkscape:groupmode="layer"
     inkscape:label="Image"
     id="g1748">
    <path
       style="fill:#fbb206;stroke-width:1.31641;fill-opacity:1"
       d="m 179.2209,473.4619 c -51.46239,-4.42649 -90.20109,-19.65626 -94.442239,-37.1291 -0.522378,-2.15204 -2.564676,-17.55868 -4.538469,-34.23698 -4.335007,-36.63022 -11.278624,-80.49669 -23.028338,-145.482 -4.836942,-26.75215 -8.786653,-50.52239 -8.777122,-52.82276 0.05492,-13.28378 27.727275,-27.06156 66.665718,-33.19224 13.17307,-2.07404 17.7852,-2.21198 85.6705,-2.5625 77.17741,-0.39849 94.68493,0.21914 119.5679,4.2181 42.47307,6.8259 60.81868,15.41008 81.02525,37.91295 36.8982,41.09137 59.26496,86.42868 69.59165,141.06209 3.40103,17.99312 5.32116,69.00155 3.07519,81.69182 -1.85207,10.46448 -4.80195,14.63225 -14.79193,20.89896 -14.81834,9.29552 -42.60166,16.64046 -74.09592,19.58837 -22.35083,2.09208 -181.73973,2.13332 -205.92219,0.0533 z m 225.79741,-93.90229 c 9.52685,-3.51777 16.84779,-6.8192 16.26878,-7.3365 -0.65997,-0.58965 -55.54258,-0.94056 -147.10127,-0.94056 -118.17216,0 -146.04853,0.24117 -146.04853,1.26354 0,0.69494 8.56988,3.98409 19.04419,7.30924 l 19.04418,6.04571 110.73556,0.0273 110.73555,0.0273 17.32154,-6.39592 z m -9.4354,-42.26949 c 8.15737,-3.09355 15.16151,-6.17488 15.56478,-6.84739 0.58263,-0.97157 -29.16923,-1.22275 -144.82931,-1.22275 -115.66259,0 -145.41097,0.25116 -144.82463,1.22275 0.40588,0.67251 8.6436,3.74347 18.30606,6.82435 l 17.56809,5.60162 111.69174,0.023 111.6917,0.0231 14.83157,-5.62465 z m -14.43107,-41.01069 c 17.11424,-6.61392 20.61015,-8.4512 17.30087,-9.09257 -4.15336,-0.80496 -286.25954,-0.0996 -286.25833,0.71573 5.8e-4,0.39717 8.17187,3.43073 18.15841,6.74127 l 18.15735,6.01914 110.40459,0.0946 110.40456,0.0946 z m -9.00925,-43.5972 c 8.99847,-3.36605 16.37255,-6.67295 16.38686,-7.34866 0.0335,-1.57866 -283.25196,-1.32865 -283.70078,0.25037 -0.15289,0.53801 8.01847,3.72827 18.15861,7.08946 l 18.43665,6.11125 107.17892,0.009 107.17893,0.009 16.36081,-6.1201 z M 360.9496,210.09749 c 7.71406,-3.07885 14.35738,-6.14816 14.76293,-6.82067 0.58574,-0.97132 -28.04956,-1.22275 -139.25836,-1.22275 -79.33181,0 -140.415769,0.37528 -140.965075,0.86604 -0.533131,0.47631 6.793905,3.51513 16.282325,6.75291 l 17.25164,5.88689 108.95049,0.0678 108.95047,0.0678 14.02558,-5.59793 z M 42.386387,172.91856 C 39.14434,158.42687 30.309591,88.083416 28.108614,59.236975 27.554438,51.973845 26.628287,41.299246 26.050512,35.515642 L 25,25 h 63.969499 63.969521 l 0.009,3.668247 c 0.0446,18.010605 13.30469,117.472703 16.80387,126.044753 0.8003,1.96049 -0.0464,2.08964 -17.8707,2.72594 -45.08298,1.6094 -75.947694,6.68134 -99.32014,16.32109 l -9.142892,3.77091 -1.031877,-4.61238 z"
       id="path1770" />
  </g>
</svg>
