<?xml version="1.0" encoding="UTF-8" standalone="no"?>
<!-- Created with Inkscape (http://www.inkscape.org/) -->

<svg
   version="1.1"
   id="svg1875"
   width="500"
   height="500"
   viewBox="0 0 500 500"
   sodipodi:docname="brake_pedal_hover.svg"
   inkscape:version="1.1.2 (b8e25be833, 2022-02-05)"
   xmlns:inkscape="http://www.inkscape.org/namespaces/inkscape"
   xmlns:sodipodi="http://sodipodi.sourceforge.net/DTD/sodipodi-0.dtd"
   xmlns="http://www.w3.org/2000/svg"
   xmlns:svg="http://www.w3.org/2000/svg">
  <defs
     id="defs1879" />
  <sodipodi:namedview
     id="namedview1877"
     pagecolor="#505050"
     bordercolor="#eeeeee"
     borderopacity="1"
     inkscape:pageshadow="0"
     inkscape:pageopacity="0"
     inkscape:pagecheckerboard="0"
     showgrid="false"
     inkscape:zoom="0.84177215"
     inkscape:cx="23.165414"
     inkscape:cy="329.66165"
     inkscape:window-width="1920"
     inkscape:window-height="991"
     inkscape:window-x="-9"
     inkscape:window-y="-9"
     inkscape:window-maximized="1"
     inkscape:current-layer="g1881"
     height="400px"
     width="500px" />
  <g
     inkscape:groupmode="layer"
     inkscape:label="Image"
     id="g1881">
    <path
       style="fill:#fbb206;stroke-width:1.60704;fill-opacity:1"
       d="M 124.84922,473.70101 C 94.74073,470.97816 60.59072,461.37757 43.418984,450.80848 33.219554,444.53081 25,433.63716 25,426.39719 c 0,-4.78662 10.969826,-55.07387 27.907193,-127.93056 3.608265,-15.52108 7.898304,-30.95114 9.533423,-34.28901 9.337037,-19.06037 43.573224,-35.98602 90.361324,-44.67272 14.62157,-2.71463 20.61645,-2.87829 122.38571,-3.34089 103.09102,-0.46862 107.62902,-0.38381 123.88056,2.31506 30.56473,5.07583 54.82936,15.4895 67.66556,29.0401 11.12719,11.74646 11.12501,12.07126 -0.64026,95.32622 -5.84647,41.37149 -11.53795,77.89326 -12.64772,81.15949 -8.34084,24.54796 -53.832,44.67348 -112.30414,49.68391 -20.32159,1.74134 -197.06185,1.75133 -216.29243,0.0116 z m 261.85675,-65.04144 c 10.26225,-4.43459 18.40602,-8.66762 18.09727,-9.40671 -0.36826,-0.88156 -53.9996,-1.34381 -155.90961,-1.34381 -101.86776,0 -155.563305,0.46261 -155.972979,1.34381 -0.343613,0.73909 7.731909,5.13651 17.945609,9.77202 l 18.57037,8.42822 119.30535,-0.36531 119.30533,-0.36532 z m 11.02253,-70.2241 c 9.88794,-4.25515 17.84895,-8.33699 17.69112,-9.07077 -0.18642,-0.86687 -54.19119,-1.45458 -154.19783,-1.67809 -122.81971,-0.27448 -153.75713,-0.003 -153.14972,1.34382 0.41864,0.92828 8.01215,5.16492 16.87445,9.41473 l 16.11329,7.72695 h 119.34531 119.34534 z m 11.92322,-70.32785 c 10.41836,-4.50233 18.457,-8.73535 17.8636,-9.40672 -1.46382,-1.65613 -304.5018,-1.62743 -304.5018,0.0289 0,0.68725 7.54483,4.92026 16.76627,9.40672 l 16.76626,8.1572 H 273.62763 390.7092 Z m 6.52192,-62.41659 c -17.2319,-3.30521 -41.7436,-4.64347 -85.12162,-4.64729 -23.51844,-0.003 -42.7608,-0.24848 -42.7608,-0.54754 0,-0.29904 1.2715,-8.61391 2.82555,-18.47746 7.01654,-44.5336 12.68872,-94.510866 15.57126,-137.197449 L 308.02651,25 h 70.08534 70.08534 l -1.24247,18.477476 c -2.538,37.744226 -7.17975,86.777324 -11.7354,123.967064 -2.58034,21.06432 -4.69622,38.7523 -4.70196,39.30663 -0.0126,1.34159 -2.95575,1.12416 -14.34372,-1.06014 z"
       id="path1903" />
  </g>
</svg>
