<?xml version="1.0" encoding="UTF-8" standalone="no"?>
<!-- Created with Inkscape (http://www.inkscape.org/) -->

<svg
   version="1.1"
   id="svg113"
   width="500"
   height="500"
   viewBox="0 0 500 500"
   sodipodi:docname="codepen_logo.svg"
   inkscape:version="1.1.2 (b8e25be833, 2022-02-05)"
   xmlns:inkscape="http://www.inkscape.org/namespaces/inkscape"
   xmlns:sodipodi="http://sodipodi.sourceforge.net/DTD/sodipodi-0.dtd"
   xmlns="http://www.w3.org/2000/svg"
   xmlns:svg="http://www.w3.org/2000/svg">
  <defs
     id="defs117" />
  <sodipodi:namedview
     id="namedview115"
     pagecolor="#505050"
     bordercolor="#eeeeee"
     borderopacity="1"
     inkscape:pageshadow="0"
     inkscape:pageopacity="0"
     inkscape:pagecheckerboard="0"
     showgrid="false"
     width="500px"
     inkscape:zoom="0.77929687"
     inkscape:cx="340.69173"
     inkscape:cy="336.84211"
     inkscape:window-width="1920"
     inkscape:window-height="991"
     inkscape:window-x="-9"
     inkscape:window-y="-9"
     inkscape:window-maximized="1"
     inkscape:current-layer="g119" />
  <g
     inkscape:groupmode="layer"
     inkscape:label="Image"
     id="g119">
    <path
       style="fill:#000000;stroke-width:0.351632"
       d="m 245.37404,474.57007 c -1.1097,-0.28101 -2.67339,-0.84567 -3.47484,-1.25482 C 241.09774,472.90613 193.51964,441.2689 136.17007,403.01034 52.1465,346.95724 31.56881,333.08278 30.2022,331.56179 c -2.21754,-2.46807 -4.01587,-6.09866 -4.64147,-9.37055 -0.76418,-3.99662 -0.73941,-140.8483 0.0262,-144.49703 0.71028,-3.38527 2.60722,-7.07329 4.82748,-9.38556 2.44383,-2.54511 209.56714,-140.816352 212.68347,-141.983084 4.77098,-1.786221 9.74707,-1.76677 14.22693,0.05562 1.16555,0.474142 46.13431,30.252254 106.41966,70.470587 112.63466,75.142327 106.81338,71.096487 109.11943,75.839197 2.28222,4.69379 2.13419,-0.65599 2.13419,77.13729 0,45.36895 -0.12535,71.43494 -0.34933,72.64983 -0.54246,2.94233 -2.82759,7.23478 -5.0387,9.46482 -2.6583,2.68112 -210.00958,140.97208 -213.0789,142.11097 -2.71149,1.00614 -8.21658,1.2608 -11.15707,0.51619 z m -14.69307,-100.16125 -0.0137,-45.11158 -41.77097,-27.9205 c -22.97404,-15.35629 -41.94375,-27.86091 -42.15492,-27.78803 -0.88002,0.30363 -67.16562,44.82674 -67.09725,45.06828 0.0622,0.21992 150.69568,100.86327 150.96271,100.86338 0.0483,3e-5 0.0817,-20.30018 0.0742,-45.11155 z m 114.64041,-5.3271 75.60771,-50.43865 -33.469,-22.41714 c -18.40792,-12.3294 -33.72652,-22.47369 -34.04133,-22.54281 -0.32023,-0.0703 -18.92244,12.16697 -42.22698,27.77864 l -41.6546,27.90435 -0.0892,45.07715 c -0.0491,24.79244 -0.009,45.07714 0.0883,45.07714 0.0976,0 34.20093,-22.6974 75.78515,-50.43868 z m -60.81476,-96.29657 c 18.5435,-12.41214 33.70862,-22.66096 33.70025,-22.77514 -0.008,-0.11421 -15.33353,-10.45108 -34.05592,-22.97082 l -34.0407,-22.76321 -33.69873,22.5433 c -18.53429,12.39884 -33.88967,22.72139 -34.12307,22.93909 -0.32166,0.29997 7.80386,5.90467 33.56974,23.15527 18.69676,12.51774 34.20534,22.68742 34.46353,22.59927 0.25816,-0.0881 15.64136,-10.31562 34.1849,-22.72776 z M 88.24299,266.06256 c 13.00168,-8.69326 23.63287,-15.90812 23.62485,-16.03306 -0.0175,-0.27282 -47.50128,-32.07355 -47.87943,-32.0657 -0.145,0.004 -0.26363,14.498 -0.26363,32.21107 0,25.66654 0.0892,32.15367 0.43939,31.94962 0.24167,-0.1408 11.07714,-7.36868 24.07882,-16.06193 z m 347.93713,-48.01012 c -0.14799,-0.14809 -46.65653,30.86043 -47.566,31.71356 -0.34119,0.32002 4.88033,3.96546 23.55154,16.44267 l 23.98992,16.03148 0.0897,-32.01635 c 0.0494,-17.60896 0.02,-32.0861 -0.0652,-32.17136 z M 188.9895,198.6502 230.69469,170.71334 V 125.6255 80.537658 l -75.57172,50.337002 c -41.56444,27.68536 -75.53093,50.46506 -75.48107,50.62156 0.117,0.36724 67.14712,45.26601 67.42936,45.16618 0.11718,-0.0414 18.98038,-12.64693 41.91824,-28.0122 z m 187.23267,12.7717 c 12.47002,-8.34081 27.61074,-18.4879 33.64609,-22.54905 l 10.97333,-7.38391 -75.74008,-50.52651 -75.74008,-50.526508 0.008,45.111668 0.008,45.11167 41.9098,28.04972 c 23.05039,15.42739 41.98889,28.01114 42.08555,27.9639 0.0967,-0.0472 10.3785,-6.91014 22.84852,-15.25098 z"
       id="path141" />
  </g>
</svg>
