<?xml version="1.0" encoding="UTF-8" standalone="no"?>
<!-- Created with Inkscape (http://www.inkscape.org/) -->

<svg
   version="1.1"
   id="svg1341"
   width="500"
   height="500"
   viewBox="0 0 500.00001 500.00001"
   sodipodi:docname="Arobase.svg"
   inkscape:version="1.1.2 (b8e25be833, 2022-02-05)"
   xmlns:inkscape="http://www.inkscape.org/namespaces/inkscape"
   xmlns:sodipodi="http://sodipodi.sourceforge.net/DTD/sodipodi-0.dtd"
   xmlns="http://www.w3.org/2000/svg"
   xmlns:svg="http://www.w3.org/2000/svg">
  <defs
     id="defs1345" />
  <sodipodi:namedview
     id="namedview1343"
     pagecolor="#505050"
     bordercolor="#eeeeee"
     borderopacity="1"
     inkscape:pageshadow="0"
     inkscape:pageopacity="0"
     inkscape:pagecheckerboard="0"
     showgrid="false"
     inkscape:zoom="1.0186888"
     inkscape:cx="333.27155"
     inkscape:cy="306.76689"
     inkscape:window-width="1920"
     inkscape:window-height="991"
     inkscape:window-x="-9"
     inkscape:window-y="-9"
     inkscape:window-maximized="1"
     inkscape:current-layer="g1347"
     width="500px" />
  <g
     inkscape:groupmode="layer"
     inkscape:label="Image"
     id="g1347">
    <g
       id="g2463">
      <path
         style="fill:#ffffff;stroke-width:0.817001"
         d="M 244.53737,379.23886 C 219.90773,377.49722 195.0486,368.97691 176.26699,355.83958 168.9177,350.69892 109.02833,292.86894 102.32958,284.44466 90.006205,268.94683 80.846846,248.22228 76.925672,226.96408 75.066448,216.88449 74.396043,194.28323 75.617644,182.86669 82.074506,122.52391 116.32969,71.970899 167.60229,47.117851 192.24247,35.174172 215.43732,30.016586 244.58505,30.00004 c 26.72748,-0.01515 47.58641,4.30505 67.56174,13.99314 15.95562,7.738521 20.66159,11.597846 54.60078,44.77765 17.32407,16.93642 33.44502,33.31926 35.82441,36.40627 5.27483,6.84358 12.34258,20.13695 15.74606,29.61605 7.47685,20.8236 8.77077,49.06996 3.41787,74.61075 -8.84637,42.20922 -33.84944,71.36055 -68.9049,80.33688 -3.606,0.92335 -7.2297,1.67883 -8.05268,1.67883 -0.82295,0 -1.49934,0.27277 -1.50309,0.60613 -0.005,0.33339 1.90139,10.75319 4.23365,23.15509 l 4.24046,22.54895 -1.96238,1.47049 c -3.42001,2.56274 -18.22855,9.35083 -25.08804,11.50012 -16.77446,5.25594 -30.18979,7.46899 -52.11632,8.59727 -8.58486,0.44175 -16.35213,0.75454 -17.26065,0.69509 -0.9085,-0.0596 -5.76157,-0.39868 -10.78459,-0.75389 z m -1.60415,-58.44683 c 18.35805,-2.6912 29.26565,-5.70163 41.89734,-11.56349 6.92921,-3.21558 7.97917,-3.96077 7.63083,-5.41586 -0.56535,-2.36137 -5.33437,-27.43507 -5.33837,-28.06705 -0.002,-0.28481 -3.67192,0.89138 -8.15585,2.61378 -18.53159,7.11856 -38.20896,10.43258 -61.9196,10.42839 -20.96846,-0.004 -33.40137,-2.45611 -47.46432,-9.36232 -11.67022,-5.73113 -23.46698,-15.91865 -30.53119,-26.36628 -7.13937,-10.55882 -12.73716,-25.21364 -14.57802,-38.16486 -2.84415,-20.00963 0.76606,-48.96601 8.69516,-69.74142 14.53485,-38.08341 42.21994,-62.68661 80.44399,-71.489064 10.01254,-2.305741 35.39601,-2.952785 46.73997,-1.19143 34.0832,5.29204 56.67081,22.149804 65.95499,49.224074 10.3,30.03657 2.67925,72.89944 -16.02602,90.13842 -6.50265,5.99291 -16.45499,9.47359 -22.7014,7.93948 -6.71787,-1.64986 -6.93026,-6.37336 -1.32035,-29.36392 7.29245,-29.88594 19.85543,-81.98076 19.85543,-82.33437 0,-0.18922 -10.86381,-0.2476 -24.14183,-0.12977 l -24.14183,0.21425 -1.19223,5.05118 c -0.65573,2.77813 -1.40634,5.04667 -1.66804,5.04116 -0.26171,-0.005 -1.29697,-1.25076 -2.30059,-2.76724 -2.32166,-3.50805 -8.14223,-7.43526 -14.14197,-9.54175 -6.57816,-2.30956 -19.47433,-2.84785 -26.5732,-1.10915 -24.3981,5.97572 -43.95596,28.80619 -53.2381,62.14641 -4.35096,15.62813 -5.91274,39.68076 -3.40473,52.43605 4.65653,23.68243 18.59506,36.23746 40.23061,36.23746 16.04426,0 28.7139,-4.90208 39.78772,-15.39449 3.69005,-3.49632 6.73156,-6.28168 6.75891,-6.1897 0.76104,2.55937 4.41853,8.58244 6.73578,11.09229 6.23402,6.75219 13.72343,9.56923 27.24399,10.24746 50.10853,2.5135 85.04163,-34.37795 90.42428,-95.49345 C 370.9503,109.32556 346.81436,67.373373 302.79145,49.190333 272.26827,36.583178 233.79888,34.82422 198.7467,44.433036 c -41.4418,11.3604 -75.92291,39.288774 -96.14146,77.870844 -23.026965,43.94127 -25.282925,99.73806 -5.57627,137.91815 17.77923,34.44591 49.93092,55.85703 92.63265,61.68792 7.81731,1.06743 43.46727,0.31931 53.2716,-1.11792 z M 210.72248,217.08864 c -6.44193,-1.53568 -8.65402,-9.24663 -7.03221,-24.51311 2.69315,-25.35118 10.7716,-43.20599 22.06417,-48.76566 1.45767,-0.71764 4.64909,-1.30131 7.11539,-1.30131 5.20148,0 8.3429,1.90743 10.16348,6.17114 2.7171,6.36335 0.0637,28.24372 -5.14692,42.44185 -6.96906,18.98966 -16.84208,28.42771 -27.16391,25.96709 z"
         id="path1369" />
      <path
         style="fill:#ffffff;stroke:#ffffff;stroke-width:5.84213;stroke-miterlimit:4;stroke-dasharray:none;stroke-opacity:1"
         d="m 53.680567,408.61693 c -19.442203,1.58312 -29.978438,5.56856 -24.253527,9.17418 1.009305,0.63566 17.259334,5.82337 36.111199,11.52823 18.851867,5.70486 59.539501,18.02103 90.417001,27.36925 30.87753,9.34824 58.55297,17.44536 61.50097,17.99366 17.06387,3.17362 47.72311,3.17362 64.82552,0 2.9547,-0.5483 24.92016,-6.91622 48.81218,-14.15091 23.89201,-7.23473 47.4048,-14.35117 52.25068,-15.81437 88.35876,-26.67976 88.7761,-26.816 88.79869,-28.98863 0.0294,-2.83285 -11.22916,-5.90067 -26.09802,-7.11141 l -8.54609,-0.69586 H 249.86291 62.226656 Z m 388.743213,2.95363 c 9.09626,1.21333 12.81095,2.4262 12.81844,4.18539 0.007,1.42481 -3.71492,2.61128 -91.31388,29.11619 -50.40207,15.2502 -93.32341,27.91835 -95.79091,28.2725 -10.37591,1.48922 -27.96371,1.41316 -37.37898,-0.16165 -2.55047,-0.42658 -21.31033,-5.83031 -41.68856,-12.00826 -20.37822,-6.17795 -61.24812,-18.54577 -90.821976,-27.48405 -50.280767,-15.19664 -53.770632,-16.3439 -53.770632,-17.67652 0,-0.78383 1.073132,-1.78432 2.384727,-2.22334 3.247095,-1.08688 10.923382,-2.28503 17.055067,-2.66205 3.457937,-0.21261 63.461874,-0.29488 188.613534,-0.25857 l 183.54227,0.0532 z"
         id="path1208" />
    </g>
  </g>
</svg>
