<?xml version="1.0" encoding="UTF-8" standalone="no"?>
<svg
   viewBox="0 0 500 500"
   version="1.1"
   id="svg103"
   sodipodi:docname="cv.svg"
   width="500"
   height="500"
   inkscape:version="1.1.2 (b8e25be833, 2022-02-05)"
   xmlns:inkscape="http://www.inkscape.org/namespaces/inkscape"
   xmlns:sodipodi="http://sodipodi.sourceforge.net/DTD/sodipodi-0.dtd"
   xmlns="http://www.w3.org/2000/svg"
   xmlns:svg="http://www.w3.org/2000/svg">
  <defs
     id="defs107" />
  <sodipodi:namedview
     id="namedview105"
     pagecolor="#505050"
     bordercolor="#eeeeee"
     borderopacity="1"
     inkscape:pageshadow="0"
     inkscape:pageopacity="0"
     inkscape:pagecheckerboard="0"
     showgrid="false"
     width="500px"
     inkscape:zoom="1.1020922"
     inkscape:cx="193.72245"
     inkscape:cy="272.66321"
     inkscape:window-width="1920"
     inkscape:window-height="991"
     inkscape:window-x="-9"
     inkscape:window-y="-9"
     inkscape:window-maximized="1"
     inkscape:current-layer="svg103" />
  <!--!Font Awesome Free 6.7.2 by @fontawesome - https://fontawesome.com License - https://fontawesome.com/license/free Copyright 2025 Fonticons, Inc.-->
  <path
     d="M 100,25 C 58.632812,25 25,50.224609 25,81.25 v 337.5 C 25,449.77539 58.632812,475 100,475 h 300 c 41.36719,0 75,-25.22461 75,-56.25 V 165.625 H 325 c -20.74219,0 -37.5,-12.56836 -37.5,-28.125 V 25 Z m 225,0 V 137.5 H 475 Z M 156.25,250 h 187.5 c 10.3125,0 18.75,6.32812 18.75,14.0625 0,7.73437 -8.4375,14.0625 -18.75,14.0625 h -187.5 c -10.3125,0 -18.75,-6.32813 -18.75,-14.0625 0,-7.73438 8.4375,-14.0625 18.75,-14.0625 z m 0,56.25 h 187.5 c 10.3125,0 18.75,6.32812 18.75,14.0625 0,7.73437 -8.4375,14.0625 -18.75,14.0625 h -187.5 c -10.3125,0 -18.75,-6.32813 -18.75,-14.0625 0,-7.73438 8.4375,-14.0625 18.75,-14.0625 z m 0,56.25 h 187.5 c 10.3125,0 18.75,6.32812 18.75,14.0625 0,7.73437 -8.4375,14.0625 -18.75,14.0625 h -187.5 c -10.3125,0 -18.75,-6.32813 -18.75,-14.0625 0,-7.73438 8.4375,-14.0625 18.75,-14.0625 z"
     id="path101"
     style="stroke-width:1.01487" />
</svg>
