<?xml version="1.0" encoding="UTF-8" standalone="no"?>
<!-- Created with Inkscape (http://www.inkscape.org/) -->

<svg
   version="1.1"
   id="svg9"
   width="500"
   height="500"
   viewBox="0 0 500 500"
   sodipodi:docname="file_certificate.svg"
   inkscape:version="1.1.2 (b8e25be833, 2022-02-05)"
   xmlns:inkscape="http://www.inkscape.org/namespaces/inkscape"
   xmlns:sodipodi="http://sodipodi.sourceforge.net/DTD/sodipodi-0.dtd"
   xmlns="http://www.w3.org/2000/svg"
   xmlns:svg="http://www.w3.org/2000/svg">
  <defs
     id="defs13" />
  <sodipodi:namedview
     id="namedview11"
     pagecolor="#505050"
     bordercolor="#eeeeee"
     borderopacity="1"
     inkscape:pageshadow="0"
     inkscape:pageopacity="0"
     inkscape:pagecheckerboard="0"
     showgrid="false"
     width="500px"
     inkscape:zoom="0.85444445"
     inkscape:cx="510.85826"
     inkscape:cy="263.91417"
     inkscape:window-width="1920"
     inkscape:window-height="991"
     inkscape:window-x="-9"
     inkscape:window-y="-9"
     inkscape:window-maximized="1"
     inkscape:current-layer="g15" />
  <g
     inkscape:groupmode="layer"
     inkscape:label="Image"
     id="g15">
    <path
       style="fill:#ffffff;stroke-width:2.1864"
       d="m 296.65413,421.64215 c -2.48612,-2.05391 -4.18481,-6.65822 -4.18481,-11.34305 v -7.8858 h -96.16809 c -103.972354,0 -108.495145,-0.38946 -116.981916,-10.07334 -3.968517,-4.52831 -4.30976,-16.71505 -4.30976,-153.91361 0,-163.675825 -0.916339,-154.015023 15.199537,-160.245815 11.037899,-4.267521 279.797749,-4.227974 290.844049,0.0428 15.05545,5.820802 15.08885,6.032387 15.08885,95.588225 v 81.62918 l 9.135,7.55975 c 14.54257,12.03483 19.73182,22.60148 19.723,40.16119 -0.008,15.91977 -3.93871,24.36087 -17.76811,38.15663 -5.82541,5.81126 -6.03268,7.16327 -6.03268,39.35231 0,21.46174 -1.03544,34.80503 -2.90714,37.46365 -7.02979,9.9852 -15.09209,9.23561 -35.25662,-3.2781 l -16.50589,-10.2432 -17.08515,10.2432 c -18.05356,10.82384 -25.9297,12.45379 -32.79027,6.78598 z m 36.99296,-32.08645 c 5.26361,-3.3261 11.13313,-6.04747 13.04336,-6.04747 1.91021,0 9.83571,3.87502 17.61222,8.61115 l 14.13911,8.61115 v -21.11994 c 0,-21.0134 -0.0285,-21.11361 -5.68936,-19.86583 -13.36391,2.94581 -33.90978,3.15175 -45.51483,0.4562 l -12.01086,-2.78978 V 379.26 c 0,24.46783 -2.12643,23.27931 18.42036,10.2957 z m -41.17777,-20.22627 v -14.1788 h -73.49569 c -45.82688,0 -75.33699,-0.73675 -78.38666,-1.95702 -5.46714,-2.18756 -6.50199,-9.31585 -1.85664,-12.78894 2.21529,-1.65627 22.11401,-2.26861 73.72135,-2.26861 67.13047,0 70.48956,-0.16655 66.76209,-3.30839 -2.15871,-1.81961 -5.63238,-7.13666 -7.71928,-11.81566 l -3.79435,-8.50729 -61.82693,-0.94525 c -64.22294,-0.9819 -70.17721,-1.77146 -70.17721,-9.30591 0,-7.24217 4.14543,-7.70865 68.50385,-7.70865 h 62.4352 l 1.70247,-5.07146 c 0.93637,-2.78931 3.80115,-8.31905 6.36616,-12.28829 l 4.66368,-7.21685 h -66.21584 c -55.83806,0 -67.09664,-0.46124 -71.83569,-2.94295 -6.18305,-3.23791 -7.28897,-8.28647 -2.5855,-11.803 2.23229,-1.66898 24.20314,-2.26861 83.12242,-2.26861 75.94977,0 80.71054,-0.20584 92.13363,-3.9837 14.60627,-4.8306 37.0491,-6.6067 49.91594,-3.95027 l 9.48225,1.95768 -0.0387,-75.94053 c -0.0202,-41.76729 -0.9481,-77.011471 -2.05953,-78.320403 -1.59157,-1.874389 -30.71978,-2.275934 -137.13793,-1.890507 L 99.031272,93.315389 98.377471,236.04867 c -0.35959,78.50332 -0.110828,143.7967 0.552791,145.09643 0.936048,1.83326 22.769088,2.36313 97.372818,2.36313 h 96.16624 z M 138.73033,224.32753 c -4.66567,-3.48827 -3.60113,-10.60511 1.91653,-12.8129 3.25514,-1.30247 35.84405,-1.8109 95.14718,-1.4844 87.69743,0.48284 90.29149,0.60379 93.63117,4.3653 2.92896,3.2989 2.86003,4.48227 -0.468,8.03465 -3.90097,4.16398 -3.94656,4.16596 -95.54769,4.16596 -67.90788,0 -92.43079,-0.58759 -94.67919,-2.26861 z m 1.09958,-43.24077 c -6.55907,-3.85739 -6.66252,-4.28301 -6.66252,-27.41236 0,-34.0517 -9.52313,-31.05615 98.73041,-31.05615 h 88.61601 l 6.20655,4.64033 c 5.83491,4.36245 6.20658,5.88158 6.20658,25.36723 0,11.39979 -0.70682,22.10403 -1.57071,23.7872 -4.07019,7.93013 -11.80182,8.59198 -100.37109,8.59198 -81.65022,0 -84.71686,-0.13182 -91.15523,-3.91823 z m 170.33961,-27.27514 v -14.17881 h -77.12235 -77.12236 v 13.20583 13.20583 l 76.49021,0.52913 c 42.06962,0.29102 76.77468,0.72885 77.12236,0.97297 0.34768,0.24412 0.63214,-5.93661 0.63214,-13.73495 z m 54.60711,189.10251 c 22.49318,-4.99411 37.48037,-20.89566 37.46662,-39.75245 -0.0263,-35.88856 -53.97584,-55.29083 -90.74054,-32.63363 -13.27964,8.18391 -19.88814,19.01196 -19.91679,32.63363 -0.0493,23.48691 23.06376,41.14571 55.42154,42.3429 2.87672,0.10644 10.87287,-1.05927 17.76917,-2.59045 z"
       id="path389" />
  </g>
</svg>
