<?xml version="1.0" encoding="UTF-8" standalone="no"?>
<svg
   viewBox="0 0 500 500"
   version="1.1"
   id="svg11"
   sodipodi:docname="github-brands.svg"
   width="500"
   height="500"
   inkscape:version="1.1.2 (b8e25be833, 2022-02-05)"
   xmlns:inkscape="http://www.inkscape.org/namespaces/inkscape"
   xmlns:sodipodi="http://sodipodi.sourceforge.net/DTD/sodipodi-0.dtd"
   xmlns="http://www.w3.org/2000/svg"
   xmlns:svg="http://www.w3.org/2000/svg">
  <defs
     id="defs15" />
  <sodipodi:namedview
     id="namedview13"
     pagecolor="#505050"
     bordercolor="#eeeeee"
     borderopacity="1"
     inkscape:pageshadow="0"
     inkscape:pageopacity="0"
     inkscape:pagecheckerboard="0"
     showgrid="false"
     width="500px"
     inkscape:zoom="1.5019531"
     inkscape:cx="248.0104"
     inkscape:cy="256"
     inkscape:window-width="1920"
     inkscape:window-height="991"
     inkscape:window-x="-9"
     inkscape:window-y="-9"
     inkscape:window-maximized="1"
     inkscape:current-layer="svg11" />
  <!--!Font Awesome Free 6.7.2 by @fontawesome - https://fontawesome.com License - https://fontawesome.com/license/free Copyright 2025 Fonticons, Inc.-->
  <path
     d="m 175.51411,387.33934 c 0,1.86102 -2.08669,3.34983 -4.71774,3.34983 -2.99395,0.27915 -5.08064,-1.20966 -5.08064,-3.34983 0,-1.86101 2.08669,-3.34982 4.71774,-3.34982 2.72177,-0.27915 5.08064,1.20966 5.08064,3.34982 z m -28.21572,-4.18728 c -0.63508,1.86101 1.17943,4.00118 3.90121,4.55948 2.35887,0.93051 5.08064,0 5.625,-1.86101 0.54435,-1.86101 -1.17944,-4.00118 -3.90121,-4.83863 -2.35887,-0.65136 -4.98992,0.27915 -5.625,2.14016 z m 40.1008,-1.58186 c -2.63104,0.65135 -4.44556,2.41932 -4.17338,4.55948 0.27217,1.86102 2.63104,3.07068 5.35282,2.41932 2.63105,-0.65135 4.44556,-2.41932 4.17339,-4.28033 -0.27218,-1.76796 -2.72178,-2.97762 -5.35283,-2.69847 z M 247.09677,25 C 121.26008,25 25,122.98236 25,252.04366 c 0,103.1932 63.326613,191.49829 153.78024,222.57722 11.61291,2.14016 15.69557,-5.21084 15.69557,-11.25913 0,-5.76915 -0.27218,-37.59248 -0.27218,-57.13312 0,0 -63.50807,13.9576 -76.84476,-27.7291 0,0 -10.34274,-27.07775 -25.221773,-34.05655 0,0 -20.77621,-14.60896 1.451613,-14.32981 0,0 22.59073,1.86102 35.02016,24.00708 19.86895,35.91756 53.16532,25.58894 66.13911,19.44759 2.0867,-14.88811 7.98387,-25.21673 14.51613,-31.35808 -50.71572,-5.76914 -101.88508,-13.30624 -101.88508,-102.821 0,-25.58893 6.89516,-38.42993 21.41129,-54.80685 -2.35887,-6.04829 -10.07056,-30.98587 2.35887,-63.18141 18.9617,-6.04829 62.60081,25.12369 62.60081,25.12369 18.14516,-5.21084 37.65121,-7.90931 56.97581,-7.90931 19.32459,0 38.83064,2.69847 56.9758,7.90931 0,0 43.63912,-31.26503 62.60081,-25.12369 12.42943,32.28859 4.71774,57.13312 2.35887,63.18141 14.51613,16.46997 23.40726,29.31097 23.40726,54.80685 0,89.79391 -53.4375,96.95881 -104.15323,102.821 8.34678,7.35101 15.42339,21.30861 15.42339,43.17552 0,31.35808 -0.27218,70.16021 -0.27218,77.79036 0,6.0483 4.17339,13.3993 15.69557,11.25914 C 413.4879,443.54195 475,355.23686 475,252.04366 475,122.98236 372.93347,25 247.09677,25 Z M 113.18548,345.93179 c -1.17943,0.93051 -0.90725,3.07067 0.63509,4.83864 1.45161,1.48881 3.5383,2.14016 4.71774,0.9305 1.17943,-0.9305 0.90726,-3.07067 -0.63508,-4.83863 -1.45162,-1.48881 -3.53831,-2.14017 -4.71775,-0.93051 z m -9.79838,-7.5371 c -0.63508,1.20965 0.27217,2.69846 2.08669,3.62897 1.45161,0.93051 3.26613,0.65136 3.90121,-0.65135 0.63508,-1.20966 -0.27218,-2.69847 -2.08669,-3.62898 -1.81452,-0.5583 -3.26613,-0.27915 -3.90121,0.65136 z m 29.39516,33.12604 c -1.45161,1.20966 -0.90726,4.00118 1.17943,5.76914 2.0867,2.14016 4.71775,2.41932 5.89718,0.93051 1.17944,-1.20966 0.63508,-4.00118 -1.17943,-5.76915 -1.99597,-2.14016 -4.71775,-2.41931 -5.89718,-0.9305 z m -10.34274,-13.67845 c -1.45162,0.9305 -1.45162,3.34982 0,5.48999 1.45161,2.14016 3.90121,3.07067 5.08064,2.14016 1.45161,-1.20966 1.45161,-3.62897 0,-5.76914 -1.27016,-2.14017 -3.62903,-3.07067 -5.08064,-1.86101 z"
     id="path9"
     style="stroke-width:0.918809" />
</svg>
