<?xml version="1.0" encoding="UTF-8" standalone="no"?>
<!-- Created with Inkscape (http://www.inkscape.org/) -->

<svg
   version="1.1"
   id="svg1191"
   width="500"
   height="200"
   viewBox="0 0 500 200"
   sodipodi:docname="golf_8.svg"
   inkscape:version="1.1.2 (b8e25be833, 2022-02-05)"
   xmlns:inkscape="http://www.inkscape.org/namespaces/inkscape"
   xmlns:sodipodi="http://sodipodi.sourceforge.net/DTD/sodipodi-0.dtd"
   xmlns="http://www.w3.org/2000/svg"
   xmlns:svg="http://www.w3.org/2000/svg">
  <defs
     id="defs1195" />
  <sodipodi:namedview
     id="namedview1193"
     pagecolor="#505050"
     bordercolor="#eeeeee"
     borderopacity="1"
     inkscape:pageshadow="0"
     inkscape:pageopacity="0"
     inkscape:pagecheckerboard="0"
     showgrid="false"
     width="500px"
     inkscape:zoom="2.4615385"
     inkscape:cx="259.79687"
     inkscape:cy="117.60937"
     inkscape:window-width="1920"
     inkscape:window-height="991"
     inkscape:window-x="-9"
     inkscape:window-y="-9"
     inkscape:window-maximized="1"
     inkscape:current-layer="g1197" />
  <g
     inkscape:groupmode="layer"
     inkscape:label="Image"
     id="g1197">
    <path
       style="fill:#ffffff;stroke-width:0.945053"
       d="m 397.21891,186.78388 c 2.52047,-0.66509 6.67643,-2.35065 9.23545,-3.74569 6.2097,-3.38519 14.53597,-13.04709 16.62023,-19.2863 1.09779,-3.28621 2.07996,-4.78235 3.00979,-4.58477 0.84698,0.17998 1.26946,1.1311 1.09349,2.4618 -0.26826,2.02874 0.0566,2.16797 5.04096,2.16017 9.50693,-0.0149 26.29701,-1.93106 30.82614,-3.51807 5.68987,-1.99373 11.02723,-7.4656 10.17761,-10.43412 -0.33341,-1.16491 -1.18796,-2.82427 -1.89901,-3.68747 -1.48695,-1.80513 -0.95336,-10.4082 1.051,-16.94525 0.65733,-2.14381 1.45479,-6.30962 1.77214,-9.25735 0.56963,-5.291 0.52459,-5.42299 -3.52305,-10.32452 -2.25503,-2.73075 -4.39045,-6.19514 -4.74537,-7.69864 C 465.04882,98.40995 456.20541,89.209013 449.64037,85.029281 432.38665,74.044434 398.07702,65.667381 358.80019,62.849698 349.7961,62.20375 349.64101,62.149677 342.30253,57.097708 325.18636,45.314566 296.28733,29.866751 280.41395,24.015532 249.24234,12.52509 207.3183,10.199367 140.13033,16.233341 114.33984,18.549516 85.030596,22.745872 68.869586,26.436104 l -4.81182,1.09874 v 6.414407 6.414407 l -14.50908,15.677475 c -13.51227,14.600378 -14.548,15.979303 -15.07547,20.070827 -0.31151,2.416343 -0.18511,6.141978 0.2809,8.279178 0.466,2.1372 0.85711,6.709619 0.86914,10.160924 l 0.0219,6.275108 -4.51705,4.44393 -4.51705,4.44392 -0.48042,9.74458 c -0.26423,5.35952 -0.53756,10.83468 -0.6074,12.16704 -0.0698,1.33235 -0.4854,3.13451 -0.92347,4.00479 -0.92596,1.83951 1.44081,5.63011 8.05164,12.89542 5.68859,6.25177 8.08862,7.42642 17.85009,8.7364 7.54889,1.01306 8.35221,0.9604 9.43827,-0.61874 1.06058,-1.54208 1.35778,-1.17498 2.78852,3.44428 8.77237,28.3225 41.247284,36.99753 60.775684,16.23504 2.58406,-2.74737 5.80066,-7.39076 7.14801,-10.31866 l 2.44971,-5.32345 33.98918,0.57907 c 18.69405,0.31849 67.50007,0.84671 108.45781,1.17383 l 74.46862,0.59477 v -2.05212 c 0,-1.30864 0.58111,-2.04846 1.60394,-2.04199 1.05642,0.007 2.45525,1.95582 4.09785,5.70994 4.91602,11.2355 13.56614,18.84407 25.03424,22.01989 6.32073,1.75038 10.17686,1.7782 16.46562,0.11877 z m -16.73962,-2.93704 c -16.72354,-4.73325 -27.7664,-22.4725 -25.07015,-40.2727 2.30015,-15.18525 12.07784,-26.42721 26.20991,-30.13504 5.3129,-1.39394 7.17793,-1.46554 12.56953,-0.48255 7.94186,1.44793 12.60255,3.95773 18.65953,10.04819 11.92106,11.98692 13.76461,31.30356 4.41661,46.27692 -7.87674,12.61676 -22.79685,18.52437 -36.78543,14.56518 z m 13.15898,-6.5162 c 8.91456,-1.69064 16.23463,-7.52947 20.1752,-16.09268 2.02177,-4.3935 2.49648,-6.76519 2.48179,-12.39924 -0.0303,-11.61896 -5.33056,-20.70299 -15.11152,-25.89948 -6.64217,-3.52888 -14.13133,-4.0036 -21.44489,-1.35932 -6.14284,2.22099 -14.18161,10.76777 -16.27058,17.29881 -6.69105,20.91911 10.05814,42.26611 30.17,38.45191 z m -0.27713,-9.68683 c -0.53594,-4.3159 -1.22763,-8.11628 -1.53708,-8.4453 -1.30508,-1.38756 -1.81281,1.20704 -1.66661,8.51665 0.12999,6.4986 -0.0817,7.77576 -1.28885,7.77576 -1.25792,0 -1.36124,-1.17924 -0.8003,-9.13394 0.44618,-6.32723 0.33128,-9.33949 -0.3739,-9.80285 -0.55991,-0.36791 -4.82397,1.71547 -9.47569,4.62973 -7.57719,4.74703 -8.57592,5.13353 -9.59332,3.7125 -0.62459,-0.87239 -1.14874,-1.90953 -1.16478,-2.30476 -0.016,-0.39522 2.85794,-2.26438 6.38661,-4.15369 10.14819,-5.43351 7.41781,-7.04222 -3.92921,-2.31506 -5.27036,2.19564 -5.23616,2.193 -5.23616,0.4037 0,-1.40081 1.46005,-1.95399 11.68585,-4.42753 3.43939,-0.83195 4.80486,-1.6226 4.78742,-2.77204 -0.0134,-0.88445 -3.10673,-4.43357 -6.87403,-7.88691 -3.7673,-3.45334 -6.84963,-6.56454 -6.84963,-6.91378 0,-0.34925 0.77792,-1.3835 1.72872,-2.29833 1.65552,-1.59291 1.93227,-1.41452 6.53576,4.21269 2.64386,3.23181 5.19359,5.62202 5.66606,5.31157 1.21055,-0.79545 0.42603,-2.51741 -3.96243,-8.6972 -2.68331,-3.77863 -3.54591,-5.70915 -2.87141,-6.42629 0.67451,-0.71713 2.11613,1.03653 4.79881,5.83753 2.10908,3.77444 4.45972,7.41413 5.22365,8.08821 1.68224,1.48437 2.09997,0.83276 6.70527,-10.45949 2.28535,-5.6037 3.61046,-7.7625 4.58822,-7.47484 0.75614,0.22246 1.92009,0.58735 2.58655,0.81087 0.87141,0.29226 0.15628,2.43927 -2.54608,7.64413 -2.45767,4.73355 -3.41076,7.46577 -2.75471,7.89686 1.08363,0.71204 2.07083,-0.44428 6.46734,-7.57529 1.56956,-2.54577 3.42941,-4.62868 4.133,-4.62868 2.19461,0 1.45475,1.44846 -4.2483,8.31702 -6.82372,8.21829 -6.47207,8.86057 5.43087,9.91915 6.61826,0.58859 8.84006,1.1541 9.60303,2.44424 1.84576,3.12106 -0.31123,3.75551 -7.96006,2.34136 -3.90245,-0.7215 -7.30385,-0.95316 -7.55867,-0.51481 -0.63363,1.09004 3.65088,3.28146 9.4494,4.83313 3.54009,0.94732 4.81182,1.74426 4.81182,3.01536 0,1.51835 -0.89843,1.31889 -7.41351,-1.64591 -4.07743,-1.8555 -7.97128,-3.37364 -8.65301,-3.37364 -2.55715,0 -2.53672,0.22642 1.78618,19.79217 0.3368,1.52438 -1.66832,3.245 -4.11725,3.53305 -0.28881,0.034 -0.96362,-3.46943 -1.49957,-7.78534 z m -1.18318,-12.07176 c 0,-0.7723 -0.46541,-1.71 -1.03424,-2.08377 -0.7071,-0.46463 -0.56215,-0.96047 0.45827,-1.56761 1.74687,-1.03938 1.97374,-4.76205 0.39266,-6.44305 -0.85543,-0.90949 -0.85543,-1.16935 0,-1.16935 0.60492,0 1.09985,-0.65776 1.09985,-1.46168 0,-0.81205 -0.81471,-1.46169 -1.83308,-1.46169 -1.00819,0 -1.83307,0.48503 -1.83307,1.07783 0,0.5928 -1.03111,1.94014 -2.29134,2.9941 -1.26024,1.05395 -2.29135,2.51037 -2.29135,3.2365 0,0.72613 1.03111,2.18255 2.29135,3.23651 1.26023,1.05395 2.29134,2.62055 2.29134,3.48132 0,0.86078 0.61866,1.56506 1.3748,1.56506 0.75615,0 1.37481,-0.63188 1.37481,-1.40417 z m -5.04096,-6.86537 c 0,-2.22963 3.07695,-3.27699 4.15893,-1.41567 1.13361,1.95012 -0.0915,3.96826 -2.21337,3.64637 -1.23689,-0.18763 -1.94556,-1.00016 -1.94556,-2.2307 z m -1.94764,4.5688 c 0.72466,-1.24662 -0.95636,-3.43515 -2.0743,-2.70057 -1.47142,0.96686 -1.25359,3.47794 0.3017,3.47794 0.7264,0 1.52407,-0.34982 1.7726,-0.77737 z m 11.40935,-3.77055 c -0.44594,-2.44469 -2.58768,-2.78037 -2.58768,-0.40557 0,1.19695 0.5918,2.03012 1.44201,2.03012 0.85351,0 1.32107,-0.663 1.14567,-1.62455 z m -10.83651,-4.65192 c 0,-2.00164 -1.89746,-2.98513 -2.79161,-1.44695 -0.41447,0.71301 -0.55024,1.6462 -0.3017,2.07375 0.77027,1.32511 3.09331,0.85439 3.09331,-0.6268 z m -5.34979,29.23227 c -3.67959,-1.38028 -9.61023,-5.42628 -8.9628,-6.11462 0.1812,-0.19265 2.41234,1.02635 4.95809,2.70888 2.54576,1.68253 5.69167,3.12452 6.99093,3.20442 1.29925,0.0799 2.36257,0.47415 2.36292,0.87611 9.2e-4,1.05334 -1.11884,0.91207 -5.34914,-0.67479 z m 25.04834,-6.55278 c 3.50957,-3.41026 5.0457,-5.5879 4.76028,-6.74829 -0.2831,-1.151 -0.0117,-1.54611 0.827,-1.20394 1.04792,0.42755 1.04079,0.93617 -0.0444,3.16732 -1.456,2.99354 -8.22462,9.81996 -9.7368,9.81996 -0.54327,0 1.344,-2.26578 4.19391,-5.03505 z m -29.17715,1.4567 c -1.93661,-1.32791 -3.30912,-2.63978 -3.05003,-2.91526 0.25911,-0.27547 2.04246,0.6344 3.96301,2.02192 1.92055,1.38753 3.9905,2.52277 4.59987,2.52277 0.60937,0 1.39017,0.48548 1.73509,1.07885 0.95491,1.64272 -3.12684,0.11752 -7.24794,-2.70828 z m 27.90893,-3.9737 c 2.21365,-2.54577 4.17486,-4.25976 4.35823,-3.80885 0.39299,0.96634 -6.26839,8.43752 -7.52298,8.43752 -0.47304,0 0.95111,-2.0829 3.16475,-4.62867 z m -25.14058,2.36453 c -2.70344,-1.73996 -3.22612,-2.47855 -2.29134,-3.23782 1.37883,-1.11995 9.63275,-6.1906 10.08133,-6.1933 0.16229,-9.8e-4 0.15532,2.63006 -0.0155,5.84674 -0.27846,5.24431 -0.51517,5.84801 -2.29134,5.84353 -1.08944,-0.003 -3.55687,-1.01937 -5.48317,-2.25915 z m 19.92558,-3.33899 c -0.3122,-1.47387 -0.96582,-4.36842 -1.45251,-6.43234 -0.48667,-2.06392 -0.75464,-3.88415 -0.59548,-4.04494 0.15915,-0.16081 2.69073,0.8701 5.62572,2.29089 l 5.33636,2.58326 -3.34557,4.14144 c -1.84006,2.2778 -3.71801,4.14145 -4.17322,4.14145 -0.45521,0 -1.0831,-1.20589 -1.3953,-2.67976 z m -35.2071,-15.10409 c 0.005,-4.61493 1.47069,-11.10011 2.68824,-11.90014 0.43582,-0.28637 0.21432,1.5215 -0.49221,4.01749 -1.59247,5.62576 -1.65477,10.72842 -0.13894,11.37873 0.68442,0.29362 0.49992,0.52247 -0.45826,0.56843 -1.28807,0.0618 -1.60294,-0.73867 -1.59883,-4.06451 z m 5.50814,-1.46169 c 0.0225,-7.44153 0.95816,-7.94863 5.83937,-3.16495 2.32568,2.27921 4.2285,4.47923 4.2285,4.88894 0,0.59129 -4.82309,2.02339 -9.3945,2.78948 -0.37807,0.0633 -0.68109,-1.9677 -0.67337,-4.51347 z m -1.86558,-6.52593 c 0.54247,-1.51695 1.19252,-2.53885 1.44457,-2.27087 0.25205,0.26798 0.0343,1.67286 -0.48392,3.12196 -0.5182,1.44909 -1.01423,4.25057 -1.1023,6.22551 l -0.16012,3.59077 -0.34227,-3.95465 c -0.18823,-2.17505 0.10158,-5.19578 0.64404,-6.71272 z m 39.3891,-10.28347 c -0.48184,0 -0.87608,-0.50646 -0.87608,-1.12549 0,-0.62351 0.87549,-0.29756 1.96298,0.73085 2.11551,2.00058 6.27196,10.67152 6.26162,13.06259 -0.004,0.80393 -1.46121,-1.71748 -3.23939,-5.60313 -1.77819,-3.88565 -3.62729,-7.06482 -4.10913,-7.06482 z m -0.69734,3.52937 c -1.25241,-1.50363 -1.28706,-1.77568 -0.17874,-1.40345 1.73201,0.58171 5.47073,7.46166 5.46401,10.05481 -0.003,1.16276 -0.75668,0.18714 -1.86839,-2.41863 -1.02484,-2.40214 -2.56244,-5.20687 -3.41688,-6.23273 z m -7.67763,8.29245 -2.45795,-0.61555 3.45701,-4.29529 c 2.09643,-2.60476 3.8806,-4.01694 4.53326,-3.58809 0.99256,0.6522 4.71618,7.61518 4.71618,8.81901 0,0.68927 -7.10405,0.46739 -10.2485,-0.32008 z m -15.78571,-7.36666 c -1.30814,-2.37324 -2.37843,-4.76515 -2.37843,-5.31537 0,-0.55022 1.54665,-1.2778 3.43701,-1.61687 1.89036,-0.33905 4.15879,-0.82698 5.04095,-1.08428 0.88217,-0.25728 1.60394,-0.0543 1.60394,0.45107 0,1.19887 -4.44357,11.88041 -4.9423,11.88041 -0.2105,0 -1.45303,-1.94173 -2.76117,-4.31496 z m -2.64164,-8.46293 c 1.53341,-1.63031 9.60051,-3.02041 10.7062,-1.84485 0.6184,0.65748 -0.27023,1.00289 -2.69826,1.04883 -1.99117,0.0376 -4.4452,0.44535 -5.45339,0.90596 -2.62197,1.1979 -3.73942,1.14981 -2.55455,-0.10994 z m -2.4864,-0.91424 c 0,-1.80971 6.2106,-3.85306 11.19814,-3.6843 4.12147,0.13946 4.29618,0.21336 1.17511,0.49706 -5.05459,0.45945 -11.45671,2.33907 -11.45671,3.36361 0,0.46629 -0.20623,0.84781 -0.45827,0.84781 -0.25205,0 -0.45827,-0.46088 -0.45827,-1.02418 z M 82.888686,181.35894 c -17.2982,-8.77739 -24.14176,-31.66419 -14.95048,-49.99858 11.83672,-23.61138 43.961154,-25.32988 57.942384,-3.09962 13.32799,21.1916 2.9593,49.71964 -20.34579,55.97873 -6.131274,1.64669 -16.264064,0.35781 -22.646114,-2.88053 z m 24.865684,-5.51482 c 5.5031,-2.0732 11.69826,-8.29958 14.65843,-14.7323 2.08233,-4.52509 2.53838,-6.79425 2.49008,-12.38968 -0.10234,-11.85643 -5.1855,-20.4741 -15.22192,-25.8063 -9.860544,-5.23876 -21.329974,-3.66867 -29.576344,4.04879 -11.63018,10.88424 -12.74588,28.71274 -2.55127,40.76816 5.88543,6.9597 11.58793,9.70853 19.95801,9.62059 3.528674,-0.037 8.138034,-0.71624 10.243014,-1.50926 z m -5.60663,-7.27406 c -0.70738,-7.6325 -1.21713,-9.64492 -2.443094,-9.64492 -0.45016,0 -0.81848,3.7273 -0.81848,8.28289 0,6.85528 -0.24648,8.28289 -1.43011,8.28289 -1.2388,0 -1.34584,-1.22042 -0.80021,-9.1234 0.41792,-6.05313 0.30422,-9.3374 -0.33786,-9.75931 -0.53226,-0.34974 -4.78845,1.75084 -9.4582,4.66795 -7.7197,4.8224 -8.59656,5.15546 -9.65959,3.66895 -0.64303,-0.8992 -1.18227,-1.95828 -1.19831,-2.35351 -0.016,-0.39522 2.85795,-2.26438 6.38662,-4.15369 3.52866,-1.88931 6.41575,-3.8681 6.41575,-4.39731 0,-1.42181 -1.19114,-1.21344 -8.42582,1.47394 -7.7399,2.87504 -7.1553,2.79391 -7.1553,0.99302 0,-0.79372 1.13421,-1.71471 2.52047,-2.04664 1.38627,-0.33193 3.96403,-0.95407 5.72836,-1.38253 1.76433,-0.42846 4.34209,-1.0506 5.72835,-1.38253 4.0937,-0.98022 3.01832,-3.52715 -4.35355,-10.31096 -3.78071,-3.47914 -6.87402,-6.58848 -6.87402,-6.90965 0,-0.32118 0.77026,-1.32508 1.71168,-2.2309 1.63146,-1.56976 1.929,-1.39415 6.34825,3.7468 4.44819,5.1746 7.38594,7.01503 6.27226,3.92941 -0.29069,-0.80539 -2.25453,-3.89488 -4.36408,-6.86554 -2.70496,-3.80911 -3.54881,-5.70608 -2.86275,-6.43549 0.68606,-0.72942 1.37073,-0.35731 2.32276,1.26241 0.74246,1.26318 2.85696,4.84972 4.69889,7.97009 1.84193,3.12035 3.84135,5.49888 4.44317,5.2856 0.60181,-0.21328 2.68246,-4.29892 4.62366,-9.0792 1.941214,-4.78028 3.684134,-8.85586 3.873184,-9.05685 0.18904,-0.20099 1.423,-0.0775 2.74213,0.27457 l 2.39842,0.64001 -3.72606,7.21811 c -2.46835,4.78167 -3.38362,7.44314 -2.71153,7.88476 0.55799,0.36665 1.27775,0.25435 1.59946,-0.24957 5.11264,-8.00813 8.77031,-12.83147 9.41114,-12.4104 1.4773,0.97073 0.81684,2.26109 -4.24352,8.29074 -5.04671,6.01338 -6.0409,8.35849 -3.89529,9.18823 0.63012,0.24368 5.06387,0.77804 9.85278,1.18749 8.61991,0.73698 8.71,0.77127 8.99711,3.4242 0.34208,3.16092 -0.25805,3.24518 -8.97084,1.25962 -5.83519,-1.32978 -7.85807,-1.20196 -6.90572,0.43636 0.26552,0.45677 3.755,1.9891 7.7544,3.4052 5.22515,1.8501 7.13453,2.95461 6.78445,3.92456 -0.39004,1.08065 -1.52219,0.8568 -5.67724,-1.1225 -11.05226,-5.26486 -12.06987,-5.39738 -12.05052,-1.56927 0.012,2.37879 1.94843,12.43408 3.28522,17.05937 0.43455,1.50352 -1.73892,3.30524 -4.32602,3.58609 -0.31293,0.034 -0.85762,-3.05262 -1.2104,-6.85909 z m -1.79077,-13.97026 c -0.30855,-1.30704 -0.14704,-2.64844 0.35891,-2.98088 1.26968,-0.8343 1.15579,-4.72115 -0.17994,-6.1413 -0.855444,-0.90949 -0.855444,-1.16935 0,-1.16935 0.60491,0 1.09984,-0.65776 1.09984,-1.46168 0,-0.81205 -0.8147,-1.46169 -1.833074,-1.46169 -1.00819,0 -1.83308,0.55227 -1.83308,1.22728 0,0.67501 -0.78275,1.74701 -1.73944,2.38224 -1.47364,0.97846 -1.81434,0.8504 -2.22965,-0.83811 -0.26962,-1.09617 -0.93041,-1.7038 -1.46844,-1.35026 -1.50926,0.99172 -1.15676,3.45114 0.49464,3.45114 0.87841,0 1.27623,0.54479 0.98568,1.34982 -0.60612,1.67935 1.79542,5.47138 3.46511,5.47138 0.78579,0 1.06217,0.71092 0.75767,1.94892 -0.34255,1.39269 -0.0281,1.94891 1.1017,1.94891 1.218204,0 1.452314,-0.54539 1.020074,-2.37642 z m -4.678684,-5.89312 c 0,-2.14981 2.84942,-3.22039 4.343474,-1.63192 1.54048,1.63783 0.021,4.22642 -2.277164,3.87945 -1.35205,-0.20413 -2.06631,-0.98103 -2.06631,-2.24753 z m -1.78372,4.28681 c 0.79985,-1.37596 -0.96667,-3.25411 -2.26084,-2.40372 -1.45364,0.95518 -1.21878,3.46308 0.32432,3.46308 0.72639,0 1.59783,-0.47672 1.93652,-1.05936 z m 11.407364,-3.81293 c 0,-1.08273 -0.61103,-1.94892 -1.37481,-1.94892 -0.76378,0 -1.3748,0.86619 -1.3748,1.94892 0,1.08273 0.61102,1.94892 1.3748,1.94892 0.76378,0 1.37481,-0.86619 1.37481,-1.94892 z m -15.673504,25.17005 c -3.40674,-1.2469 -10.24316,-5.73606 -9.66744,-6.34817 0.19765,-0.21013 2.44224,0.99457 4.988,2.6771 2.54575,1.68253 5.69167,3.12452 6.99092,3.20442 1.29926,0.0799 2.36258,0.47415 2.36292,0.87611 9e-4,1.00991 -1.04731,0.91809 -4.6744,-0.40946 z m 21.171444,-3.53948 c 3.98831,-2.88087 8.31686,-8.40463 7.92072,-10.10778 -0.24881,-1.06976 0.0506,-1.45685 0.86873,-1.12308 1.04792,0.42755 1.04079,0.93617 -0.0445,3.16732 -1.55189,3.1907 -8.28576,9.84067 -9.89207,9.76884 -0.62867,-0.0282 -0.11249,-0.79549 1.14704,-1.7053 z m -25.432624,-1.35754 c -1.63831,-1.05451 -2.97874,-2.33584 -2.97874,-2.8474 0,-0.51156 1.53928,0.18196 3.42063,1.54117 1.88136,1.3592 3.91922,2.47127 4.5286,2.47127 0.60937,0 1.39017,0.48548 1.73509,1.07885 0.85612,1.47278 -2.86674,0.22699 -6.70558,-2.24389 z m 25.741164,-2.13983 c 1.42924,-1.24318 3.38561,-3.52957 4.34752,-5.08087 1.09477,-1.76559 1.75116,-2.24345 1.75494,-1.27764 0.006,1.74916 -6.191,8.70743 -7.70815,8.65388 -0.5461,-0.0193 0.17646,-1.05219 1.60569,-2.29537 z m -23.565064,0.0343 -3.55225,-2.28617 5.66821,-3.66085 c 3.11751,-2.01347 5.76757,-3.50386 5.88902,-3.31198 0.12145,0.19189 0.0591,2.8703 -0.13857,5.95202 -0.31902,4.97367 -0.58153,5.60257 -2.33677,5.59814 -1.08756,-0.003 -3.5759,-1.03377 -5.52964,-2.29116 z m 20.074794,-2.81979 c -1.33625,-6.25602 -2.19373,-10.93019 -2.03555,-11.09608 0.0977,-0.10246 2.44603,0.84953 5.21856,2.11552 2.9665,1.35456 4.92033,2.82388 4.74785,3.57046 -0.35519,1.53744 -5.7348,7.60263 -6.74325,7.60263 -0.39561,0 -0.93003,-0.98664 -1.18761,-2.19253 z M 72.524896,147.47526 c 0.42077,-5.37516 2.15598,-11.68652 2.97393,-10.81688 0.21523,0.22884 -0.19064,2.15331 -0.90195,4.27659 -1.62177,4.84106 -1.74093,10.84903 -0.22807,11.49806 0.64537,0.27687 0.39714,0.52509 -0.56843,0.56843 -1.5323,0.0688 -1.66758,-0.51733 -1.27548,-5.5262 z m 5.47188,-0.72971 c 0.22987,-2.94712 0.70203,-5.66043 1.04924,-6.0296 0.61712,-0.6561 8.84171,7.27764 8.84171,8.52905 0,0.59105 -6.23579,2.48039 -9.04973,2.74191 -0.97412,0.0905 -1.16455,-1.09603 -0.84122,-5.24136 z m -2.0425,-5.79622 c 1.34552,-3.76265 2.03382,-2.66345 0.91933,1.46813 -0.49548,1.8368 -0.97292,4.65805 -1.06099,6.26944 -0.12027,2.2005 -0.24532,1.94539 -0.50238,-1.02485 -0.18824,-2.17505 0.10158,-5.19578 0.64404,-6.71272 z m 42.017464,-6.67119 c -1.13489,-1.71878 -2.38765,-3.27122 -2.78394,-3.44986 -0.39628,-0.17866 -0.7205,-0.79475 -0.7205,-1.36911 0,-0.57435 0.86946,-0.20893 1.93214,0.81205 2.3622,2.26953 6.34058,10.40596 6.25211,12.78659 -0.0356,0.95573 -0.63874,0.0745 -1.34049,-1.95847 -0.70175,-2.03288 -2.20444,-5.10242 -3.33932,-6.8212 z m -3.32571,-0.0829 c -1.2524,-1.50363 -1.28705,-1.77568 -0.17873,-1.40345 1.732,0.58171 5.47073,7.46166 5.46401,10.05481 -0.003,1.16276 -0.75668,0.18714 -1.86839,-2.41863 -1.02484,-2.40214 -2.56244,-5.20687 -3.41689,-6.23273 z m -5.9717,8.52424 -4.21572,-0.61435 3.28168,-4.25794 c 1.80492,-2.34185 3.61634,-4.25792 4.02539,-4.25792 0.99207,0 4.13277,4.80672 4.93447,7.55204 0.72346,2.47738 -0.37426,2.69323 -8.02582,1.57819 z M 91.173956,134.9282 c -1.30333,-2.47927 -2.3697,-4.85472 -2.3697,-5.27875 0,-0.42404 2.08251,-1.24582 4.6278,-1.82619 5.61375,-1.28 5.45411,-1.27683 5.45411,-0.10852 0,1.28636 -4.37306,11.72127 -4.91216,11.72127 -0.23669,0 -1.49671,-2.02851 -2.80005,-4.50779 z m 14.728234,-3.81713 c 0.2985,-0.82704 0.7393,-1.29472 0.97954,-1.03928 0.24026,0.25543 0.16496,0.9321 -0.16731,1.50371 -0.90375,1.55471 -1.43198,1.25268 -0.81223,-0.46443 z m -17.361144,-4.45296 c 1.53341,-1.63032 9.60052,-3.02042 10.70621,-1.84486 0.61839,0.65748 -0.27023,1.00289 -2.69826,1.04883 -1.99118,0.0376 -4.4452,0.44535 -5.45339,0.90596 -2.62198,1.1979 -3.73943,1.14981 -2.55456,-0.10993 z m -2.4864,-0.91423 c 0,-1.80971 6.2106,-3.85306 11.19814,-3.6843 4.121474,0.13946 4.296184,0.21336 1.17511,0.49706 -5.05458,0.45945 -11.45671,2.33907 -11.45671,3.36361 0,0.46629 -0.20622,0.84781 -0.45827,0.84781 -0.25205,0 -0.45827,-0.46088 -0.45827,-1.02418 z m 344.074324,34.3024 c 0.26465,-0.45528 6.99117,-1.09576 14.94781,-1.42329 7.95665,-0.32754 15.49774,-0.84443 16.75797,-1.14864 l 2.29135,-0.55311 -2.23155,1.03715 c -4.31287,2.00448 -32.80574,3.87726 -31.76558,2.08789 z M 264.5502,159.25423 c 0.63012,-0.27032 1.66123,-0.27032 2.29135,0 0.63011,0.27033 0.11456,0.49151 -1.14568,0.49151 -1.26023,0 -1.77579,-0.22118 -1.14567,-0.49151 z m -130.45035,-9.83006 c -0.0418,-12.49461 -2.19232,-18.52294 -9.6188,-26.96357 -22.00855,-25.014009 -60.638784,-10.46716 -63.193604,23.79659 -0.35949,4.8212 -0.79516,6.7248 -1.28019,5.5935 -0.40438,-0.94321 -0.29905,-5.6371 0.23406,-10.43088 1.25555,-11.28986 4.29507,-17.98091 11.30067,-24.87674 14.9578,-14.72343 39.340824,-13.27873 54.131144,3.20729 7.8061,8.70106 11.07374,17.14328 12.02817,31.07582 0.45368,6.62258 0.37044,7.02775 -1.52429,7.41933 -1.10229,0.22782 -2.01344,0.47394 -2.02477,0.54693 -0.0114,0.073 -0.0349,-4.14274 -0.0524,-9.36827 z m 8.78009,6.56534 c -2.49422,-0.59592 -1.48664,-0.78821 4.52897,-0.86432 4.25527,-0.0539 12.38264,-0.59865 18.06083,-1.21069 8.06997,-0.86985 26.29119,-0.74174 83.45856,0.58678 40.22402,0.93478 77.46523,2.04556 82.75823,2.46839 5.293,0.42284 -34.30139,0.54773 -87.98754,0.27753 -53.68615,-0.2702 -99.05472,-0.83615 -100.81905,-1.25769 z m 288.54793,-6.74456 c 0.69156,-18.00744 -6.95825,-32.66125 -22.07742,-42.29099 l -5.28264,-3.36464 3.05878,-1.91878 c 3.04668,-1.911181 3.07299,-1.911025 6.64756,0.0387 6.09086,3.32227 14.68212,13.33088 18.26379,21.27686 1.76948,3.92569 3.21725,7.91732 3.21725,8.87036 0,0.95303 0.45715,1.73279 1.01589,1.73279 1.40188,0 0.35986,-4.02494 -2.96334,-11.44621 -3.17716,-7.09515 -11.27668,-16.80785 -16.97919,-20.36094 -2.19273,-1.36623 -3.98679,-2.810508 -3.98679,-3.209509 0,-0.398992 1.04762,-1.232943 2.32805,-1.853214 1.89288,-0.916955 2.76134,-0.825921 4.64599,0.486985 1.27486,0.888111 4.28528,1.945398 6.68982,2.349525 3.11303,0.523203 6.80957,2.465563 12.83787,6.745703 11.21556,7.96314 13.56072,8.88767 24.11238,9.50585 l 8.96079,0.52497 v 2.9327 c 0,2.77943 -0.0876,2.84842 -1.67611,1.31999 -1.15706,-1.1133 -3.33442,-1.61272 -7.03114,-1.61272 -5.12298,0 -5.517,0.18205 -9.09319,4.20142 -3.91598,4.40125 -13.36181,22.18533 -13.36181,25.15684 0,2.35815 5.79117,6.87024 9.91191,7.72269 2.19132,0.45332 -0.64654,0.73894 -8.07884,0.81313 l -11.45671,0.11435 z m -5.5045,1.86921 c 1.37277,-25.14048 -20.84265,-45.58541 -43.96362,-40.45989 -11.6839,2.59012 -20.95052,10.33164 -26.14217,21.83969 -1.9778,4.3841 -2.55206,7.28336 -2.87085,14.49407 -0.30116,6.81192 -0.70763,9.01373 -1.66399,9.01373 -1.73358,0 -1.66844,-10.24139 0.11633,-18.28975 5.49501,-24.77944 27.65037,-38.876261 49.63346,-31.58032 17.5199,5.81466 27.8069,21.43839 27.8069,42.23268 0,7.81408 -0.17234,8.71926 -1.60394,8.42438 -1.33928,-0.27587 -1.55579,-1.21223 -1.31212,-5.67459 z m -99.2778,3.92538 c -24.4926,-1.73902 -149.29567,-4.08 -159.47741,-2.99137 -5.04095,0.53896 -13.18667,0.99125 -18.1016,1.00508 l -8.93623,0.0251 v -3.2776 c 0,-20.8466 -15.05415,-40.42042 -34.65251,-45.05619 -10.508364,-2.48564 -22.899594,-0.23698 -30.531074,5.54052 -2.80177,2.12112 -2.93889,2.13376 -4.14371,0.38195 -1.91394,-2.78289 -1.53482,-3.90405 2.19096,-6.47947 6.76057,-4.6732 13.18064,-6.90122 21.30949,-7.39525 9.692634,-0.58907 16.459804,0.85227 24.780444,5.27797 5.77541,3.07191 6.90332,4.17555 11.13056,10.89102 2.58714,4.10999 7.15905,11.11548 10.15978,15.56776 3.00073,4.45228 5.29253,8.26872 5.09288,8.48099 -0.19965,0.21228 -1.37901,0.81714 -2.62078,1.34416 -2.20496,0.93579 -2.18811,0.96249 0.72097,1.14177 4.25201,0.26205 4.03011,0.17078 7.73641,3.18188 1.86057,1.51158 5.4907,3.59985 8.06695,4.64061 4.35349,1.75873 9.45127,1.99229 72.23142,3.30928 111.47965,2.33858 115.66553,2.48416 115.66553,4.02275 0,1.65112 -2.24867,1.69354 -20.62208,0.389 z m 118.92692,-3.24902 c -1.71021,-1.22131 -2.97514,-2.96119 -2.97875,-4.0972 -0.009,-2.78744 11.12358,-22.89164 13.8934,-25.09029 1.26414,-1.00346 4.11871,-2.00082 6.3435,-2.21635 l 4.04507,-0.39188 -3.92573,1.01423 c -3.28617,0.84898 -4.44836,1.8511 -7.13374,6.15115 -1.76441,2.82533 -4.62081,8.59227 -6.34757,12.81543 -3.54624,8.6731 -3.37689,9.37411 3.19976,13.24478 l 3.20883,1.88856 -3.66614,-0.59784 c -2.01638,-0.32882 -5.00377,-1.55308 -6.63863,-2.72059 z m -404.823404,0.44344 c -2.24882,-1.05762 -5.41734,-3.91018 -7.8243,-7.04408 -2.22476,-2.89666 -4.56416,-5.93444 -5.19866,-6.75061 -0.63906,-0.82202 -0.8327,-2.03604 -0.43413,-2.7217 0.51015,-0.87761 3.00938,1.02332 8.58935,6.5331 8.13414,8.03181 11.49308,9.83703 18.32365,9.84783 2.57549,0.004 3.43701,0.4069 3.43701,1.60705 0,1.39697 -0.83778,1.51884 -6.55682,0.95371 -3.60625,-0.35634 -8.25749,-1.44773 -10.3361,-2.4253 z m 409.802754,-2.10769 c -2.25705,-1.88759 -2.30938,-2.14452 -1.14897,-5.6413 1.48816,-4.48443 7.28584,-16.53248 9.20456,-19.12781 0.95451,-1.2911 3.01383,-2.08656 6.4397,-2.48748 2.77005,-0.32418 5.03646,-0.23742 5.03646,0.19279 0,0.43021 -1.25702,0.78219 -2.79338,0.78219 -4.00509,0 -6.60903,3.49626 -10.61149,14.24785 l -3.42997,9.21375 1.96345,2.08753 c 1.8652,1.98307 2.26898,2.02767 8.06893,0.89145 3.35801,-0.65783 6.30444,-0.98453 6.54762,-0.72598 0.24318,0.25855 -1.14665,0.75352 -3.08852,1.09995 -1.94187,0.34643 -3.94311,0.77859 -4.44721,0.96037 -3.13591,1.13078 -9.58411,0.31067 -11.74118,-1.49331 z m -114.28263,0.59568 c 0,-2.62925 1.4939,-3.49031 6.05555,-3.49031 4.33187,0 4.94289,0.24092 4.94289,1.94892 0,1.73237 -0.61102,1.94892 -5.49922,1.94892 -3.02457,0 -5.49922,-0.1834 -5.49922,-0.40753 z m -86.15446,-1.40931 -31.62052,-0.61931 0.29867,-2.9161 c 0.16427,-1.60385 0.37049,-2.98928 0.45827,-3.07872 0.0878,-0.0895 26.24652,0.77152 58.13055,1.91328 51.90808,1.85879 57.97095,2.24023 57.97095,3.64716 0,0.86419 -0.29428,1.88412 -0.65395,2.26653 -0.35967,0.38239 -12.42359,0.40529 -26.8087,0.0509 -14.38512,-0.35442 -40.38399,-0.92309 -57.77527,-1.26371 z M 45.268756,148.29275 c -2.01638,-1.00071 -6.4699,-4.8602 -9.89672,-8.57666 l -6.23058,-6.75718 6.68884,1.17168 c 3.67887,0.64443 10.0915,1.43028 14.25028,1.74634 6.99218,0.53141 7.56143,0.43615 7.56143,-1.26543 0,-2.03824 -3.95862,-3.70516 -15.12286,-6.36801 -3.52866,-0.84164 -7.13753,-1.76673 -8.01969,-2.05576 -0.88217,-0.28901 -1.60394,-0.14374 -1.60394,0.32284 0,0.46657 4.0213,1.87588 8.93623,3.13179 4.91493,1.25591 10.37978,2.84609 12.14411,3.53374 l 3.20788,1.25027 -3.01486,0.0687 c -4.61238,0.10505 -20.46312,-1.85068 -23.62246,-2.91463 -2.79355,-0.94076 -2.80268,-0.96689 -1.85477,-5.31071 0.76913,-3.52453 1.26569,-4.25963 2.57823,-3.81672 2.2495,0.75908 2.18885,-2.94862 -0.076,-4.64342 -0.93587,-0.70032 -1.94989,-2.15034 -2.25338,-3.22224 -0.45292,-1.59974 0.44972,-2.55998 5.038,-5.35952 7.13622,-4.35415 8.58326,-6.70147 8.38825,-13.606983 l -0.15236,-5.394939 8.56006,0.308728 8.56005,0.308728 3.79201,7.749355 3.79203,7.749351 -4.10188,4.9854 c -4.57575,5.56132 -9.16977,13.90423 -8.62071,15.65552 0.19708,0.62859 1.25214,-0.807 2.34456,-3.19022 2.1539,-4.69891 9.84151,-15.53943 11.01986,-15.53943 0.39942,0 1.13991,1.20589 1.64556,2.67976 0.82502,2.40475 0.51903,3.15959 -2.98168,7.35556 -5.14889,6.1715 -7.80841,13.74525 -8.36684,23.82708 l -0.44529,8.03928 -4.23861,-0.0214 c -2.33124,-0.0118 -5.88838,-0.84017 -7.90477,-1.84087 z M 458.74598,146.8025 c 1.5778,-0.73002 3.14879,-1.80913 3.49111,-2.398 0.88176,-1.51689 5.3453,-1.38195 4.87529,0.14739 -0.44382,1.44411 -5.70072,3.53721 -8.94377,3.56107 -2.15496,0.0159 -2.12059,-0.0622 0.57737,-1.31046 z m -299.59919,-1.27803 c -2.39538,-1.14546 -5.28247,-2.80979 -6.41576,-3.69851 -1.93383,-1.5165 -0.8488,-1.57895 17.64501,-1.01558 10.83805,0.33015 25.78906,0.87877 33.22446,1.21914 13.1119,0.60023 13.51892,0.68297 13.51892,2.74809 0,1.17106 -0.30933,2.46758 -0.6874,2.88113 -0.37807,0.41356 -12.44199,0.57112 -26.8087,0.35014 -24.25282,-0.37303 -26.43283,-0.55074 -30.47653,-2.48441 z m 300.3572,-4.87041 c 1.14754,-2.54578 2.35983,-5.5631 2.69399,-6.70517 0.54873,-1.87543 5.63209,-4.05486 6.73145,-2.88602 1.04715,1.11332 -8.9105,14.21986 -10.80349,14.21986 -0.38961,0 0.23052,-2.0829 1.37805,-4.62867 z m -118.89367,3.4106 c -1.12737,-0.66994 -2.13534,-1.23598 -2.23993,-1.25785 -0.1046,-0.0218 0.44664,-4.40694 1.22496,-9.74458 1.45725,-9.99365 1.99782,-33.45856 0.85872,-37.274371 -0.63303,-2.120546 -0.51142,-2.151388 8.48336,-2.151388 7.53898,0 9.49251,-0.31589 11.23601,-1.816915 l 2.11042,-1.816906 -6.8207,-0.61955 c -3.75139,-0.340749 -8.95435,-0.696231 -11.56216,-0.789964 l -4.74145,-0.170423 -1.78538,-5.152932 -1.78538,-5.152942 3.77722,0.462926 c 2.07747,0.254616 10.99495,1.138293 19.81662,1.963727 26.18422,2.45005 48.44402,5.256965 57.99244,7.312749 8.54236,1.839182 24.10138,6.597089 23.43598,7.166669 -0.1732,0.148264 -5.51432,-0.177712 -11.86913,-0.724402 -11.14307,-0.958594 -11.67022,-0.917744 -14.81381,1.147882 l -3.25958,2.141838 -6.7064,-1.975878 c -12.31558,-3.628501 -26.54843,-2.224249 -36.92032,3.642659 -7.06802,3.998061 -17.37238,15.340861 -20.67096,22.754121 -1.52234,3.42132 -2.74921,6.87835 -2.72637,7.68228 0.0228,0.80392 1.52989,-1.82711 3.349,-5.84675 4.10284,-9.06595 13.81045,-19.80875 21.47172,-23.76139 8.2027,-4.231983 18.79569,-6.063009 27.38019,-4.732738 3.89855,0.604135 8.42044,1.67635 10.04863,2.382705 l 2.96036,1.284287 -3.55851,2.126386 c -2.97622,1.77844 -4.15315,1.97979 -7.19254,1.23055 -13.20642,-3.255544 -27.52658,1.37421 -37.55875,12.14287 -6.13876,6.58943 -9.76668,13.71916 -11.44009,22.48251 -1.59955,8.37661 -1.55302,8.28289 -4.11185,8.28289 -1.2829,0 -3.25494,-0.54813 -4.38232,-1.21807 z m -56.58371,-0.72638 c -27.47319,-1.05669 -53.40073,-1.92847 -57.61675,-1.93731 l -7.6655,-0.0161 0.64807,-4.62868 c 0.35644,-2.54577 0.80242,-4.79725 0.99107,-5.00329 0.42727,-0.46667 37.49435,1.59022 51.72813,2.87045 25.59336,2.30193 59.60558,7.55322 63.24104,9.76404 1.78336,1.0845 6.82909,1.18764 -51.32606,-1.04914 z m 182.21261,-4.14591 c 1.68936,-1.79611 2.01129,-1.87752 2.01129,-0.50858 0,0.89639 -0.71833,2.05722 -1.5963,2.5796 -2.43848,1.45088 -2.66487,0.32105 -0.41499,-2.07102 z m -140.51543,1.21692 c -18.38899,-4.02278 -53.94301,-7.96553 -83.39961,-9.24854 -7.05733,-0.30739 -14.934,-0.78695 -17.5037,-1.06568 l -4.6722,-0.50681 -0.56124,-15.29613 c -0.30868,-8.41288 -1.05499,-18.917996 -1.65844,-23.344704 -0.60347,-4.426718 -0.83196,-8.330581 -0.50777,-8.675276 0.3242,-0.344685 1.40614,0.477153 2.4043,1.82631 2.84635,3.847227 6.41238,4.907797 15.21016,4.523656 7.01701,-0.306389 8.1086,-0.607077 9.67634,-2.665502 l 1.76708,-2.320164 45.43988,2.980505 c 24.99193,1.639272 45.57896,3.12838 45.74896,3.309122 1.14955,1.222194 2.41116,19.248763 1.89645,27.097383 -0.58893,8.98031 -2.08965,21.63979 -2.85906,24.11782 -0.48637,1.56647 -0.4692,1.56761 -10.98115,-0.73199 z m -165.88792,-1.63893 c -11.19666,-0.60011 -11.73211,-0.71839 -8.88165,-1.96189 9.02576,-3.93743 44.2123,-7.28842 59.97858,-5.71206 7.03106,0.70298 7.10316,0.73821 7.10316,3.47072 0,6.46997 1.14985,6.20424 -23.75174,5.48903 -12.39336,-0.35596 -27.89511,-0.93457 -34.44835,-1.2858 z m -16.70421,-8.83534 c -9.03454,-13.19254 -11.58115,-17.26114 -9.75891,-15.59132 4.02324,3.68671 3.23222,1.42675 -1.19376,-3.4106 -4.57372,-4.99884 -10.16653,-13.891221 -17.25826,-27.440012 l -3.52407,-6.732782 3.24987,0.560703 c 1.78743,0.308396 4.28163,1.657669 5.54268,2.998396 5.4038,5.745306 21.21835,6.066448 24.88202,0.505276 l 1.3288,-2.01701 32.38095,1.575864 c 17.80952,0.866721 33.25881,1.57217 34.33175,1.567658 1.72762,-0.0068 2.0782,0.85573 3.0645,7.543833 0.61254,4.153626 1.33837,14.897024 1.61296,23.874214 l 0.49925,16.32217 -19.14487,0.003 c -21.20282,0.003 -31.6301,1.04671 -43.37097,4.34102 -4.31899,1.21185 -7.91678,2.26502 -7.99508,2.3404 -0.0783,0.0753 -2.1694,-2.82288 -4.64686,-6.44055 z m 319.61963,-1.18379 c 0,-1.50972 3.54928,-3.10385 6.17646,-2.77412 2.30843,0.28973 2.34547,0.38208 0.80574,2.009 -1.69886,1.79505 -6.9822,2.37402 -6.9822,0.76512 z m -433.063654,-8.8044 c -0.31155,-0.53595 -0.12967,-0.97446 0.40417,-0.97446 0.53385,0 0.97063,0.43851 0.97063,0.97446 0,0.53595 -0.18187,0.97446 -0.40417,0.97446 -0.2223,0 -0.65908,-0.43851 -0.97063,-0.97446 z m 426.671724,-7.84877 c 1.24713,-1.01885 2.91046,-1.86222 3.69628,-1.87414 0.78582,-0.0119 2.22936,-0.65076 3.20788,-1.41964 1.61153,-1.26629 2.05969,-1.1106 4.75786,1.65284 1.63831,1.67795 2.97969,3.29368 2.98085,3.59051 0.001,0.29683 -3.80321,0.39641 -8.45414,0.2213 l -8.45624,-0.3184 z m -9.45484,-2.99183 c -2.12233,-1.13876 -6.42275,-3.96411 -9.55649,-6.27857 -3.96013,-2.924783 -7.28986,-4.521003 -10.91853,-5.234189 -7.28443,-1.431703 -7.48306,-2.374607 -0.33968,-1.612416 9.30771,0.993109 28.50663,2.481155 32.32757,2.505594 2.69668,0.01725 3.66585,0.510236 4.4081,2.242261 1.38447,3.23059 -0.33403,7.51533 -3.03026,7.55541 -1.14669,0.0171 -2.88549,0.67482 -3.86401,1.46169 -2.42036,1.94636 -4.4788,1.80047 -9.0267,-0.63978 z M 32.684546,107.66956 c 4.0666,-3.40737 5.71019,-7.15215 5.71019,-13.01024 0,-4.803686 1.07909,-6.466306 2.19328,-3.379292 0.72773,2.016279 0.71439,8.580295 -0.0215,10.619402 -0.31784,0.88063 -2.68388,3.10903 -5.25786,4.95198 -5.51795,3.95085 -6.86355,4.37039 -2.62404,0.81815 z m 30.75782,-11.868838 c -2.6069,-5.224623 -5.59108,-11.795469 -6.63151,-14.601898 l -1.89171,-5.102592 15.33862,0.115113 c 8.43624,0.06334 20.79643,0.3922 27.46709,0.730843 l 12.128484,0.615731 7.19192,12.841862 7.19191,12.841859 -5.34318,-2.86769 c -14.65336,-7.864439 -31.563904,-7.32955 -44.754324,1.4156 -2.77252,1.83816 -5.24717,3.38 -5.49922,3.42629 -0.25204,0.0463 -2.59118,-4.1905 -5.19808,-9.415118 z M 443.88516,93.35459 C 431.81028,86.8491 406.81934,81.248327 377.51337,78.479844 373.73265,78.122685 369.218,77.207436 367.4808,76.445965 c -3.32448,-1.457223 -9.57166,-6.141782 -9.00042,-6.749123 0.50803,-0.540142 30.80819,3.249456 43.72759,5.468939 28.89161,4.96342 49.39875,12.180556 55.56316,19.554482 l 1.77228,2.12002 -5.55657,-0.518479 c -3.27196,-0.305308 -7.42531,-1.52529 -10.10168,-2.967214 z M 339.47709,90.461269 c -0.61213,-0.652146 0.30109,-0.776039 2.74961,-0.373032 2.01638,0.331871 6.47447,0.608237 9.90687,0.614132 3.86367,0.0068 6.02807,0.376521 5.68245,0.971096 -0.71054,1.22234 -17.06869,0.141072 -18.33893,-1.212196 z M 41.731336,87.058882 c -0.2492,-0.937916 -0.73433,-3.678578 -1.07809,-6.090361 -0.34375,-2.411783 -1.27895,-5.171554 -2.07823,-6.132828 -1.3858,-1.666683 -1.09993,-1.734505 6.16171,-1.461686 l 7.61494,0.286081 2.05765,5.846746 c 1.13171,3.215711 2.36617,6.614132 2.74323,7.552048 0.62229,1.547867 -0.037,1.705301 -7.14128,1.705301 -6.67052,0 -7.8938,-0.251937 -8.27993,-1.705301 z m 247.403294,-2.21849 c -24.09788,-1.622131 -44.53183,-3.357601 -45.40878,-3.856582 -0.87695,-0.49899 -4.30273,-1.367252 -7.61286,-1.929465 -4.76839,-0.809891 -7.22311,-0.720251 -11.81859,0.431587 -3.1901,0.799582 -6.26107,1.460264 -6.82439,1.468186 -0.56333,0.0078 -1.43197,-2.178127 -1.93033,-4.857886 l -0.90612,-4.872288 4.22168,6.72e-4 c 4.99258,7.9e-4 43.45889,2.328496 72.32389,4.376514 19.36118,1.373712 20.60179,1.579762 23.4582,3.896135 3.90416,3.166033 10.63738,3.415981 13.38305,0.496798 3.0139,-3.204367 5.84847,-2.540167 7.2777,1.705301 0.6766,2.009819 1.42225,4.202349 1.65698,4.872289 0.5597,1.59735 2.87178,1.681056 -47.82043,-1.731261 z m -61.01677,1.974875 c -1.70791,-0.581537 -0.84655,-0.804921 3.38292,-0.877324 3.12085,-0.0534 5.92917,0.341372 6.24072,0.877324 0.67355,1.158689 -6.22067,1.158689 -9.62364,0 z M 37.411396,85.166787 c -0.51588,-1.442626 -0.80235,-4.402542 -0.6366,-6.57759 0.287,-3.766094 0.34832,-3.838496 1.28592,-1.518507 1.53645,3.80172 2.33582,10.719035 1.2387,10.719035 -0.52253,0 -1.37213,-1.180322 -1.88802,-2.622938 z M 231.32574,84.407499 c -2.52047,0.01559 -5.21318,0.354167 -5.98378,0.75235 -0.81048,0.418783 -2.16275,0.106537 -3.20788,-0.740705 -2.78204,-2.255275 -0.13577,-3.699256 5.06725,-2.765024 2.26843,0.407304 6.18662,0.641417 8.7071,0.520234 2.52047,-0.121174 5.54707,0.01452 6.72577,0.301526 1.77193,0.431471 1.94837,0.771323 1.01874,1.962227 -0.83726,1.072605 -1.96952,1.248962 -4.43443,0.690695 -1.82055,-0.412322 -5.37229,-0.736914 -7.89277,-0.721303 z M 400.19765,83.24653 c 0.63012,-0.270324 1.66122,-0.270324 2.29134,0 0.63012,0.270325 0.11457,0.491497 -1.14567,0.491497 -1.26024,0 -1.77579,-0.221172 -1.14567,-0.491497 z m -6.87402,-1.000817 c 0.88217,-0.245095 2.32571,-0.245095 3.20788,0 0.88216,0.245106 0.16039,0.445649 -1.60394,0.445649 -1.76433,0 -2.48611,-0.200543 -1.60394,-0.445649 z M 127.06679,81.79988 c 0.76721,-0.81569 2.61156,-0.852339 6.8282,-0.135655 l 5.77707,0.981893 -6.8282,0.135654 c -5.13501,0.102026 -6.56756,-0.141452 -5.77707,-0.981892 z m 257.54974,-0.544605 c 1.13421,-0.232272 2.9902,-0.232272 4.12441,0 1.13422,0.232262 0.20622,0.4223 -2.0622,0.4223 -2.26843,0 -3.19643,-0.190038 -2.06221,-0.4223 z m -255.4677,-1.100689 c -6.68843,0.281101 -7.81547,0.09905 -8.0734,-1.304039 -0.26947,-1.465877 0.79445,-1.596016 10.52323,-1.287268 5.95265,0.188908 11.13234,0.37461 11.51041,0.412673 1.14609,0.115375 0.76857,2.799802 -0.45827,3.258684 -0.63012,0.235682 -2.17677,0.01559 -3.43701,-0.48912 -1.26024,-0.504701 -5.78947,-0.77062 -10.06496,-0.59093 z m 246.30233,0.126231 c 1.13421,-0.232272 2.9902,-0.232272 4.12442,0 1.13421,0.232262 0.20622,0.422301 -2.06221,0.422301 -2.26843,0 -3.19642,-0.190039 -2.06221,-0.422301 z m -143.89628,0.04229 c 0.63012,-0.270324 1.66122,-0.270324 2.29134,0 0.63012,0.270325 0.11457,0.491497 -1.14567,0.491497 -1.26024,0 -1.77579,-0.221172 -1.14567,-0.491497 z m -57.97096,-1.813144 c -20.21577,-1.008252 -29.73472,-1.862559 -32.99532,-2.96126 -4.56038,-1.536681 -6.39729,-1.521011 -23.89682,0.203905 l -5.56608,0.54864 -1.9197,-4.911238 -1.91971,-4.911238 11.15194,0.443203 c 6.13355,0.243771 22.49407,0.868106 36.35669,1.387423 49.6156,1.858691 57.81802,2.257273 58.14665,2.825528 0.18326,0.316913 0.61179,2.549474 0.95227,4.961257 l 0.61903,4.385059 -6.25815,-0.277116 c -3.44199,-0.152405 -19.04385,-0.914782 -34.6708,-1.694163 z m 241.50746,-2.3909 c -11.70962,-2.532976 -30.00021,-5.321426 -48.57645,-7.405615 -5.12877,-0.575427 -5.63875,-0.798861 -3.66615,-1.606228 6.07093,-2.48476 46.79725,4.359441 64.61584,10.858928 3.02457,1.103242 4.46812,1.785791 3.20788,1.516792 -1.26024,-0.268999 -8.27174,-1.782751 -15.58112,-3.363877 z m -58.9904,2.454318 c -7.492,-0.768204 -13.85048,-1.639847 -14.12994,-1.936969 -0.27947,-0.297073 0.15494,-0.540181 0.96535,-0.540181 2.88247,0 2.55487,-1.99373 -0.88585,-5.391255 -1.96269,-1.93806 -2.72227,-3.145764 -1.7357,-2.759693 1.22413,0.479014 1.55281,0.339861 1.08758,-0.460451 -1.29404,-2.226129 2.33612,-2.333018 8.53953,-0.251459 3.44076,1.154537 7.0306,3.010568 7.97744,4.124499 2.57853,3.033594 6.60927,5.880697 10.32327,7.291809 4.19689,1.594583 4.15031,1.594291 -12.14168,-0.0762 z m -39.29961,0.320674 c -1.79189,-1.019604 -1.61044,-1.230194 2.48368,-2.882504 3.18584,-1.285748 4.89088,-1.512797 6.1178,-0.814666 1.70992,0.972947 2.22661,2.939023 1.08996,4.147487 -0.9884,1.050875 -7.59246,0.744008 -9.69144,-0.450317 z M 55.121536,74.64275 c -0.67686,-0.256594 -1.14568,-2.158073 -1.14568,-4.646741 0,-4.058626 0.4974,-4.798015 13.62267,-20.250585 7.49248,-8.820986 15.45258,-17.631039 17.68911,-19.577908 3.94,-3.429701 4.50668,-3.603077 18.226984,-5.576539 33.64537,-4.839391 57.20665,-6.450496 93.89926,-6.420785 32.70565,0.02649 45.80166,1.100587 63.50473,5.208511 12.66132,2.938 42.50884,16.806852 62.97735,29.262838 5.54505,3.374411 11.8953,7.238048 14.11166,8.585859 3.31768,2.017527 3.76618,2.607396 2.53813,3.338073 -1.10802,0.65927 -3.84027,-0.612271 -10.62413,-4.944281 -34.3777,-21.952729 -58.97925,-33.055379 -81.18168,-36.637183 -33.87507,-5.464897 -101.3622,-3.513427 -148.779144,4.302133 -6.21424,1.024272 -11.57598,2.180992 -11.91498,2.570493 -0.339,0.3895 1.23963,0.431529 3.50805,0.09335 29.619564,-4.415093 58.429334,-7.573368 66.727984,-7.315079 2.39952,0.07464 0.24849,0.505052 -4.86174,0.972704 -26.28628,2.405556 -34.22631,4.561446 -39.54652,10.737725 -5.08881,5.90765 -12.23781,17.762551 -12.23781,20.293481 0,1.484616 1.38451,5.93322 3.07669,9.885786 5.35574,12.509795 8.18692,11.124194 -22.104994,10.818361 -14.48715,-0.146266 -26.85583,-0.461386 -27.48594,-0.700265 z M 341.15941,74.46996 c 0.33716,-0.358474 -0.10965,-1.534245 -0.99292,-2.612843 -1.60388,-1.958552 -1.60274,-1.95866 0.88574,-0.07913 2.85906,2.159496 3.22091,3.343686 1.02171,3.343686 -0.84015,0 -1.2517,-0.293292 -0.91453,-0.651766 z m -38.95463,-0.911742 c -1.34415,-0.277476 -2.69459,-1.199041 -3.00097,-2.04793 -0.48538,-1.34481 0.17077,-1.462544 5.09883,-0.914908 3.11075,0.345679 8.48249,0.628515 11.93721,0.628515 6.49314,0 7.78459,0.844212 4.2191,2.757979 -1.95204,1.047746 -12.28852,0.807854 -18.25417,-0.423656 z m 21.88209,-2.022779 c -0.45862,-0.301351 -0.60118,-1.784778 -0.3168,-3.296503 0.41611,-2.212067 -0.006,-3.216977 -2.16515,-5.148128 -1.4752,-1.319747 -3.17173,-2.573026 -3.77006,-2.785078 -0.59833,-0.212052 -0.92291,-0.867423 -0.72127,-1.456395 0.32047,-0.936064 14.01754,7.644133 20.20811,12.658878 2.11362,1.712171 2.01435,1.734661 -5.12279,1.160579 -4.003,-0.32199 -7.65342,-0.831992 -8.11204,-1.133353 z m -59.30753,-2.745252 c -28.14392,-1.757512 -41.2416,-2.648985 -41.25158,-2.807724 -0.004,-0.065 -2.23393,-9.217084 -4.95521,-20.338082 l -4.94779,-20.219949 h 2.15567 c 5.77851,0 26.7401,2.30011 35.70912,3.918353 13.97763,2.521916 25.00714,6.583085 42.41879,15.618978 10.83501,5.622884 15.13337,8.345256 15.69177,9.938387 0.73257,2.090036 0.50568,2.222592 -4.78154,2.793283 -6.81742,0.735872 -9.79352,3.65143 -9.79352,9.594296 v 3.750766 l -3.43701,-0.394383 c -1.89036,-0.216904 -13.95427,-1.051147 -26.8087,-1.853876 z M 42.060886,67.813293 c 2.62795,-2.882709 3.73492,-3.410602 7.15188,-3.410602 3.30984,0 3.94183,0.279416 3.48635,1.541388 -0.30599,0.847758 -0.55633,2.382529 -0.55633,3.410602 0,1.66948 -0.70476,1.869214 -6.59555,1.869214 h -6.59555 z M 336.1523,68.544137 c -1.14006,-1.545549 -1.10764,-1.580015 0.34604,-0.367917 1.52673,1.273003 2.01224,2.073218 1.2579,2.073218 -0.19032,0 -0.91209,-0.767386 -1.60394,-1.705301 z m -16.38075,-0.243566 c 0,-0.535952 0.41244,-0.974458 0.91653,-0.974458 0.5041,0 0.91654,0.438506 0.91654,0.974458 0,0.535952 -0.41244,0.974458 -0.91654,0.974458 -0.50409,0 -0.91653,-0.438506 -0.91653,-0.974458 z m -15.38272,0.259527 c 2.37755,-0.200007 6.50197,-0.202083 9.16537,-0.0049 2.6634,0.197464 0.71813,0.361105 -4.32283,0.363638 -5.04095,0.0029 -7.22009,-0.159022 -4.84254,-0.359029 z m -73.29222,0.01696 c 1.38626,-0.223278 3.65469,-0.223278 5.04095,0 1.38626,0.223267 0.25205,0.405949 -2.52048,0.405949 -2.77252,0 -3.90673,-0.182682 -2.52047,-0.405949 z m -13.74805,-0.948216 c 0.88216,-0.245105 2.32571,-0.245105 3.20787,0 0.88217,0.245106 0.1604,0.445639 -1.60393,0.445639 -1.76434,0 -2.48611,-0.200533 -1.60394,-0.445639 z m -21.53862,-0.990448 c 1.13421,-0.232262 2.9902,-0.232262 4.12442,0 1.13421,0.232262 0.20622,0.4223 -2.06221,0.4223 -2.26843,0 -3.19642,-0.190038 -2.06221,-0.4223 z m -5.02186,0.09897 c 0.30455,-0.323802 1.09508,-0.358425 1.7567,-0.07688 0.73115,0.311066 0.51397,0.541973 -0.55375,0.588728 -0.96617,0.04229 -1.50751,-0.187992 -1.20295,-0.511805 z m 164.49927,-1.073413 c 1.13421,-0.232271 2.9902,-0.232271 4.12442,0 1.13421,0.232262 0.20622,0.422301 -2.06221,0.422301 -2.26843,0 -3.19642,-0.190039 -2.06221,-0.422301 z M 333.5196,63.846939 c 0,-0.267976 0.82488,-0.01783 1.83307,0.555801 1.00819,0.573663 1.83308,1.262283 1.83308,1.530259 0,0.267976 -0.82489,0.01783 -1.83308,-0.555801 -1.00819,-0.573664 -1.83307,-1.262284 -1.83307,-1.530259 z m -119.76128,1.204936 c -0.22677,-0.2411 -6.7208,-37.959084 -6.7208,-39.03508 0,-0.3258 1.13421,-0.590843 2.52047,-0.588982 2.50586,0.0039 2.54661,0.112141 7.02589,18.758311 2.47799,10.31521 4.70789,19.589338 4.95536,20.609176 0.40864,1.684117 0.0825,1.791784 -3.55448,1.173452 -2.20242,-0.374435 -4.10432,-0.78703 -4.22644,-0.916877 z m -40.41995,0.603501 c 1.37724,-0.222342 3.85189,-0.226815 5.49922,-0.0099 1.64734,0.216875 0.52051,0.398797 -2.50406,0.404273 -3.02457,0.0058 -4.37239,-0.171982 -2.99516,-0.394324 z m 126.64451,-1.503422 c -0.36818,-0.39145 0.0794,-1.591426 0.99458,-2.666614 3.02284,-3.551294 13.05657,-2.256883 18.33582,2.365428 1.72189,1.507623 1.21152,1.587022 -8.41396,1.308941 -5.63585,-0.162813 -10.54826,-0.616306 -10.91644,-1.007755 z M 203.90432,62.21021 c -0.46789,-3.175329 -1.75562,-16.501515 -2.87199,-29.72096 l -0.59661,-7.064818 h 2.3669 c 1.71371,0 2.48781,0.60506 2.80504,2.19253 0.24099,1.205891 1.81957,10.195263 3.50797,19.976383 l 3.0698,17.783853 h -3.90723 c -3.70141,0 -3.93181,-0.166827 -4.37388,-3.166988 z m -39.90095,1.172175 c -13.83892,-0.549643 -25.34758,-1.196994 -25.57479,-1.438562 -0.35862,-0.381296 -2.77167,-31.819426 -2.48102,-32.323756 0.73653,-1.278011 61.27381,-5.212355 62.36419,-4.053072 0.25933,0.275713 1.08817,7.262906 1.84187,15.527077 0.75369,8.264181 1.62139,17.130976 1.9282,19.703993 l 0.55784,4.678206 -6.73731,-0.547265 c -3.70552,-0.300991 -18.06006,-0.996978 -31.89898,-1.546621 z m -14.49496,1.298533 c 1.37724,-0.222342 3.85189,-0.226814 5.49923,-0.0099 1.64733,0.216875 0.52051,0.398797 -2.50407,0.404273 -3.02457,0.0058 -4.37239,-0.171982 -2.99516,-0.394324 z m 182.3156,-9.428404 C 314.43706,44.827142 300.56289,37.378221 287.05165,31.214601 c -10.24784,-4.674902 -11.9209,-6.384764 -2.81786,-2.879834 12.48643,4.807623 43.53031,21.80773 58.74406,32.169139 9.73556,6.630463 4.73833,4.277684 -11.15384,-5.251392 z m -209.33702,8.462522 c 1.13422,-0.232272 2.9902,-0.232272 4.12442,0 1.13421,0.232262 0.20622,0.422301 -2.06221,0.422301 -2.26843,0 -3.19642,-0.190039 -2.06221,-0.422301 z m 202.78378,-2.791471 c 0,-0.267975 0.82488,-0.01783 1.83307,0.555802 1.00819,0.573663 1.83308,1.262283 1.83308,1.530259 0,0.267976 -0.82489,0.01783 -1.83308,-0.555801 -1.00819,-0.573664 -1.83307,-1.262284 -1.83307,-1.53026 z M 134.18418,46.319076 c -0.36818,-8.874114 -0.47225,-16.344365 -0.23127,-16.60057 0.24096,-0.256204 0.71478,4.483032 1.05292,10.531618 0.33814,6.048585 0.85787,13.518846 1.15496,16.600569 0.33689,3.494581 0.19256,5.603132 -0.38352,5.603132 -0.55641,0 -1.18986,-6.415469 -1.59309,-16.134749 z m -25.45334,13.842317 c -2.01894,-3.24587 -1.78814,-5.975676 0.94947,-11.229943 5.96226,-11.443358 11.7798,-17.380953 17.90391,-18.273401 l 4.10255,-0.597859 0.57461,11.568148 c 0.31603,6.362478 0.79368,13.708574 1.06142,16.324661 l 0.4868,4.756523 -12.19162,-0.714979 c -7.4452,-0.436625 -12.46241,-1.150298 -12.88714,-1.83315 z M 56.264996,52.711606 c 8.17848,-8.728081 9.20219,-9.531152 9.8342,-7.714694 0.80966,2.327024 0.41664,3.007985 -6.59887,11.433283 -4.57412,5.493291 -5.3392,6.02363 -8.68991,6.02363 h -3.67419 z m 47.712624,5.64288 c -1.45091,-3.668775 -0.89417,-5.711044 3.35214,-12.296555 3.48279,-5.401371 10.52227,-13.5836 12.80298,-14.881334 0.88979,-0.506299 -0.34291,1.171513 -2.73935,3.728461 -2.39645,2.556957 -6.1222,7.91246 -8.27946,11.90112 -3.81331,7.05062 -4.05186,8.386456 -2.34305,13.120975 1.08768,3.013569 -1.57164,1.516305 -2.79326,-1.572667 z m 216.71046,-0.354294 c 0,-0.267976 0.82489,-0.01783 1.83308,0.555802 1.00819,0.573663 1.83307,1.262283 1.83307,1.530259 0,0.267976 -0.82488,0.01783 -1.83307,-0.555801 -1.00819,-0.573664 -1.83308,-1.262284 -1.83308,-1.53026 z m -9.15133,-2.181469 c 0.0121,-1.420048 0.13683,-1.445774 0.9025,-0.186102 1.15997,1.908348 1.15997,3.198345 0,2.436144 -0.50409,-0.331238 -0.91022,-1.343758 -0.9025,-2.250042 z m 2.73558,-1.697837 c 0,-0.267976 1.23732,0.19305 2.74961,1.024506 1.51228,0.831456 2.74961,1.730988 2.74961,1.998963 0,0.267976 -1.23733,-0.193049 -2.74961,-1.024505 -1.51229,-0.831456 -2.74961,-1.730988 -2.74961,-1.998964 z M 283.5122,37.340032 c 0.40373,-0.429248 28.01052,14.240287 28.01052,14.884062 0,0.262412 -6.37403,-2.902968 -14.16451,-7.034162 -7.79048,-4.131203 -14.02119,-7.663661 -13.84601,-7.8499 z M 66.855966,39.440038 c -0.58088,-3.546403 -0.88282,-6.632267 -0.67099,-6.857483 0.21182,-0.225217 2.50308,0.593483 5.09168,1.819332 l 4.70655,2.228808 -3.74269,4.628675 c -2.05848,2.54577 -3.87448,4.628674 -4.03556,4.628674 -0.16108,0 -0.76813,-2.901604 -1.34899,-6.448006 z m 5.9089,-6.594273 -4.58268,-2.203648 8.38019,-1.63438 c 4.60912,-0.898918 8.61445,-1.63439 8.90075,-1.63439 0.2863,0 -1.21636,1.743062 -3.33925,3.87347 -2.12289,2.130398 -4.06601,3.857517 -4.31806,3.838018 -0.25205,-0.01949 -2.52047,-1.027068 -5.04095,-2.23907 z M 265.02756,30.68244 c 0.30457,-0.323803 1.09508,-0.358415 1.7567,-0.07698 0.73115,0.311076 0.51398,0.541983 -0.55374,0.588738 -0.96618,0.04229 -1.50751,-0.188002 -1.20296,-0.511805 z m -6.89311,-2.005541 c 0.63011,-0.270324 1.66122,-0.270324 2.29134,0 0.63012,0.270324 0.11456,0.491507 -1.14567,0.491507 -1.26024,0 -1.77579,-0.221183 -1.14567,-0.491507 z m -4.58269,-0.974458 c 0.63012,-0.270324 1.66122,-0.270324 2.29134,0 0.63012,0.270324 0.11457,0.491507 -1.14567,0.491507 -1.26024,0 -1.77579,-0.221183 -1.14567,-0.491507 z m -5.49922,-0.974458 c 0.63012,-0.270324 1.66122,-0.270324 2.29134,0 0.63012,0.270325 0.11457,0.491507 -1.14567,0.491507 -1.26024,0 -1.77579,-0.221182 -1.14567,-0.491507 z m -7.34974,-0.968279 c 0.62053,-0.266924 1.85785,-0.283168 2.74961,-0.03605 0.89177,0.247074 0.38406,0.465469 -1.12823,0.485319 -1.51228,0.01988 -2.2419,-0.182282 -1.62138,-0.449206 z m -92.55278,-0.0058 c 0.63012,-0.270324 1.66123,-0.270324 2.29135,0 0.63012,0.270324 0.11456,0.491507 -1.14567,0.491507 -1.26024,0 -1.77579,-0.221183 -1.14568,-0.491507 z m 121.212,-1.791112 c -1.76433,-0.722375 -2.58922,-1.326997 -1.83307,-1.343601 0.75614,-0.01657 2.61213,0.572182 4.12441,1.308414 3.53972,1.723231 1.89329,1.748518 -2.29134,0.03518 z m -36.90805,0.822501 c 0.62052,-0.266923 1.85785,-0.283168 2.74961,-0.03606 0.89177,0.247074 0.38406,0.465469 -1.12823,0.485319 -1.51228,0.01988 -2.2419,-0.182282 -1.62138,-0.449205 z m -73.3055,-0.04853 c 1.13421,-0.232262 2.9902,-0.232262 4.12441,0 1.13422,0.232272 0.20622,0.422301 -2.06221,0.422301 -2.26842,0 -3.19642,-0.190029 -2.0622,-0.422301 z m 84.32139,-0.932153 c 0.63011,-0.270334 1.66122,-0.270334 2.29134,0 0.63012,0.270325 0.11456,0.491497 -1.14567,0.491497 -1.26024,0 -1.77579,-0.221172 -1.14567,-0.491497 z M 219.6273,23.76397 c 1.12728,-0.231307 3.18949,-0.23729 4.58268,-0.01325 1.39319,0.223979 0.47087,0.413219 -2.04961,0.420537 -2.52047,0.0068 -3.66036,-0.175939 -2.53307,-0.407236 z m -41.66939,-0.02524 c 1.9016,-0.210951 4.78869,-0.207413 6.41576,0.0078 1.62707,0.215267 0.0712,0.387853 -3.45745,0.383536 -3.52867,-0.0039 -4.8599,-0.180459 -2.95831,-0.3914 z m 56.82394,-0.85203 c 0.30455,-0.323802 1.09508,-0.358425 1.7567,-0.07698 0.73114,0.311067 0.51397,0.541974 -0.55375,0.588729 -0.96617,0.04229 -1.50751,-0.187993 -1.20295,-0.511805 z m 28.41264,-0.974457 c 0.30456,-0.323803 1.09508,-0.358425 1.7567,-0.07698 0.73115,0.311066 0.51397,0.541973 -0.55375,0.588728 -0.96617,0.04229 -1.50751,-0.187992 -1.20295,-0.511805 z M 168.7721,21.784715 c 2.39446,-0.200738 6.31265,-0.200738 8.7071,0 2.39446,0.200739 0.43536,0.364974 -4.35355,0.364974 -4.7889,0 -6.748,-0.164235 -4.35355,-0.364974 z m 90.27888,-0.903556 c 0.63012,-0.270324 1.66122,-0.270324 2.29134,0 0.63012,0.270325 0.11457,0.491507 -1.14567,0.491507 -1.26024,0 -1.77579,-0.221182 -1.14567,-0.491507 z m -5.51666,-0.968279 c 0.62052,-0.266924 1.85785,-0.283168 2.74961,-0.03605 0.89176,0.247073 0.38406,0.465469 -1.12823,0.485319 -1.51229,0.01988 -2.2419,-0.182282 -1.62138,-0.449206 z m -5.49922,-0.974458 c 0.62052,-0.266924 1.85785,-0.283168 2.74961,-0.03605 0.89176,0.247074 0.38406,0.465469 -1.12823,0.485319 -1.51229,0.01988 -2.2419,-0.182282 -1.62138,-0.449206 z m -7.78381,-1.004802 c 0.87629,-0.2439 2.52606,-0.252749 3.66615,-0.01966 1.14009,0.233084 0.42313,0.432638 -1.59326,0.443454 -2.01638,0.01082 -2.94918,-0.179889 -2.07289,-0.423789 z m -9.61295,-0.992635 c 1.13421,-0.232265 2.9902,-0.232265 4.12442,0 1.13421,0.232265 0.20622,0.4223 -2.06221,0.4223 -2.26843,0 -3.19642,-0.190035 -2.06221,-0.4223 z M 219.6399,15.966528 c 1.13421,-0.232265 2.9902,-0.232265 4.12441,0 1.13422,0.232265 0.20622,0.422299 -2.0622,0.422299 -2.26843,0 -3.19643,-0.190034 -2.06221,-0.422299 z"
       id="path1609" />
  </g>
</svg>
