<?xml version="1.0" encoding="UTF-8" standalone="no"?>
<svg
   viewBox="0 0 500 500"
   version="1.1"
   id="svg37"
   sodipodi:docname="linkedin-in-brands.svg"
   width="500"
   height="500"
   inkscape:version="1.1.2 (b8e25be833, 2022-02-05)"
   xmlns:inkscape="http://www.inkscape.org/namespaces/inkscape"
   xmlns:sodipodi="http://sodipodi.sourceforge.net/DTD/sodipodi-0.dtd"
   xmlns="http://www.w3.org/2000/svg"
   xmlns:svg="http://www.w3.org/2000/svg">
  <defs
     id="defs41" />
  <sodipodi:namedview
     id="namedview39"
     pagecolor="#505050"
     bordercolor="#eeeeee"
     borderopacity="1"
     inkscape:pageshadow="0"
     inkscape:pageopacity="0"
     inkscape:pagecheckerboard="0"
     showgrid="false"
     width="500px"
     inkscape:zoom="1.5019531"
     inkscape:cx="224.04161"
     inkscape:cy="256"
     inkscape:window-width="1920"
     inkscape:window-height="991"
     inkscape:window-x="-9"
     inkscape:window-y="-9"
     inkscape:window-maximized="1"
     inkscape:current-layer="svg37" />
  <!--!Font Awesome Free 6.7.2 by @fontawesome - https://fontawesome.com License - https://fontawesome.com/license/free Copyright 2025 Fonticons, Inc.-->
  <path
     d="M 125.74777,475 H 32.433036 V 174.56473 H 125.74777 Z M 79.040179,133.58259 C 49.207589,133.58259 25,108.87277 25,79.040178 a 54.04018,54.040179 0 0 1 108.08036,0 c 0,29.832592 -24.20759,54.542412 -54.040181,54.542412 z M 474.89955,475 H 381.78571 V 328.75 c 0,-34.85491 -0.70312,-79.55357 -48.51562,-79.55357 -48.51563,0 -55.94866,37.8683 -55.94866,77.04241 V 475 H 184.10714 V 174.56473 h 89.49777 v 40.98214 h 1.3058 c 12.45536,-23.60491 42.89063,-48.51562 88.29241,-48.51562 C 457.62277,167.03125 475,229.20759 475,309.96652 V 475 Z"
     id="path35"
     style="stroke-width:1.00446" />
</svg>
