<?xml version="1.0" encoding="UTF-8" standalone="no"?>
<!-- Created with Inkscape (http://www.inkscape.org/) -->

<svg
   version="1.1"
   id="svg590"
   width="500"
   height="500"
   viewBox="0 0 500 500"
   sodipodi:docname="My_projects.svg"
   inkscape:version="1.1.2 (b8e25be833, 2022-02-05)"
   xmlns:inkscape="http://www.inkscape.org/namespaces/inkscape"
   xmlns:sodipodi="http://sodipodi.sourceforge.net/DTD/sodipodi-0.dtd"
   xmlns="http://www.w3.org/2000/svg"
   xmlns:svg="http://www.w3.org/2000/svg">
  <defs
     id="defs594" />
  <sodipodi:namedview
     id="namedview592"
     pagecolor="#505050"
     bordercolor="#eeeeee"
     borderopacity="1"
     inkscape:pageshadow="0"
     inkscape:pageopacity="0"
     inkscape:pagecheckerboard="0"
     showgrid="false"
     inkscape:zoom="1.2456318"
     inkscape:cx="232.41218"
     inkscape:cy="256.49634"
     inkscape:window-width="1920"
     inkscape:window-height="991"
     inkscape:window-x="-9"
     inkscape:window-y="-9"
     inkscape:window-maximized="1"
     inkscape:current-layer="g596"
     width="500px" />
  <g
     inkscape:groupmode="layer"
     inkscape:label="Image"
     id="g596">
    <g
       id="g2513">
      <path
         style="fill:#ffffff;stroke-width:0.910167"
         d="m 277.39012,378.62155 c -7.91694,-1.5511 -13.73186,-3.65205 -17.63628,-6.37206 -4.35579,-3.03446 -18.28525,-13.70163 -18.75508,-14.36265 -0.22489,-0.31639 -1.6969,-1.46137 -3.27113,-2.5444 -1.57423,-1.08301 -3.29147,-2.45054 -3.81606,-3.03896 -0.52461,-0.5884 -2.81185,-2.43736 -5.08276,-4.10878 -6.5093,-4.79097 -7.67129,-11.91441 -2.48533,-15.23632 3.26429,-2.09095 16.35624,-4.48986 25.21521,-4.62032 9.64239,-0.14199 5.69547,-1.34676 -10.96882,-3.34813 -7.1965,-0.86429 -17.56331,-2.11767 -23.03737,-2.78529 -10.71488,-1.30677 -10.85183,-1.28101 -22.3496,4.20481 -9.98039,4.76183 -14.73016,6.97394 -23.71572,11.0451 -5.17248,2.34355 -10.87652,4.97564 -12.67565,5.84911 -1.79912,0.87347 -4.00713,1.93851 -4.90669,2.36676 -0.89956,0.42824 -3.8896,1.96913 -6.64453,3.42417 -2.75493,1.45506 -5.51494,2.66006 -6.13338,2.67777 -0.61842,0.0178 -1.83875,0.7015 -2.71183,1.51949 -0.87308,0.81799 -2.09833,1.48726 -2.72276,1.48726 -1.12183,0 -5.44408,1.9612 -18.99665,8.61966 -22.611122,11.10898 -22.082073,10.90824 -27.22535,10.33055 -8.544649,-0.95975 -14.442813,-9.21582 -14.468148,-20.25208 -0.01799,-7.82602 -0.21843,-7.45562 14.415867,-26.63574 1.734167,-2.27285 6.833047,-9.08076 11.330851,-15.12869 4.49781,-6.04793 10.29385,-13.69557 12.88009,-16.99475 2.58624,-3.29919 4.70225,-6.15115 4.70225,-6.33769 0,-0.18656 1.56402,-2.32605 3.47559,-4.75446 1.91157,-2.4284 6.9716,-9.13349 11.24452,-14.90021 4.27292,-5.7667 9.24436,-12.35371 11.04764,-14.63779 1.80328,-2.28407 6.83561,-8.95538 11.18293,-14.82515 l 7.90425,-10.6723 -1.22877,-7.56145 c -0.67582,-4.1588 -1.78292,-10.98028 -2.46021,-15.15885 -1.77979,-10.98051 -2.29986,-24.34624 -1.11968,-28.77581 0.54091,-2.03016 1.93122,-5.08641 3.08958,-6.79163 4.42295,-6.51107 10.13775,-7.76706 40.68695,-8.9422 13.94321,-0.53635 29.58332,-1.27563 34.75579,-1.64286 10.17868,-0.72264 21.19332,0.72058 24.30029,3.184 0.99618,0.78985 2.28797,1.43608 2.87065,1.43608 1.915,0 8.02959,8.32322 10.10306,13.75233 2.53849,6.6468 4.54541,15.45447 5.17586,22.71516 l 0.48377,5.57143 0.93703,-4.05194 c 0.51535,-2.22858 1.75363,-8.50032 2.7517,-13.93721 l 1.81468,-9.88528 -6.43173,-8.21305 c -6.3444,-8.10153 -16.79805,-18.50634 -22.37851,-22.27396 -1.57423,-1.06285 -3.41424,-2.3394 -4.08892,-2.83677 -0.67466,-0.49739 -3.71831,-2.20204 -6.76364,-3.7881 -3.04534,-1.58606 -6.59225,-4.02336 -7.88203,-5.41622 -4.49321,-4.85231 -6.24953,-14.28306 -3.7673,-20.22891 1.34448,-3.22056 8.73195,-8.13468 12.22896,-8.13468 1.1523,0 2.0951,-0.34687 2.0951,-0.77082 0,-1.3084 5.21113,-8.075417 7.15561,-9.292043 1.012,-0.633203 1.84001,-1.621489 1.84001,-2.196206 0,-0.574709 0.82893,-2.496008 1.84206,-4.269546 1.01314,-1.773546 2.20914,-3.95416 2.6578,-4.845811 4.61604,-9.173964 12.09625,-20.504602 18.34571,-27.789109 1.89601,-2.21003 5.27078,-6.171261 7.49951,-8.802734 7.28181,-8.597711 14.40153,-13.643265 24.85528,-17.614246 6.83988,-2.598208 31.9637,-2.736835 39.2536,-0.216592 2.69869,0.932982 6.56271,2.228315 8.58673,2.878517 5.96161,1.915137 20.29984,10.912033 26.52775,16.645538 8.22418,7.571296 16.56019,18.024093 21.44966,26.896454 3.7261,6.7613 7.63186,15.081981 7.63186,16.258637 0,0.568365 0.53006,2.043012 1.17792,3.27698 0.64785,1.233969 2.14774,6.772421 3.33309,12.307671 4.08713,19.08594 2.46673,48.98375 -4.47807,82.62411 -0.40256,1.95 -2.20612,8.75624 -4.00789,15.12498 l -3.27596,11.57952 2.65262,6.14774 c 3.8213,8.85627 4.76624,11.02447 5.54891,12.73214 10.28294,22.43579 10.36774,33.78576 0.27605,36.94827 -10.41941,3.2652 -25.45515,1.02018 -47.49684,-7.09188 -1.60865,-0.59203 -1.66962,-0.3609 -1.12324,4.25878 0.71275,6.02633 5.92457,36.94469 8.16592,48.44319 0.43441,2.22856 1.08088,5.64471 1.43663,7.59142 0.7155,3.91545 0.36663,3.73243 25.933,13.60489 18.2684,7.05436 20.85347,8.95644 20.85347,15.34394 0,7.50491 -3.7168,8.63929 -41.29806,12.6042 -4.94759,0.52199 -15.25166,1.66103 -22.89793,2.5312 -7.64628,0.87017 -18.68635,2.00531 -24.5335,2.52255 -5.84715,0.51725 -11.73519,1.18025 -13.08453,1.47337 -3.81296,0.82827 -32.32001,3.58643 -35.98247,3.48143 -1.79912,-0.0515 -6.21514,-0.67056 -9.81339,-1.37553 z"
         id="path846" />
      <path
         style="fill:#ffffff;stroke:#ffffff;stroke-width:5.84216;stroke-miterlimit:4;stroke-dasharray:none;stroke-opacity:1"
         d="m 53.682046,408.61692 c -19.44332,1.58304 -29.98016,5.56828 -24.25492,9.1737 1.00936,0.63563 17.26032,5.82307 36.11327,11.52764 18.85294,5.70458 59.542924,18.02011 90.422184,27.36785 30.87929,9.34774 58.55631,17.44445 61.5045,17.99272 17.06486,3.17346 47.72584,3.17346 64.82924,0 2.95487,-0.54827 24.92158,-6.91585 48.81497,-14.15016 23.89338,-7.23436 47.40752,-14.35045 52.25367,-15.81357 88.36383,-26.67838 88.7812,-26.81462 88.80379,-28.98715 0.0294,-2.83269 -11.2298,-5.90037 -26.09952,-7.11103 l -8.54658,-0.69584 H 249.87564 62.228616 Z m 388.765504,2.95347 c 9.09678,1.21327 12.81169,2.42609 12.81917,4.18517 0.007,1.42475 -3.71514,2.61116 -91.31912,29.11469 -50.40496,15.24943 -93.32876,27.91693 -95.7964,28.27106 -10.37649,1.48914 -27.9653,1.41309 -37.38112,-0.16164 -2.55063,-0.42657 -21.31155,-5.83001 -41.69095,-12.00764 -20.37939,-6.17764 -61.25163,-18.54482 -90.827184,-27.48264 -50.28365,-15.19586 -53.77372,-16.34307 -53.77372,-17.67562 0,-0.78378 1.0732,-1.78423 2.38487,-2.22322 3.24728,-1.08682 10.924,-2.28492 17.05604,-2.66191 3.45814,-0.21261 63.465524,-0.29487 188.624354,-0.25857 l 183.55279,0.0532 z"
         id="path1208" />
    </g>
  </g>
</svg>
