<?xml version="1.0" encoding="UTF-8" standalone="no"?>
<!-- Created with Inkscape (http://www.inkscape.org/) -->

<svg
   version="1.1"
   id="svg195"
   width="500"
   height="500"
   viewBox="0 0 500.00001 499.99999"
   sodipodi:docname="Qui_suis_je.svg"
   inkscape:version="1.1.2 (b8e25be833, 2022-02-05)"
   xmlns:inkscape="http://www.inkscape.org/namespaces/inkscape"
   xmlns:sodipodi="http://sodipodi.sourceforge.net/DTD/sodipodi-0.dtd"
   xmlns="http://www.w3.org/2000/svg"
   xmlns:svg="http://www.w3.org/2000/svg">
  <defs
     id="defs199" />
  <sodipodi:namedview
     id="namedview197"
     pagecolor="#505050"
     bordercolor="#eeeeee"
     borderopacity="1"
     inkscape:pageshadow="0"
     inkscape:pageopacity="0"
     inkscape:pagecheckerboard="0"
     showgrid="false"
     inkscape:zoom="1.4129388"
     inkscape:cx="205.59985"
     inkscape:cy="156.05771"
     inkscape:window-width="1920"
     inkscape:window-height="991"
     inkscape:window-x="-9"
     inkscape:window-y="-9"
     inkscape:window-maximized="1"
     inkscape:current-layer="g201"
     width="500px" />
  <g
     inkscape:groupmode="layer"
     inkscape:label="Image"
     id="g201">
    <g
       id="g2487">
      <path
         style="fill:#ffffff;stroke-width:1.47845"
         d="m 209.68216,378.40625 c -22.04548,-1.64939 -39.68947,-4.34984 -50.13134,-7.67269 -6.22905,-1.98223 -6.46499,-2.30113 -7.36652,-9.95614 -0.51226,-4.34958 -1.92643,-9.10473 -3.14258,-10.56702 -1.21618,-1.46227 -2.21123,-5.68164 -2.21123,-9.37638 v -6.71772 l -8.19863,-2.45823 C 129.83763,329.02128 100.07468,310.08032 88.349255,299.65852 80.644108,292.81003 75,282.37801 75,274.98505 c 0,-2.79525 1.564083,-10.78945 3.475742,-17.76487 5.470938,-19.96287 28.721408,-82.72022 32.811518,-88.5644 6.0006,-8.57404 16.1494,-14.0065 43.89695,-23.49723 14.17117,-4.84708 25.75701,-8.8443 25.74633,-8.88269 -0.0107,-0.0384 -1.29467,-2.80854 -2.85329,-6.15586 -10.88812,-23.38374 -10.59378,-32.478648 1.77269,-54.774374 12.06159,-21.746072 26.34401,-33.805247 48.42677,-40.888489 14.45017,-4.635027 21.05048,-5.373999 31.30955,-3.505429 18.15539,3.306782 36.66223,13.291649 48.92095,26.393936 7.00442,7.486438 15.29657,22.198761 19.87273,35.259161 3.5091,10.014905 3.54116,10.855825 0.75198,19.727775 -1.60235,5.09682 -3.64102,10.36244 -4.53039,11.70138 -1.84945,2.78434 -5.48199,11.91713 -4.88027,12.26976 0.22026,0.12901 11.57169,4.13416 25.22563,8.90035 13.65394,4.76617 27.63361,10.11763 31.06588,11.89212 12.05508,6.23249 15.32823,12.49587 32.97357,63.09721 2.10108,6.02518 5.73186,16.15845 8.06842,22.51836 2.33657,6.35991 5.27531,17.15952 6.53049,23.9991 2.04436,11.13984 1.95895,13.13067 -0.81983,19.10582 -1.70608,3.66862 -6.63455,9.85556 -10.95218,13.74879 -11.47674,10.34861 -40.10694,28.64066 -49.79089,31.81177 l -8.38054,2.74431 -0.96803,7.54796 c -2.25683,17.59742 -3.97507,25.18085 -6.01935,26.56651 -5.67785,3.84858 -30.42857,8.03364 -60.65236,10.25563 -27.7012,2.03652 -48.26629,2.01351 -76.31991,-0.0854 z m 62.85169,-32.97906 c 3.45684,-0.4497 8.3054,-1.4878 10.77457,-2.30692 2.46917,-0.8191 7.31773,-1.84733 10.77458,-2.28494 3.65996,-0.46332 9.86807,-2.94622 14.86326,-5.94441 l 8.57811,-5.14877 -3.88925,-6.69465 c -4.20998,-7.24672 -10.38818,-25.32649 -10.50255,-30.7345 l -0.0707,-3.34733 H 250.0868 197.11183 v 2.91284 c 0,7.32658 -6.25209,24.43384 -12.19497,33.36844 -2.61697,3.93437 -2.54474,4.11802 3.19877,8.13467 3.23191,2.26019 8.3964,4.75805 11.47667,5.55083 3.08024,0.79277 8.02474,2.15787 10.98774,3.03353 16.3513,4.8324 40.87911,6.20271 61.95381,3.46121 z m -90.19022,-25.1184 c 3.17979,-6.19255 6.57531,-15.09339 7.54559,-19.77964 2.29102,-11.06494 2.26204,-11.86238 -0.40938,-11.26112 -2.26245,0.50922 -17.64662,39.68852 -16.25104,41.38703 1.86333,2.26782 3.71964,0.16071 9.11483,-10.34627 z m 143.5596,6.69464 c -0.48438,-2.51049 -3.39758,-10.73701 -6.47378,-18.28116 -3.0762,-7.54416 -5.59307,-14.76943 -5.59307,-16.05617 0,-2.41127 -3.0542,-4.47037 -4.83767,-3.26149 -0.55397,0.37547 -0.0721,4.94434 1.07084,10.153 3.54556,16.15844 18.73639,42.48993 15.83368,27.44582 z m -156.28307,-9.58964 c 2.54344,-3.64117 4.22625,-6.89022 3.73957,-7.22012 -0.4867,-0.32988 -3.82655,1.60723 -7.4219,4.30471 -6.10291,4.57884 -8.08623,8.31051 -5.38865,10.13899 2.03569,1.37984 4.34689,-0.46065 9.07098,-7.22358 z m 170.31784,6.78173 c 2.0304,-2.22681 -0.61451,-6.53173 -6.53486,-10.63626 -3.14162,-2.17807 -6.02567,-3.74757 -6.40899,-3.48775 -1.1091,0.75176 8.70352,15.41041 10.31587,15.41041 0.80027,0 1.98289,-0.57888 2.62798,-1.2864 z M 160.36436,309.61304 c 7.2993,-5.02316 8.42297,-6.33965 6.21765,-7.28461 -5.34931,-2.29212 -11.19711,-1.22618 -17.28777,3.15118 -5.9194,4.25429 -5.97802,4.40084 -2.90569,7.265 1.72457,1.60773 3.57001,2.94036 4.10096,2.9614 0.53098,0.0211 4.97464,-2.72081 9.87485,-6.09297 z m 195.31308,3.56195 c 1.38574,-1.49174 0.62484,-3.02396 -3.18145,-6.4065 -5.39621,-4.79547 -11.66687,-6.56498 -17.25519,-4.86924 -3.2388,0.9828 -2.86944,1.55852 4.82153,7.51548 8.35877,6.47422 12.22835,7.40603 15.61511,3.76026 z m 13.82757,-10.21142 c 1.32145,-1.67366 3.32482,-3.04303 4.45194,-3.04303 1.12709,0 4.60781,-1.69553 7.73491,-3.76784 5.45286,-3.61357 5.57711,-3.91013 3.03456,-7.24281 -3.92691,-5.14725 -3.40535,-6.43772 2.28727,-5.65905 2.71608,0.37153 6.15048,0.97233 7.63198,1.33509 1.48151,0.36277 4.2277,-0.12952 6.10268,-1.09391 2.96649,-1.52586 3.08304,-2.02163 0.89787,-3.81886 -1.38113,-1.13594 -6.75363,-3.90861 -11.93889,-6.16149 -5.18527,-2.25286 -9.42775,-4.69871 -9.42775,-5.43519 0,-1.33672 8.43954,-0.87816 14.684,0.79786 2.31676,0.62181 2.80582,0.27504 2.11984,-1.50299 -0.49041,-1.2712 0.37664,-3.02478 1.9268,-3.89681 3.40249,-1.91405 3.95539,-4.62894 0.5738,-2.81752 -1.23459,0.66132 -7.90135,2.70861 -14.81504,4.54953 -16.68184,4.44187 -16.57342,4.37392 -9.97711,6.2539 7.5915,2.16359 5.84812,3.60375 -5.46156,4.51168 -14.87879,1.19444 -23.60465,6.82494 -12.30574,7.94044 2.3639,0.23338 5.87455,1.17281 7.80146,2.08764 4.26844,2.02652 2.51225,2.55458 -10.97437,3.29987 -5.15249,0.28474 -10.63103,1.22811 -12.17454,2.0964 -2.45192,1.3793 -1.94913,1.84479 3.98089,3.68553 3.73297,1.15878 9.57209,4.09085 12.97576,6.51572 3.40367,2.42487 6.7015,4.40886 7.32854,4.40886 0.62702,0 2.22121,-1.36936 3.5427,-3.04302 z m -226.29883,-2.41149 c 3.33247,-2.33051 8.82757,-4.85661 12.21132,-5.61357 l 6.15228,-1.37628 -5.12495,-2.29026 c -3.17399,-1.4184 -8.33171,-2.29331 -13.54883,-2.29827 -13.54212,-0.0133 -12.56176,-2.03341 2.58766,-5.33316 1.72843,-0.37648 3.11719,-1.11249 3.08616,-1.6356 -0.13368,-2.25287 -10.15105,-5.64873 -18.21176,-6.17372 -10.86203,-0.70743 -12.39907,-2.1256 -4.70988,-4.34553 l 5.91833,-1.7087 -4.40868,-1.17543 c -3.45448,-0.921 -5.17962,-0.68859 -7.9706,1.07389 -1.95906,1.23712 -4.49148,2.2493 -5.62761,2.2493 -1.13613,0 -4.93545,1.66155 -8.44293,3.69231 -5.750334,3.32933 -6.175966,3.98748 -4.32981,6.69512 1.30665,1.91637 3.02203,2.75162 4.74107,2.3085 4.51877,-1.16478 12.57034,-2.0828 12.57034,-1.43323 0,0.33665 -1.23785,2.62021 -2.75077,5.07454 -2.80593,4.55196 -2.31204,6.77778 1.50993,6.8049 1.1763,0.008 5.60824,2.19932 9.84875,4.86883 4.24051,2.66952 8.32448,4.85366 9.07548,4.85366 0.751,0 4.09203,-1.90678 7.4245,-4.2373 z M 314.69071,278.9237 c 2.42476,-5.46819 8.92194,-20.75243 17.98046,-42.29799 5.20357,-12.37653 26.24069,-57.36414 28.15951,-60.21868 1.13726,-1.69186 2.77984,-3.07614 3.65017,-3.07614 1.45319,0 0.73747,12.28233 -1.37061,23.52084 -1.17076,6.2415 1.08363,4.94655 8.02372,-4.60892 5.44795,-7.50103 9.14562,-10.04276 9.14562,-6.2866 0,2.35143 -8.49932,19.73168 -11.70228,23.93003 -1.4651,1.9204 -2.66382,3.8776 -2.66382,4.34934 0,1.51668 7.18196,-3.49129 10.97901,-7.65568 2.02402,-2.2198 4.402,-4.03601 5.28442,-4.03601 2.26337,0 0.38413,5.92801 -6.54233,20.63765 -3.29572,6.99919 -5.66069,12.95054 -5.25543,13.22523 0.40525,0.27469 3.79085,-1.20691 7.52354,-3.29243 3.73269,-2.08552 7.42606,-3.79188 8.20753,-3.79188 2.46364,0 -0.75276,6.373 -7.92723,15.70703 -3.80998,4.95682 -6.63909,9.20767 -6.28699,9.44637 0.35217,0.23869 3.99872,-0.36919 8.10344,-1.35083 9.4227,-2.25343 9.47335,-0.96078 0.16105,4.11171 -4.01613,2.18765 -6.91365,4.24079 -6.43896,4.56257 2.66828,1.8086 27.31781,-10.93268 29.55096,-15.27484 1.90331,-3.70079 0.71221,-8.3858 -9.16995,-36.06874 -3.34576,-9.37249 -7.48499,-21.42285 -9.19826,-26.77857 -5.60937,-17.53496 -8.57095,-19.94371 -37.00693,-30.09882 l -16.4281,-5.86683 -14.10751,9.46236 c -7.77402,5.2143 -19.10519,11.31907 -25.23955,13.59804 l -11.13204,4.13567 1.15145,-3.10967 c 0.63328,-1.71033 1.68835,-4.11913 2.34454,-5.35289 0.96805,-1.82007 0.29206,-1.68658 -3.58387,0.7077 l -4.77692,2.95091 v 36.84084 c 0,35.83999 -0.70613,40.64439 -5.49646,37.39739 -0.87561,-0.5935 -1.65937,-16.53988 -1.7417,-35.43643 -0.15124,-34.70596 -0.61188,-37.06999 -6.45208,-33.11135 -1.25376,0.84981 -2.81402,0.51509 -4.90735,-1.05279 -2.9423,-2.20374 -2.4993,-2.67028 10.71767,-11.28793 17.61584,-11.48579 37.58777,-29.57997 45.4325,-41.16093 15.93414,-23.523173 5.16217,-44.513401 -28.57377,-55.678806 -23.64842,-7.82678 -46.43789,-7.855564 -69.76582,-0.08811 -19.95289,6.643669 -32.11762,16.738428 -36.37121,30.182232 -5.05514,15.977154 16.07777,42.807414 51.98419,65.998914 8.05532,5.20284 14.64606,9.86384 14.64606,10.35777 0,1.64288 -6.95234,3.93864 -8.10367,2.67595 -0.59789,-0.65576 -2.04954,-1.19132 -3.22583,-1.19012 -1.60336,8.8e-4 -2.13871,8.51792 -2.13871,34.02198 0,24.23397 -0.60069,34.42667 -2.08824,35.43425 -5.34107,3.61773 -5.9927,-0.41231 -5.9927,-37.06202 v -36.84084 l -4.77696,-2.95091 c -3.87592,-2.39428 -4.55191,-2.52777 -3.58385,-0.7077 2.22085,4.17555 3.3679,8.10308 2.36652,8.10308 -4.22216,0 -25.97683,-10.59809 -36.76516,-17.91064 l -13.19172,-8.94166 -16.12388,5.8186 c -18.41899,6.64682 -27.49495,11.32075 -31.01131,15.97011 -2.39313,3.16422 -26.208515,71.33025 -26.208515,75.01582 0,2.5924 12.342965,10.69445 22.345285,14.66768 10.719,4.25791 12.32407,3.1943 2.91441,-1.93127 -4.01614,-2.18765 -7.30207,-4.39538 -7.30207,-4.90606 0,-0.87661 6.05197,0.0289 13.01927,1.94802 4.30581,1.18602 3.99222,-0.93484 -0.94899,-6.41798 -6.21737,-6.89929 -12.81846,-17.21964 -11.55973,-18.07284 0.61577,-0.4174 4.30349,0.95037 8.19493,3.03947 7.98136,4.28477 12.10244,5.00566 9.53664,1.66825 -2.31496,-3.01113 -12.22373,-23.25665 -13.702,-27.99579 -1.61012,-5.16182 1.28554,-5.12337 6.03001,0.0801 3.81814,4.18751 10.97902,9.16933 10.97902,7.63812 0,-0.48139 -2.10986,-3.98968 -4.68858,-7.79622 -4.23992,-6.25866 -9.67752,-18.0459 -9.67752,-20.97822 0,-3.13877 3.60598,-0.35239 9.13454,7.05834 7.47979,10.02623 6.86339,9.34161 7.82437,8.69022 0.43839,-0.29714 0.005,-6.24171 -0.96171,-13.21016 -1.78957,-12.89171 -1.08863,-18.30943 1.89553,-14.6511 3.32102,4.07128 11.4159,21.71974 32.66063,71.20668 2.01181,4.68625 4.38442,10.16369 5.2725,12.17208 0.88808,2.0084 4.07902,9.266 7.091,16.12801 l 5.47634,12.47639 h 61.78492 61.78493 z M 233.71404,159.6373 c -22.8568,-16.19344 -38.60256,-31.66416 -48.00536,-47.16683 -6.90235,-11.38012 -1.24453,-23.731395 15.30044,-33.401568 10.92176,-6.383512 18.46352,-8.744818 35.32796,-11.061054 13.37222,-1.836601 15.87685,-1.850059 28.16601,-0.151352 20.23683,2.797289 37.91892,10.845658 48.5436,22.095631 2.56713,2.718196 3.4431,5.829628 3.42685,12.172083 -0.0196,7.43049 -0.88461,9.66645 -6.76615,17.47884 -11.33519,15.05637 -23.62412,26.30349 -45.07253,41.25146 -6.9643,4.85362 -13.58138,8.82476 -14.70455,8.82476 -1.1232,0 -8.42051,-4.51889 -16.21627,-10.04197 z m 19.77514,-24.40419 c 2.12289,-1.05219 2.98907,-2.78367 2.58791,-5.17313 -0.48872,-2.91087 -1.55956,-3.66595 -5.64994,-3.98386 -6.225,-0.48381 -10.21703,1.60641 -10.21703,5.34965 0,4.54944 7.46398,6.6895 13.27906,3.80734 z m 1.08705,-18.76489 c 0,-1.14857 3.83844,-4.72982 8.52987,-7.95831 7.65643,-5.26894 8.52987,-6.43692 8.52987,-11.406381 0,-4.532129 -0.89707,-6.059387 -4.94544,-8.419748 -6.63016,-3.865631 -15.23225,-4.785045 -25.81458,-2.759124 -9.25791,1.772367 -11.28532,3.867118 -7.30968,7.552446 2.04515,1.89582 3.08021,2.027995 6.4131,0.818959 2.18589,-0.79295 6.97046,-1.273108 10.63241,-1.067018 5.80809,0.32687 6.73214,0.812644 7.23812,3.805096 0.45377,2.68368 -1.2075,4.72573 -7.63198,9.38122 -5.29751,3.83883 -8.21203,7.04933 -8.21203,9.04599 0,2.72587 0.74992,3.09517 6.28516,3.09517 4.74077,0 6.28518,-0.51315 6.28518,-2.0883 z m -141.18808,151.09672 6.96231,-0.83797 -11.45172,-3.32863 c -6.29844,-1.83072 -11.721078,-3.1717 -12.050301,-2.97995 -0.329225,0.19175 1.084938,1.48975 3.142584,2.88448 4.280607,2.90148 4.708947,4.46613 1.496467,5.46619 -1.23459,0.38434 -0.62852,0.4592 1.34682,0.16642 1.97534,-0.29285 6.72457,-0.90958 10.55384,-1.37046 z M 234.18416,58.41045 c 6.06858,-1.062353 13.17533,-1.931552 15.79282,-1.931552 7.68931,0 28.20923,3.847941 36.64684,6.872096 6.1818,2.21565 7.57792,2.39659 6.71374,0.870123 -0.77493,-1.368836 -0.30472,-1.722694 1.62295,-1.221299 4.47697,1.164484 3.25484,-3.984689 -2.06858,-8.715461 -12.23935,-10.876756 -29.62376,-17.950774 -43.75869,-17.806137 -13.70567,0.140245 -31.54167,7.914821 -42.81287,18.661795 -5.50498,5.248942 -8.1636,12.072354 -3.46211,8.885575 2.86356,-1.940983 5.64075,-1.864002 4.51463,0.125145 -0.58458,1.032571 2.0109,0.644821 7.43985,-1.11147 4.5857,-1.483495 13.30285,-3.56646 19.37142,-4.628813 z"
         id="path341" />
      <path
         style="fill:#ffffff;stroke:#ffffff;stroke-width:5.84216;stroke-miterlimit:4;stroke-dasharray:none;stroke-opacity:1"
         d="m 53.682037,408.61692 c -19.44332,1.58304 -29.98015,5.56828 -24.25491,9.1737 1.00936,0.63563 17.26032,5.82307 36.11326,11.52764 18.85295,5.70458 59.542933,18.02011 90.422193,27.36785 30.87929,9.34774 58.55631,17.44445 61.5045,17.99272 17.06486,3.17346 47.72584,3.17346 64.82924,0 2.95487,-0.54827 24.92158,-6.91585 48.81497,-14.15016 23.89338,-7.23436 47.40752,-14.35045 52.25367,-15.81357 88.36383,-26.67838 88.7812,-26.81462 88.80379,-28.98715 0.0294,-2.83269 -11.2298,-5.90037 -26.09952,-7.11103 l -8.54658,-0.69584 H 249.87564 62.228617 Z m 388.765513,2.95347 c 9.09678,1.21327 12.81169,2.42609 12.81917,4.18517 0.007,1.42475 -3.71514,2.61116 -91.31912,29.11469 -50.40496,15.24943 -93.32876,27.91693 -95.7964,28.27106 -10.37649,1.48914 -27.9653,1.41309 -37.38112,-0.16164 -2.55063,-0.42657 -21.31155,-5.83001 -41.69095,-12.00764 -20.37939,-6.17764 -61.25163,-18.54482 -90.827193,-27.48264 -50.28365,-15.19586 -53.77371,-16.34307 -53.77371,-17.67562 0,-0.78378 1.07319,-1.78423 2.38486,-2.22322 3.24728,-1.08682 10.92401,-2.28492 17.05605,-2.66191 3.45813,-0.21261 63.465523,-0.29487 188.624353,-0.25857 l 183.55279,0.0532 z"
         id="path1208" />
    </g>
  </g>
</svg>
