<?xml version="1.0" encoding="UTF-8" standalone="no"?>
<!-- Created with Inkscape (http://www.inkscape.org/) -->

<svg
   version="1.1"
   id="svg1190"
   width="500"
   height="500"
   viewBox="0 0 500 500"
   sodipodi:docname="Skills_hover.svg"
   inkscape:version="1.1.2 (b8e25be833, 2022-02-05)"
   xmlns:inkscape="http://www.inkscape.org/namespaces/inkscape"
   xmlns:sodipodi="http://sodipodi.sourceforge.net/DTD/sodipodi-0.dtd"
   xmlns="http://www.w3.org/2000/svg"
   xmlns:svg="http://www.w3.org/2000/svg">
  <defs
     id="defs1194" />
  <sodipodi:namedview
     id="namedview1192"
     pagecolor="#505050"
     bordercolor="#eeeeee"
     borderopacity="1"
     inkscape:pageshadow="0"
     inkscape:pageopacity="0"
     inkscape:pagecheckerboard="0"
     showgrid="false"
     inkscape:zoom="0.940452"
     inkscape:cx="306.76738"
     inkscape:cy="213.19536"
     inkscape:window-width="1920"
     inkscape:window-height="991"
     inkscape:window-x="-9"
     inkscape:window-y="-9"
     inkscape:window-maximized="1"
     inkscape:current-layer="g1196"
     width="500px" />
  <g
     inkscape:groupmode="layer"
     inkscape:label="Image"
     id="g1196">
    <path
       style="fill:#fbb206;stroke-width:1.85807;fill-opacity:1"
       d="m 138.62391,374.71499 c -14.46799,-3.07748 -22.56283,-5.767 -22.99621,-7.64052 -0.36784,-1.59021 0.50713,-14.76071 1.94439,-29.26777 l 2.6132,-26.37651 -4.12452,-36.44274 -4.12453,-36.44274 4.93842,-50.21223 c 4.1056,-41.74423 5.48675,-51.07376 8.18979,-55.32083 3.98929,-6.26807 8.31155,-5.62267 12.15355,1.81478 2.8439,5.50534 2.83905,6.26785 -0.2318,36.34813 -3.47995,34.08775 -3.72935,39.39741 -1.85046,39.39741 0.70739,0 3.44516,-21.80193 6.08393,-48.44876 4.20279,-42.44082 5.21683,-48.93725 8.17742,-52.38815 4.37294,-5.09719 6.96497,-4.97236 10.7799,0.51915 3.87442,5.57716 3.83734,8.62831 -0.6367,52.38817 -2.00574,19.61769 -3.36829,36.10324 -3.02791,36.63455 1.95201,3.04692 3.64481,-7.79518 7.46014,-47.78098 2.33984,-24.52212 5.21209,-46.76673 6.3828,-49.43248 4.23014,-9.632273 13.62667,-8.33645 15.40614,2.12455 0.46326,2.72336 -1.275,25.92857 -3.86281,51.56718 -2.58779,25.63859 -4.35239,47.12331 -3.92134,47.74383 1.9569,2.81693 3.16673,-4.35366 6.36172,-37.70561 1.88261,-19.65245 3.84512,-38.1531 4.36112,-41.11256 1.93941,-11.12318 13.5755,-12.81539 16.33296,-2.37526 0.9411,3.56309 -0.36131,23.17936 -4.07137,61.32091 -5.12466,52.68425 -5.51592,62.614 -2.46718,62.614 0.68564,0 6.39557,-9.58182 12.68871,-21.29292 14.08452,-26.21031 18.35772,-30.13179 23.99372,-22.01887 4.28637,6.17012 2.6727,14.31414 -8.30851,41.93197 -8.21929,20.67163 -14.97962,33.80606 -28.78528,55.926 -9.92372,15.90015 -18.9853,31.53205 -20.13685,34.73754 -1.15153,3.20547 -2.93871,14.52329 -3.97152,25.15071 l -1.87783,19.32258 -5.57284,-0.26665 c -3.06505,-0.14668 -15.62018,-2.40379 -27.90025,-5.01588 z m 187.40126,-14.04005 c -1.03281,-10.62742 -2.81112,-21.91317 -3.9518,-25.07944 -1.14068,-3.16628 -10.18454,-18.79817 -20.09749,-34.73755 -13.63699,-21.92743 -20.64749,-35.55594 -28.80501,-55.99726 -11.01684,-27.60635 -12.63906,-35.75488 -8.34786,-41.93197 5.63599,-8.11292 9.9092,-4.19144 23.99372,22.01887 6.29314,11.7111 12.00307,21.29292 12.68871,21.29292 3.04874,0 2.65748,-9.92975 -2.46718,-62.614 -3.71006,-38.14155 -5.01247,-57.75782 -4.07138,-61.32091 2.75747,-10.44013 14.39355,-8.74792 16.33297,2.37526 0.516,2.95946 2.47851,21.46011 4.36112,41.11256 3.19499,33.35195 4.40481,40.52254 6.36172,37.70561 0.43105,-0.62052 -1.33355,-22.10524 -3.92134,-47.74383 -2.58781,-25.63861 -4.32607,-48.84382 -3.86281,-51.56718 1.77947,-10.461 11.176,-11.756823 15.40614,-2.12455 1.1707,2.66575 4.04295,24.91036 6.38279,49.43248 3.81534,39.9858 5.50813,50.8279 7.46015,47.78098 0.34038,-0.53131 -1.02217,-17.01686 -3.02791,-36.63455 -4.47405,-43.75986 -4.51113,-46.81101 -0.6367,-52.38817 3.81492,-5.49151 6.40695,-5.61634 10.7799,-0.51915 2.96058,3.4509 3.97462,9.94733 8.17743,52.38815 2.63875,26.64683 5.37653,48.44876 6.08391,48.44876 1.8789,0 1.6295,-5.30966 -1.85046,-39.39741 -3.07083,-30.08028 -3.07569,-30.84279 -0.23179,-36.34813 3.84199,-7.43745 8.16426,-8.08285 12.15355,-1.81478 2.70304,4.24707 4.08419,13.5766 8.18978,55.32083 l 4.93843,50.21223 -4.11516,36.35999 -4.11516,36.36 2.69649,27.77038 c 1.60441,16.52347 2.12646,28.5011 1.28903,29.57466 -1.35494,1.73697 -46.01315,11.39532 -52.66613,11.39026 -2.90603,-0.003 -3.4485,-2.04662 -5.12766,-19.32506 z M 76.510341,249.43931 C 75.608576,246.02512 75,202.45927 75,141.31906 75,41.889511 75.0899,38.787718 78.097345,34.458567 81.156802,30.05454 83.259586,30 250,30 416.74042,30 418.84318,30.054547 421.90266,34.458567 424.91009,38.787718 425,41.889511 425,141.31906 c 0,61.14021 -0.60858,104.70606 -1.51035,108.12025 -1.45525,5.50978 -1.98319,5.71833 -14.47594,5.71833 h -12.96563 l -1.03125,-26.19408 c -0.56718,-14.40675 -1.45172,-28.95282 -1.96564,-32.32461 -0.93276,-6.11983 -0.91921,-6.13053 7.76384,-6.13053 h 8.69824 v -15.60499 -15.60498 h -9.88575 c -8.94275,0 -9.97481,-0.47847 -10.81955,-5.01589 -1.88855,-10.14411 -1.47401,-10.58909 9.86459,-10.58909 h 10.84071 v -15.60499 -15.60499 h -10.84071 -10.84071 l -0.0353,12.81839 -0.0353,12.81838 -2.51323,-7.34046 c -1.38228,-4.03725 -3.80556,-8.33604 -5.38509,-9.55288 -1.57952,-1.21685 -2.87185,-3.6819 -2.87185,-5.47793 0,-2.35557 -1.83405,-3.26551 -6.58187,-3.26557 -5.63419,-4e-5 -7.18921,-1.09579 -10.80023,-7.61036 -2.32012,-4.18569 -6.67575,-8.777765 -9.67921,-10.204619 -5.43098,-2.580148 -5.46073,-2.666204 -5.46073,-15.797082 V 65.668537 h -10.84071 -10.84071 v 8.917133 c 0,7.88984 -0.42199,8.917143 -3.66283,8.917143 -4.32191,0 -11.25588,7.287593 -12.5595,13.200003 -0.55611,2.522196 -2.97505,4.721894 -6.12912,5.573664 -2.86574,0.77387 -6.95908,3.38705 -9.09633,5.80703 -2.97609,3.36981 -6.27619,4.39998 -14.09517,4.39998 H 267.0354 v 15.49861 15.49863 l 9.6792,0.66368 c 9.67874,0.66367 9.67924,0.66405 10.1645,7.90887 0.40582,6.05883 -0.038,7.24517 -2.71018,7.24517 -2.92106,0 -3.19547,1.32792 -3.19547,15.46374 v 15.46373 l 5.03319,0.69858 c 4.66803,0.64789 5.06632,1.34547 5.4901,9.61569 l 0.45694,8.91714 -5.87729,-9.57119 c -3.2325,-5.26414 -7.96799,-10.34837 -10.52329,-11.2983 -4.46053,-1.65816 -4.66444,-2.27734 -5.10709,-15.50825 l -0.46105,-13.78114 h -28.67469 -28.67466 l 0.48529,-7.24517 c 0.44305,-6.61451 0.99081,-7.30541 6.29282,-7.93708 l 5.80752,-0.69188 V 127.9539 112.48349 h -6.33759 c -3.96446,0 -7.79267,-1.64757 -10.22348,-4.39998 -2.13725,-2.41998 -6.25434,-5.03956 -9.14914,-5.8213 -7.55689,-2.04073 -6.48287,-5.026747 2.09296,-5.818875 l 7.35619,-0.679464 0.45792,-15.047662 0.45793,-15.047672 H 198.96457 188.0531 v 10.270294 c 0,8.449245 -0.43436,10.030344 -2.44968,8.917134 -1.34732,-0.744249 -3.78647,-1.353152 -5.42035,-1.353152 -2.43335,0 -2.97068,-1.612932 -2.97068,-8.917143 v -8.917133 h -10.84071 -10.84071 v 13.202822 c 0,13.088502 -0.0465,13.224888 -5.36967,15.753787 -5.6087,2.664532 -13.2144,13.683104 -13.2144,19.144044 0,3.63328 -7.02858,4.41193 -8.51769,0.94359 -0.55163,-1.2848 -8.7919,-2.22929 -19.44981,-2.22929 H 90.486726 v 15.60499 15.60499 h 10.840704 c 11.3386,0 11.75315,0.44498 9.8646,10.58909 -0.84473,4.53742 -1.8768,5.01589 -10.81956,5.01589 h -9.885744 v 15.60498 15.60499 h 8.698238 c 8.683056,0 8.696606,0.0111 7.763846,6.13053 -0.51392,3.37179 -1.39845,17.91786 -1.96564,32.32461 l -1.03125,26.19408 H 90.986302 c -12.492757,0 -13.020701,-0.20844 -14.475961,-5.71833 z M 256.19469,128.08848 v -15.60499 h -10.8407 -10.84072 v 14.11879 c 0,7.76536 0.46461,14.7876 1.03246,15.60499 0.56784,0.81741 5.44615,1.4862 10.8407,1.4862 h 9.80826 z M 112.16814,81.273523 V 65.668537 H 101.32743 90.486726 v 15.604986 15.604984 h 10.840704 10.84071 z m 32.52212,0 V 65.668537 h -10.84071 -10.8407 v 15.604986 15.604984 h 10.8407 10.84071 z m 96.0177,0 V 65.668537 h -10.8407 -10.84071 v 15.604986 15.604984 h 10.84071 10.8407 z m 32.52213,0 V 65.668537 h -10.84071 -10.84071 v 15.604986 15.604984 h 10.84071 10.84071 z m 29.10837,-0.557314 0.45792,-15.047672 h -9.36279 -9.3628 V 81.38477 97.101011 l 8.90487,-0.668579 8.90487,-0.668561 z m 74.65269,0.557314 V 65.668537 h -10.84071 -10.84071 v 15.604986 15.604984 h 10.84071 10.84071 z m 32.52212,0 V 65.668537 h -10.84071 -10.84071 v 15.604986 15.604984 h 10.84071 10.84071 z M 237.08769,244.56854 c 2.33952,-5.824 5.50236,-13.59863 7.02853,-17.27694 3.63795,-8.76805 3.52089,-20.5315 -0.29394,-29.53801 l -3.06878,-7.24517 H 250 h 9.2465 l -3.06878,7.24517 c -3.81484,9.00651 -3.9319,20.76996 -0.29394,29.53801 1.52617,3.67831 4.68901,11.45294 7.02852,17.27694 l 4.25367,10.5891 H 250 232.83403 Z m -28.8788,-43.54098 c -0.0241,-8.83873 1.91166,-11.46463 7.47381,-10.13811 2.80239,0.66834 2.60775,1.52706 -2.18734,9.65074 l -5.26345,8.91714 -0.0231,-8.42977 z"
       id="path1236" />
    <path
       style="fill:#fbb206;stroke:#fbb206;stroke-width:5.84216;stroke-miterlimit:4;stroke-dasharray:none;stroke-opacity:1;fill-opacity:1"
       d="m 53.682046,408.61692 c -19.44332,1.58304 -29.98016,5.56828 -24.25492,9.1737 1.00936,0.63563 17.26032,5.82307 36.11327,11.52764 18.85295,5.70458 59.542924,18.02011 90.422184,27.36785 30.87929,9.34774 58.55631,17.44445 61.5045,17.99272 17.06486,3.17346 47.72584,3.17346 64.82924,0 2.95487,-0.54827 24.92158,-6.91585 48.81497,-14.15016 23.89338,-7.23436 47.40752,-14.35045 52.25367,-15.81357 88.36383,-26.67838 88.7812,-26.81462 88.80379,-28.98715 0.0294,-2.83269 -11.2298,-5.90037 -26.09952,-7.11103 l -8.54658,-0.69584 H 249.87564 62.228626 Z m 388.765504,2.95347 c 9.09678,1.21327 12.81169,2.42609 12.81917,4.18517 0.007,1.42475 -3.71514,2.61116 -91.31912,29.11469 -50.40496,15.24943 -93.32876,27.91693 -95.7964,28.27106 -10.37649,1.48914 -27.9653,1.41309 -37.38112,-0.16164 -2.55063,-0.42657 -21.31155,-5.83001 -41.69095,-12.00764 -20.37939,-6.17764 -61.25163,-18.54482 -90.827184,-27.48264 -50.28365,-15.19586 -53.77372,-16.34307 -53.77372,-17.67562 0,-0.78378 1.0732,-1.78423 2.38487,-2.22322 3.24728,-1.08682 10.92401,-2.28492 17.05604,-2.66191 3.45814,-0.21261 63.465524,-0.29487 188.624354,-0.25857 l 183.55279,0.0532 z"
       id="path1208" />
  </g>
</svg>
