<?xml version="1.0" encoding="UTF-8" standalone="no"?>
<!-- Created with Inkscape (http://www.inkscape.org/) -->

<svg
   version="1.1"
   id="svg9"
   width="250"
   height="250"
   viewBox="0 0 250 250"
   sodipodi:docname="Logo_Nacer_Portfolio.svg"
   inkscape:version="1.1.2 (b8e25be833, 2022-02-05)"
   xmlns:inkscape="http://www.inkscape.org/namespaces/inkscape"
   xmlns:sodipodi="http://sodipodi.sourceforge.net/DTD/sodipodi-0.dtd"
   xmlns:xlink="http://www.w3.org/1999/xlink"
   xmlns="http://www.w3.org/2000/svg"
   xmlns:svg="http://www.w3.org/2000/svg">
  <defs
     id="defs13">
    <linearGradient
       inkscape:collect="always"
       id="linearGradient1922">
      <stop
         style="stop-color:#8b8db5;stop-opacity:1"
         offset="0"
         id="stop1918" />
      <stop
         style="stop-color:#393e5f;stop-opacity:1"
         offset="1"
         id="stop1920" />
    </linearGradient>
    <linearGradient
       inkscape:collect="always"
       xlink:href="#linearGradient1922"
       id="linearGradient1924"
       x1="23.274382"
       y1="125.355"
       x2="149.46642"
       y2="124.84151"
       gradientUnits="userSpaceOnUse" />
  </defs>
  <sodipodi:namedview
     id="namedview11"
     pagecolor="#505050"
     bordercolor="#eeeeee"
     borderopacity="1"
     inkscape:pageshadow="0"
     inkscape:pageopacity="0"
     inkscape:pagecheckerboard="0"
     showgrid="false"
     width="250px"
     inkscape:zoom="2.4490446"
     inkscape:cx="168.43303"
     inkscape:cy="130.86736"
     inkscape:window-width="1920"
     inkscape:window-height="991"
     inkscape:window-x="-9"
     inkscape:window-y="-9"
     inkscape:window-maximized="1"
     inkscape:current-layer="g15" />
  <g
     inkscape:groupmode="layer"
     inkscape:label="Image"
     id="g15">
    <path
       style="fill:url(#linearGradient1924);stroke-width:0.653381;fill-opacity:1;opacity:1"
       d="m 26.363167,224.83659 c -0.213664,-0.4031 -1.279295,-18.27582 -1.334789,-22.38704 -0.12618,-9.34776 0.183393,-18.98771 0.631988,-19.67978 0.254569,-0.39274 1.111675,-1.05591 1.904681,-1.47371 0.793005,-0.41781 4.590349,-3.2757 8.438542,-6.35088 8.684796,-6.94022 11.211593,-8.28337 16.571221,-8.80863 4.310934,-0.42248 6.843715,-0.9982 20.246898,-4.60221 12.244892,-3.29255 11.694829,-2.98387 15.071176,-8.45744 1.655327,-2.68355 3.736029,-6.20278 4.623771,-7.82053 0.887748,-1.61775 2.289872,-3.2355 3.115834,-3.595 1.474647,-0.64184 1.495913,-0.79521 1.178271,-8.49727 -0.177911,-4.314 -0.51589,-8.30513 -0.751068,-8.86917 -0.235177,-0.56404 -1.713991,-1.651 -3.286248,-2.41546 -3.353095,-1.63033 -6.344097,-5.66656 -7.379674,-9.95855 -2.412372,-9.99817 -2.414044,-10.03296 -0.662184,-13.808828 0.89633,-1.931894 2.213018,-4.168468 2.925977,-4.970153 1.133565,-1.274636 1.346719,-2.751626 1.697937,-11.765454 0.413083,-10.601453 1.394306,-16.674574 3.683322,-22.797299 5.082383,-13.594513 10.255868,-18.800363 27.937188,-28.111971 7.94299,-4.183061 13.12359,-5.445692 22.43146,-5.467068 4.0569,-0.0093 7.04871,0.42117 10.8587,1.562442 7.02226,2.103502 8.47099,2.926184 12.8233,7.281888 4.69406,4.69774 5.11974,6.113285 7.65578,25.458717 1.48943,11.361638 1.71413,15.955209 1.06045,21.678197 -0.36277,3.17599 -0.69863,12.245528 -0.74635,20.154529 -0.096,15.90842 -0.44915,18.06198 -4.70938,28.71842 -2.41749,6.04703 -6.88506,13.5004 -12.69891,21.18591 -2.45823,3.24961 -3.21346,4.76013 -2.99066,5.98157 0.53778,2.94819 3.08709,14.68283 3.42571,15.76878 0.18213,0.58407 1.70184,1.58583 3.37715,2.22614 1.6753,0.64031 4.23886,2.26219 5.69681,3.60418 2.91828,2.68618 6.27814,3.88351 10.91331,3.88907 1.85945,0.002 4.39249,0.63492 6.53125,1.63135 1.92158,0.89524 3.96769,1.63058 4.54693,1.63409 0.57924,0.003 2.07389,0.81526 3.32145,1.80389 1.24756,0.98862 4.97074,3.39516 8.27374,5.34785 3.30301,1.95269 7.09868,4.60985 8.43482,5.90481 3.23447,3.13475 8.33075,9.73194 9.37823,12.14022 0.46302,1.06454 2.10148,3.80808 3.64103,6.09675 1.68845,2.51003 2.79917,4.90916 2.79917,6.04614 0,2.39773 -1.65652,2.52789 -2.24622,0.1765 -0.23564,-0.93962 -1.73704,-3.62105 -3.33643,-5.95873 -1.59939,-2.33767 -2.90798,-4.63783 -2.90798,-5.11148 0,-0.47364 -1.39606,-2.63961 -3.10235,-4.81326 -1.70629,-2.17366 -3.58905,-4.63844 -4.18392,-5.47729 -1.11902,-1.57799 -4.18546,-3.73904 -13.49755,-9.51229 l -5.43536,-3.36979 0.43191,3.75903 c 0.23755,2.06747 0.71891,4.89174 1.06968,6.27615 0.35079,1.38442 0.49979,2.65523 0.33112,2.82403 -0.3199,0.32015 -2.01389,-6.63035 -2.76019,-11.32515 -0.32515,-2.04542 -0.77632,-2.79524 -1.82771,-3.03756 -0.76778,-0.17695 -3.0786,-0.94025 -5.13514,-1.69622 -2.05653,-0.75597 -5.07851,-1.37448 -6.71551,-1.37448 -3.77587,0 -6.99346,-1.34512 -10.24081,-4.2812 -2.46826,-2.23167 -5.62694,-3.90959 -6.22779,-3.30827 -0.15978,0.15991 0.29869,3.3301 1.01882,7.04488 3.58986,18.51803 3.51829,18.00443 2.71755,19.50179 l -0.76903,1.43807 -1.96617,-1.86377 c -1.0814,-1.02508 -2.84688,-3.13452 -3.9233,-4.68767 -2.12286,-3.06304 -2.90938,-3.28235 -1.85937,-0.51845 0.85288,2.24499 1.86783,8.6441 2.63658,16.62314 0.33534,3.48056 0.79209,7.35777 1.01502,8.61602 0.27509,1.55272 0.2032,2.00146 -0.22375,1.39672 -0.53109,-0.75225 -0.68419,-0.75225 -0.98311,0 -0.19474,0.49005 -0.425,-0.28554 -0.5117,-1.72354 -0.0867,-1.438 -0.22462,-3.79109 -0.30648,-5.22909 -0.50611,-8.89062 -1.08156,-14.12488 -1.86835,-16.99454 -1.93006,-7.03954 -5.18033,-12.67567 -7.33439,-12.71824 -2.24557,-0.0444 -2.36773,1.78637 -0.29544,4.42759 1.03909,1.32435 2.10371,3.14326 2.36582,4.04201 0.26212,0.89875 1.0311,2.73408 1.70886,4.0785 1.85506,3.67974 6.03372,24.6815 4.91081,24.6815 -0.173,0 -0.65006,-2.13249 -1.06014,-4.73886 -1.3918,-8.84615 -3.28435,-16.25965 -4.85063,-19.00095 -0.85868,-1.50285 -1.93117,-3.89799 -2.38331,-5.32253 -0.45213,-1.42454 -1.60288,-3.66881 -2.55722,-4.98726 -1.62829,-2.24955 -1.84951,-2.35041 -3.59191,-1.63765 -2.65664,1.08675 -6.42895,0.5609 -5.94873,-0.82924 0.25778,-0.74621 0.0578,-0.67406 -0.66428,0.23967 -1.6675,2.11005 -0.94036,7.52686 1.40627,10.47599 3.61709,4.54578 3.99912,5.49152 4.42357,10.95059 0.22975,2.95488 0.82608,7.505 1.32519,10.11138 0.49911,2.60637 0.67825,4.73886 0.39808,4.73886 -0.63666,0 -2.58083,-10.41978 -2.68308,-14.38 -0.0418,-1.61775 -0.325,-3.82377 -0.62939,-4.90227 -0.36184,-1.28205 -0.44742,0.0114 -0.2472,3.73597 0.2695,5.01342 0.66728,7.82961 2.01124,14.23903 0.22013,1.04987 0.11965,1.4004 -0.28106,0.98045 -0.76589,-0.80265 -2.51058,-10.63083 -3.10213,-17.47488 -0.37515,-4.34045 -0.73828,-5.45024 -2.56647,-7.84364 -1.17122,-1.53331 -2.40383,-3.64962 -2.73914,-4.70291 l -0.60964,-1.91507 -2.85091,4.06742 -2.85091,4.06742 -12.78495,-12.61389 c -15.2808,-15.07636 -26.858302,-26.21146 -27.941903,-26.87418 -0.774561,-0.47372 -9.102056,1.36701 -14.233699,3.14625 -1.436877,0.49819 -3.78813,1.08641 -5.225006,1.30715 -1.436877,0.22075 -3.559972,0.70101 -4.71799,1.06727 l -2.105487,0.66592 4.71799,3.80962 c 4.874194,3.93574 8.560917,7.58214 7.217338,7.13842 -0.421454,-0.13919 -2.125391,-1.53246 -3.786527,-3.09615 -1.661135,-1.56369 -4.505339,-3.84324 -6.320453,-5.06568 -2.763787,-1.86135 -3.887035,-2.22261 -6.910545,-2.22261 -4.484508,0 -7.698836,1.74404 -16.705739,9.06426 -3.522825,2.86312 -6.961304,5.59811 -7.641063,6.07775 -1.116665,0.78793 -1.253357,1.94431 -1.416573,11.9839 -0.177766,10.93455 0.369606,24.41731 1.134426,27.94295 0.327511,1.50974 0.172514,1.7975 -0.968212,1.7975 -0.74698,0 -1.397122,-0.0735 -1.44476,-0.16341 z M 161.90237,203.15372 c -0.19611,-0.51146 -0.83169,-1.11238 -1.41241,-1.3354 -0.86743,-0.33312 -0.84035,-0.16717 0.15172,0.92992 1.42264,1.57322 1.74865,1.67808 1.26069,0.40548 z m -3.32223,-16.88167 c -1.57689,-7.63938 -3.41337,-16.68407 -4.08104,-20.09932 -0.67858,-3.47099 -1.24241,-5.26341 -1.27845,-4.06423 -0.0355,1.17992 -0.46882,3.11378 -0.96301,4.29747 -1.06766,2.55728 -5.09802,8.42355 -7.75506,11.28764 l -1.89544,2.04315 1.68696,-0.32274 c 2.22669,-0.42599 4.5756,2.15427 11.54098,12.67768 2.93787,4.43856 5.40245,8.07012 5.47686,8.07012 0.0744,0 -1.1549,-6.2504 -2.7318,-13.88977 z m -28.48698,5.55591 c 2.43766,-3.50513 5.96561,-8.18677 7.8399,-10.40367 l 3.40779,-4.0307 -2.74626,-2.22694 c -3.19211,-2.5885 -17.75007,-12.90394 -26.25878,-18.60638 -3.23297,-2.16671 -8.27362,-5.86224 -11.20144,-8.21229 l -5.32331,-4.27282 -4.061188,6.80948 c -2.233657,3.74522 -4.320244,6.96971 -4.636859,7.16555 -1.614945,0.99887 0.119058,3.33371 7.751688,10.43765 4.580044,4.2628 13.323769,12.6898 19.430489,18.72668 6.10673,6.03687 11.16225,10.97844 11.2345,10.98127 0.0723,0.003 2.12581,-2.86271 4.56347,-6.36783 z m 25.73078,3.26818 c -0.3541,-0.62913 -1.40943,-2.02628 -2.34518,-3.10478 -1.59709,-1.84073 -1.63565,-1.85251 -0.62912,-0.19215 0.58974,0.97282 0.85455,2.12128 0.58848,2.55213 -0.28728,0.46519 -0.20756,0.61253 0.19626,0.36276 0.37402,-0.23134 1.04323,0.0173 1.48714,0.55264 1.09744,1.32337 1.48967,1.22811 0.70242,-0.1706 z m -13.2446,-7.41342 c 2.39664,-0.80999 4.04557,-1.74244 4.04557,-2.28772 0,-0.50625 0.29391,-0.92045 0.65313,-0.92045 0.35922,0 0.65313,-0.29414 0.65313,-0.65364 0,-0.79821 -2.39706,-3.26818 -3.17171,-3.26818 -1.14152,0 -6.33863,4.48794 -7.47851,6.45802 -1.14327,1.97595 -1.14214,2.03925 0.0364,2.03925 0.669,0 3.03686,-0.61527 5.26193,-1.36728 z m 7.94432,-0.92045 c 0,-0.3595 -0.2849,-0.21243 -0.63312,0.32682 -0.34822,0.53925 -0.63312,1.27459 -0.63312,1.63409 0,0.3595 0.2849,0.21243 0.63312,-0.32682 0.34822,-0.53925 0.63312,-1.27459 0.63312,-1.63409 z m -5.44034,-12.26014 c 0.76861,-1.16592 1.5779,-3.14933 1.79841,-4.40758 0.22052,-1.25825 1.57552,-4.61 3.01113,-7.44833 1.4356,-2.83833 2.61019,-5.7255 2.61019,-6.41593 0,-1.73326 0.58582,-2.70625 5.85919,-9.73151 5.33961,-7.1135 9.08914,-14.02209 11.96252,-22.04122 l 2.0329,-5.67346 0.0442,-15.03364 0.0442,-15.033632 -1.99309,-2.188721 c -2.35485,-2.585984 -5.31193,-3.133572 -13.01882,-2.410812 -5.68924,0.533543 -6.36132,1.183074 -6.43726,6.221381 -0.0366,2.428494 0.66239,4.484148 3.41308,10.037474 3.3435,6.75013 3.4235,7.03792 2.3939,8.61052 -1.10072,1.68124 -4.60972,2.33331 -5.0729,0.94268 -0.14728,-0.44219 -1.08341,-0.32656 -2.64595,0.32682 -2.61282,1.09256 -5.72562,1.34613 -5.72562,0.46641 0,-0.29958 0.87885,-0.5447 1.953,-0.5447 1.07414,0 3.02157,-0.7609 4.32763,-1.6909 2.57413,-1.83295 4.47036,-1.71031 3.95659,0.2559 -0.36356,1.39131 0.242,1.58007 1.38842,0.43276 1.13084,-1.13172 0.96804,-2.86565 -0.52791,-5.6225 -1.79774,-3.31299 -4.37685,-9.277148 -4.88089,-11.286969 -0.80699,-3.217858 3.20699,-11.579634 5.74392,-11.965477 0.42636,-0.06485 1.14473,-0.348921 1.59639,-0.631281 0.45165,-0.28236 2.68285,-0.56515 4.95823,-0.628423 3.61827,-0.100615 4.43676,0.113742 6.52716,1.709415 1.31456,1.00345 2.89194,2.765194 3.50529,3.914984 l 1.11506,2.09053 0.48493,-3.595 c 0.9309,-6.901112 -2.08318,-21.549285 -5.18101,-25.179305 -3.08045,-3.609635 -12.50015,-8.76499 -17.45598,-9.553572 -2.15531,-0.342958 -5.33596,-1.359283 -7.06811,-2.2585 -4.86341,-2.524775 -9.26693,-3.08655 -17.66362,-2.253423 -9.83595,0.975932 -14.06114,1.946117 -14.84304,3.408246 -0.35113,0.656607 -1.28936,1.22795 -2.08497,1.269652 -1.10535,0.05794 -1.17696,0.146332 -0.30359,0.374746 1.41216,0.369324 1.45312,1.429964 0.12831,3.322869 -1.76896,2.527529 -2.90409,8.493262 -2.90409,15.262688 0,6.382611 -0.068,6.682477 -2.61251,11.51582 -2.11174,4.011352 -2.6125,5.638063 -2.6125,8.486693 0,4.167735 -1.218971,12.703727 -1.920147,13.446017 -0.270453,0.28631 -1.003319,-0.82006 -1.628595,-2.4586 -2.000505,-5.242346 -5.309932,-5.779662 -7.939547,-1.289056 -1.531716,2.615715 -1.70629,3.483376 -1.419732,7.056116 0.179708,2.24053 0.813828,5.01633 1.409152,6.16846 0.651604,1.26105 0.802522,2.09478 0.379178,2.09478 -1.220365,0 -2.59556,-4.38681 -2.605945,-8.31287 -0.0072,-2.74628 -0.189152,-3.51139 -0.665372,-2.79894 -0.785305,1.17485 -0.258233,6.35403 1.072988,10.54342 1.303606,4.10249 4.557132,7.74334 7.439892,8.32557 3.224449,0.65123 3.836839,2.91255 3.881892,14.33426 0.03644,9.23776 0.05669,9.36395 1.759476,10.94324 2.75574,2.55593 13.04673,10.18 20.48366,15.17531 3.7718,2.53348 10.23775,7.12294 14.36877,10.1988 4.13102,3.07586 7.6579,5.60286 7.83751,5.61556 0.17961,0.0127 0.95542,-0.93085 1.72403,-2.09677 z m -3.03029,-15.08414 c 1.25727,-0.48713 3.16766,-1.07941 4.24532,-1.31619 l 1.95938,-0.43051 -1.64609,0.92476 c -0.90535,0.50862 -2.81575,1.1009 -4.24532,1.31618 l -2.59923,0.39143 z m -7.51094,-7.89261 c -3.54615,-0.87938 -8.46613,-3.21082 -9.16547,-4.34326 -0.24029,-0.38911 1.09876,0.0713 2.97568,1.02317 1.87692,0.95185 5.50035,2.16629 8.05207,2.69875 2.55172,0.53247 4.76858,1.09732 4.92637,1.25522 0.55164,0.55208 -3.55098,0.169 -6.78865,-0.63388 z m -26.88836,-13.2956 c -3.25335,-4.97752 -6.14161,-11.54666 -6.04588,-13.75088 0.0267,-0.61564 0.74134,0.86355 1.58801,3.28709 0.84667,2.42354 3.16946,6.90912 5.16175,9.96795 1.99228,3.05884 3.39391,5.56152 3.11471,5.56152 -0.27919,0 -1.99756,-2.27956 -3.81859,-5.06568 z m 35.17299,-8.0224 c -5.37314,-0.78301 -4.67388,-1.13425 2.08213,-1.04587 5.20913,0.0682 5.95325,0.20484 4.76144,0.87465 -1.57113,0.883 -1.90227,0.89128 -6.84357,0.17122 z m 9.34976,-1.94556 c 0.25154,-0.4073 -1.02619,-0.65174 -3.39036,-0.64861 -4.1367,0.005 -16.51279,-2.19675 -20.92788,-3.72396 -2.97841,-1.03025 -5.96345,-3.11931 -5.3453,-3.74086 0.20913,-0.21029 1.82562,-0.68337 3.59219,-1.05129 7.5495,-1.57232 12.18668,-1.89815 18.40214,-1.29303 3.49963,0.34072 6.58996,0.62707 6.8674,0.63635 1.18669,0.0397 6.35338,5.52516 6.35338,6.74541 0,0.73313 -0.18323,1.14959 -0.40717,0.92547 -0.22394,-0.22412 -1.35384,0.31513 -2.51087,1.19834 -2.18403,1.66714 -3.3312,2.08192 -2.63353,0.95218 z m -5.55157,-3.94233 c 0,-1.2138 -0.40507,-2.13699 -1.0456,-2.38297 -1.22191,-0.46926 -2.19583,0.80595 -2.21002,2.89371 -0.008,1.13564 0.36198,1.47069 1.62281,1.47069 1.38258,0 1.63281,-0.30366 1.63281,-1.98143 z m 2.84151,0.52202 c 0.20973,-0.80268 0.10196,-1.73901 -0.23951,-2.08075 -0.77333,-0.77394 -1.00135,-0.5164 -1.54287,1.74266 -0.53726,2.24126 1.19901,2.57061 1.78238,0.33809 z m -6.76026,-1.08521 c 0,-1.83607 -0.94575,-2.68448 -2.99248,-2.68448 -0.58167,0 -0.92627,0.689 -0.92627,1.85197 0,2.24962 0.41668,2.72349 2.39479,2.72349 1.24535,0 1.52396,-0.34571 1.52396,-1.89098 z m -5.22501,-0.72357 c 0,-1.52515 -0.29027,-1.96091 -1.30625,-1.96091 -2.36398,0 -1.6013,3.61552 0.81641,3.87022 0.26941,0.0284 0.48984,-0.83081 0.48984,-1.90931 z m 18.23055,0.16341 c -1.59503,-2.52993 -3.89092,-3.51501 -9.59151,-4.11536 -8.09186,-0.85217 -12.44591,-0.74942 -15.82342,0.37344 l -2.93906,0.97709 5.87813,-0.32841 c 7.19191,-0.40181 16.34281,0.91052 19.36477,2.7771 2.83594,1.75169 4.09694,1.87983 3.11109,0.31614 z m -22.1493,-0.49022 c 0,-0.53925 -0.44086,-0.98046 -0.97969,-0.98046 -1.0199,0 -1.29578,0.77306 -0.54427,1.52515 0.75151,0.7521 1.52396,0.476 1.52396,-0.54469 z m -2.6125,-0.32682 c 0,-0.3595 -0.31126,-0.65364 -0.69168,-0.65364 -0.38042,0 -0.51002,0.29414 -0.28801,0.65364 0.22201,0.3595 0.53326,0.65363 0.69167,0.65363 0.15841,0 0.28802,-0.29413 0.28802,-0.65363 z m 28.10517,6.45277 c -0.0114,-0.22572 0.40613,-1.4329 0.92789,-2.68262 0.85543,-2.04893 0.82536,-2.67975 -0.3059,-6.41899 -1.24255,-4.10708 -1.31132,-5.76797 -0.14296,-3.45328 1.18676,2.35116 2.26153,7.3806 1.89197,8.85354 -0.36545,1.45651 -2.32943,4.52249 -2.371,3.70135 z m -39.18117,-7.10641 c -0.28669,-2.57531 -0.0225,-3.45976 1.65992,-5.55591 0.8656,-1.0785 3.17905,-4.19421 5.14099,-6.9238 1.96194,-2.72959 4.08236,-5.37681 4.71202,-5.88272 1.38896,-1.11598 -0.22407,1.29331 -6.38594,9.53834 -2.94993,3.94722 -4.48668,6.63542 -4.67075,8.17045 -0.21237,1.77095 -0.31542,1.9186 -0.45624,0.65364 z m -20.47138,-5.969 c -0.619111,-2.6488 -1.092869,-5.84548 -1.052799,-7.10373 0.04389,-1.37815 0.566018,0.31106 1.313253,4.24864 1.484356,7.82194 1.320446,9.61882 -0.260454,2.85509 z m -4.047975,-2.52827 c 0.22201,-0.3595 0.08765,-0.65364 -0.298583,-0.65364 -0.386233,0 -1.177945,-0.99834 -1.759358,-2.21853 -0.859813,-1.80446 -0.918242,-2.61721 -0.313049,-4.35462 0.885044,-2.54083 0.448893,-3.3083 -0.880616,-1.54959 -0.993927,1.3148 -1.290048,2.82283 -1.061225,5.40443 0.0746,0.84168 -0.138116,1.361 -0.472713,1.15405 -1.392033,-0.861 -1.220888,-3.22033 0.478121,-6.59128 1.284679,-2.54887 1.613423,-3.84851 1.172792,-4.636485 -0.446588,-0.798639 -0.382595,-1.018268 0.23651,-0.811738 1.293202,0.431406 2.481858,4.526463 1.826622,6.292913 -0.908504,2.44921 -0.650859,4.4126 0.744936,5.67676 1.400021,1.26799 1.749658,2.94136 0.614578,2.94136 -0.380419,0 -0.510026,-0.29413 -0.288015,-0.65363 z m 38.544825,-6.10192 c -1.84698,-2.82105 0.0551,-6.07143 4.23491,-7.236863 1.56803,-0.437204 1.58251,-0.415026 0.36501,0.559033 -0.69729,0.55786 -1.60282,1.0143 -2.01229,1.0143 -1.29798,0 -2.62879,3.20784 -1.84805,4.45459 0.8516,1.35989 3.6054,1.90164 3.34788,0.65862 -0.12744,-0.61518 0.66613,-0.86458 2.75101,-0.86458 2.27347,0 2.97954,0.25684 3.15066,1.14607 0.18944,0.98445 -0.0225,1.05358 -1.50311,0.49022 -2.32979,-0.88647 -3.63186,-0.82536 -3.4347,0.16121 0.0972,0.48645 -0.67934,0.89871 -1.91917,1.01887 -1.61822,0.15683 -2.31646,-0.1556 -3.13215,-1.40147 z m 28.40056,-10.689004 c -4.55478,-1.340124 -6.60171,-2.374464 -5.78557,-2.923506 0.56511,-0.380161 -0.002,-0.442956 -1.56209,-0.172985 -1.66831,0.288685 -2.44922,0.181581 -2.44922,-0.335923 0,-0.41785 1.10215,-1.226222 2.44922,-1.796382 3.13401,-1.32649 8.43148,-0.373782 11.67081,2.098905 2.65109,2.023671 2.93965,1.239137 0.41201,-1.120209 -3.60044,-3.36073 -7.07381,-4.010647 -11.51322,-2.154294 -2.8441,1.189272 -3.14077,0.752734 -0.43876,-0.645622 2.63409,-1.363205 6.77031,-1.251786 9.73576,0.262258 3.05002,1.557223 4.12669,2.813669 4.38866,5.12145 0.19472,1.715279 0.076,1.792931 -2.86238,1.872034 -1.68604,0.04536 -3.50639,-0.04719 -4.04522,-0.205726 z m -1.46953,-3.268737 c -0.62863,-0.164402 -1.65731,-0.164402 -2.28594,0 -0.62863,0.164409 -0.1143,0.298928 1.14297,0.298928 1.25727,0 1.7716,-0.134519 1.14297,-0.298928 z m -35.05108,-1.092037 c 0.14967,-0.129433 2.18253,-0.404444 4.51745,-0.611143 2.62823,-0.232662 3.74775,-0.16052 2.93907,0.189391 -1.23793,0.535642 -8.03264,0.919961 -7.45652,0.421752 z m -1.42445,-2.007271 c -0.15482,-0.154938 -2.26429,-0.392848 -4.68773,-0.528687 -2.42343,-0.135839 -4.44812,-0.523811 -4.49929,-0.862166 -0.0512,-0.338348 1.61021,-1.628907 3.69199,-2.867914 6.35213,-3.780586 13.89474,-3.410531 16.07809,0.788821 l 0.76113,1.463917 -1.55817,-1.389004 c -4.11662,-3.669668 -7.65869,-3.798599 -14.00501,-0.509777 -2.49394,1.292422 -3.79967,2.147888 -2.90162,1.901029 0.89805,-0.246852 3.09292,-0.863081 4.87749,-1.369401 1.78458,-0.506313 4.27857,-0.920574 5.5422,-0.920574 2.83365,0 9.59463,3.251272 8.37363,4.026772 -0.85133,0.540707 -11.16352,0.776565 -11.67271,0.266984 z m 4.63565,-1.679211 c 0,-0.3595 -0.88172,-0.653637 -1.95938,-0.653637 -1.07765,0 -1.95937,0.294137 -1.95937,0.653637 0,0.3595 0.88172,0.653636 1.95937,0.653636 1.07766,0 1.95938,-0.294136 1.95938,-0.653636 z m 3.26563,0 c -1.26626,-0.818954 -1.95938,-0.818954 -1.95938,0 0,0.3595 0.66129,0.649133 1.46953,0.643629 1.18833,-0.0081 1.28206,-0.131263 0.48985,-0.643629 z m -19.59377,-6.38385 c 0,-0.400949 0.2987,-0.91375 0.66378,-1.139557 0.36507,-0.225808 0.50652,-0.665199 0.31433,-0.976426 -0.46133,-0.747031 3.21844,-3.518002 6.87797,-5.179294 4.66065,-2.11577 11.39806,-1.720168 16.3812,0.961856 0.93745,0.504553 1.93948,0.704518 2.22672,0.444366 0.28726,-0.260152 0.32177,0.08334 0.0767,0.763313 -0.37604,1.043385 -0.29205,1.108799 0.53824,0.419183 0.82323,-0.683752 1.0922,-0.531817 1.64786,0.930799 0.85858,2.260016 -0.36396,5.087049 -1.54714,3.577637 -0.40304,-0.514165 -1.02564,-0.971454 -1.38356,-1.016198 -0.35792,-0.04475 -2.62261,-0.706552 -5.03265,-1.470682 -7.67592,-2.433744 -15.40664,-1.622395 -19.285,2.023988 -0.81315,0.764507 -1.47845,1.061964 -1.47845,0.661015 z m 22.21948,-4.703274 c -1.02451,-1.915814 -3.29738,-2.647423 -8.05652,-2.593298 -5.68706,0.06468 -7.67981,0.965464 -3.38639,1.530756 5.88506,0.774855 10.80786,1.86698 11.18766,2.481984 0.74891,1.212716 0.9789,-0.06623 0.25525,-1.419442 z m 1.68492,0.236761 c -0.23244,-0.606209 -0.56958,-0.95513 -0.74919,-0.77538 -0.17961,0.17975 -0.13638,0.822807 0.0961,1.429016 0.23244,0.606209 0.56958,0.95513 0.74919,0.77538 0.17961,-0.17975 0.13638,-0.822807 -0.0961,-1.429016 z m -14.59736,-0.694345 c -0.44903,-0.181327 -1.18379,-0.181327 -1.63282,0 -0.44902,0.181327 -0.0816,0.329685 0.81641,0.329685 0.89805,0 1.26543,-0.148358 0.81641,-0.329685 z M 99.534758,89.503643 c 0.05924,-4.639053 0.323278,-5.619767 2.944792,-10.93905 2.79214,-5.665481 2.87969,-6.031859 2.87969,-12.050389 0,-7.615697 0.53361,-10.980779 2.1856,-13.782868 1.0859,-1.841907 1.14667,-2.358229 0.41824,-3.553477 -0.74756,-1.226615 -0.67427,-1.544557 0.59643,-2.587626 1.92339,-1.578842 8.54997,-3.018965 18.14507,-3.94338 8.6802,-0.836272 11.92525,-0.424984 17.19327,2.179126 1.6795,0.830217 5.08817,1.870176 7.57484,2.311021 3.04752,0.540275 6.02794,1.669282 9.14376,3.463731 7.24435,4.172128 10.80963,8.042456 12.23141,13.277917 0.44091,1.623592 0.47459,1.511154 0.19579,-0.653636 -0.18519,-1.438 -0.60476,-4.967636 -0.93237,-7.843636 -0.817,-7.172184 -2.243,-11.488722 -4.98148,-15.079135 -1.67115,-2.191037 -1.91417,-2.757458 -0.86861,-2.024551 0.79843,0.559686 1.99529,1.842682 2.65967,2.851103 0.69673,1.057512 1.20876,1.41854 1.20983,0.853038 0.003,-1.841698 -2.50517,-5.09766 -6.47537,-8.404279 -4.46886,-3.721928 -10.95619,-6.15298 -18.33666,-6.871447 -6.08497,-0.592354 -16.78862,1.523566 -20.82725,4.117181 -1.66533,1.069473 -4.19989,2.433966 -5.63236,3.032207 -3.93705,1.64423 -10.64311,6.182078 -14.88178,10.070175 -8.046191,7.38072 -12.790262,22.425596 -12.847874,40.744509 -0.01365,4.342323 0.202593,6.273747 0.670081,5.984598 0.379629,-0.234806 1.3544,-0.260102 2.166137,-0.05621 1.465634,0.368141 2.29803,1.545471 3.753043,5.308265 l 0.758253,1.960909 0.496369,-1.63409 c 0.273007,-0.89875 0.525675,-3.92725 0.561479,-6.730003 z m -4.629237,3.059135 c -0.580524,-0.580978 -1.451748,-0.908665 -1.936054,-0.728196 -0.579799,0.216053 -0.322866,0.562689 0.752264,1.014888 2.261493,0.951191 2.389682,0.920143 1.18379,-0.286692 z M 164.00991,82.180465 c 4.14878,0 4.50984,-0.09745 3.35541,-0.905627 -1.84817,-1.293848 -6.7895,-1.737573 -8.01497,-0.719733 -0.55041,0.457156 -1.18702,0.644762 -1.41471,0.416902 -0.59298,-0.593447 -2.22679,0.9096 -1.77824,1.635925 0.20759,0.336153 1.00444,0.375952 1.7889,0.08935 0.77801,-0.284248 3.50663,-0.516815 6.06361,-0.516815 z M 69.333409,223.03909 c -0.636587,-1.0785 -1.013875,-1.96091 -0.838418,-1.96091 0.175458,0 0.946854,0.88241 1.714214,1.96091 0.76736,1.0785 1.144648,1.96091 0.838418,1.96091 -0.306229,0 -1.077626,-0.88241 -1.714214,-1.96091 z m 5.246949,-3.99572 c -2.086104,-3.27347 -3.664848,-6.07993 -3.50832,-6.23658 0.156528,-0.15665 1.881993,2.15507 3.834366,5.13715 4.593847,7.01671 4.61638,7.05649 3.995264,7.05362 -0.290615,-0.001 -2.235205,-2.68073 -4.32131,-5.95419 z m 8.317251,3.27342 c -2.375308,-3.43025 -8.873733,-9.32619 -11.82287,-10.72674 -1.252827,-0.59497 -2.115804,-1.24396 -1.917724,-1.44219 0.198078,-0.19823 2.205817,0.84337 4.461639,2.31466 3.991417,2.60329 7.978536,6.34149 10.851975,10.17449 1.673733,2.23265 1.710824,1.90163 0.455921,-4.06862 -0.823278,-3.9168 -1.714109,-5.6426 -6.348212,-12.29841 -2.964796,-4.25824 -8.14151,-10.92978 -11.503807,-14.82565 -3.362296,-3.89587 -6.012806,-7.18394 -5.890022,-7.30682 0.439119,-0.43946 12.031945,12.98045 15.549749,18.00047 1.972295,2.81452 3.689911,5.01331 3.816931,4.88619 0.351989,-0.35226 -7.924736,-16.97793 -11.313833,-22.72637 -1.646935,-2.79346 -4.255933,-6.39663 -5.797775,-8.00705 -3.522366,-3.67902 -2.821356,-3.87543 0.821154,-0.23007 6.719432,6.72468 19.924237,33.23439 21.853988,43.87364 0.85856,4.73344 0.844119,5.06568 -0.220142,5.06568 -0.626426,0 -1.975066,-1.20744 -2.996972,-2.68321 z m 4.411648,-7.97415 c -1.861428,-5.86154 -3.365067,-11.52367 -3.34143,-12.5825 0.03364,-1.50552 0.240749,-1.1908 0.950311,1.44392 0.788545,2.92797 5.804276,18.69676 6.672966,20.97889 0.171053,0.44938 0.03912,0.81705 -0.293221,0.81705 -0.332317,0 -2.127204,-4.79581 -3.988626,-10.65736 z m 111.318393,9.84031 c -0.60786,-2.40709 -5.00171,-20.85084 -5.56181,-23.3464 -0.36048,-1.60615 -0.5428,-3.03299 -0.40514,-3.17075 0.26876,-0.26897 0.47686,0.47972 3.59625,12.93818 1.12296,4.48494 2.1714,8.2842 2.32988,8.4428 0.15848,0.1586 0.32291,-0.86367 0.36541,-2.2717 0.0753,-2.49582 0.0898,-2.51086 0.57586,-0.59917 0.76124,2.99397 0.7477,8.82409 -0.0205,8.82409 -0.3705,0 -0.76648,-0.36767 -0.87996,-0.81705 z m 7.19348,-1.47068 c 0.73935,-4.37591 1.57899,-6.2856 1.14954,-2.61454 -0.21027,1.7975 -0.65433,3.70938 -0.9868,4.24863 -0.39377,0.63866 -0.4505,0.069 -0.16274,-1.63409 z m 4.01056,-1.14386 c 1.03465,-1.88738 2.65822,-5.34348 3.60792,-7.68023 0.9497,-2.33675 1.735,-3.75828 1.74512,-3.15896 0.0338,2.00207 -5.68583,14.27078 -6.65297,14.27078 -0.3197,0 0.26527,-1.54422 1.29993,-3.43159 z M 94.112724,214.38463 c -3.514541,-9.71177 -8.123512,-21.14321 -10.346288,-25.66145 -2.836231,-5.76519 -9.564994,-16.40012 -12.456261,-19.68735 -2.71767,-3.08985 -2.431732,-4.03368 0.322827,-1.0656 4.900592,5.28048 13.327713,20.0052 17.582997,30.72281 2.717441,6.8443 7.841578,21.87911 7.554666,22.16624 -0.127131,0.12724 -1.323206,-2.78636 -2.657941,-6.47465 z m 49.643006,0.43054 c -1.10046,-2.86999 0.42132,-5.29952 2.83853,-4.53172 3.40294,1.08089 2.93914,5.56564 -0.57557,5.56564 -1.09952,0 -2.02943,-0.42486 -2.26296,-1.03392 z m 3.84887,-1.58958 c 0,-1.18864 -0.39548,-1.68134 -1.47245,-1.83439 -1.77687,-0.25251 -2.6221,1.43044 -1.43646,2.86015 1.2237,1.47563 2.90891,0.88137 2.90891,-1.02576 z m -0.7773,-8.81514 c 0.004,-2.157 0.12559,-2.9606 0.27095,-1.78579 0.14536,1.17481 0.14237,2.93963 -0.007,3.92182 -0.14903,0.98219 -0.26796,0.021 -0.26429,-2.13603 z"
       id="path451" />
  </g>
</svg>
