<?xml version="1.0" encoding="UTF-8" standalone="no"?>
<!-- Created with Inkscape (http://www.inkscape.org/) -->

<svg
   version="1.1"
   id="svg1479"
   width="500"
   height="500"
   viewBox="0 0 500 500"
   sodipodi:docname="Certification.svg"
   inkscape:version="1.1.2 (b8e25be833, 2022-02-05)"
   xmlns:inkscape="http://www.inkscape.org/namespaces/inkscape"
   xmlns:sodipodi="http://sodipodi.sourceforge.net/DTD/sodipodi-0.dtd"
   xmlns="http://www.w3.org/2000/svg"
   xmlns:svg="http://www.w3.org/2000/svg">
  <defs
     id="defs1483" />
  <sodipodi:namedview
     id="namedview1481"
     pagecolor="#505050"
     bordercolor="#eeeeee"
     borderopacity="1"
     inkscape:pageshadow="0"
     inkscape:pageopacity="0"
     inkscape:pagecheckerboard="0"
     showgrid="false"
     inkscape:zoom="1.2747604"
     inkscape:cx="312.60777"
     inkscape:cy="201.99874"
     inkscape:window-width="1920"
     inkscape:window-height="991"
     inkscape:window-x="-9"
     inkscape:window-y="-9"
     inkscape:window-maximized="1"
     inkscape:current-layer="g1485"
     width="500px" />
  <g
     inkscape:groupmode="layer"
     inkscape:label="Image"
     id="g1485">
    <g
       id="g2452">
      <path
         style="fill:#ffffff;stroke-width:0.67598"
         d="m 219.92142,379.65777 c -4.15566,-0.60649 -10.54831,-2.92509 -15.17985,-5.50568 l -3.53281,-1.96841 -6.88885,2.38437 c -8.31732,2.87881 -11.1717,2.98651 -17.96187,0.67772 -2.86595,-0.97449 -6.33188,-1.98962 -7.70206,-2.25586 -3.27317,-0.63599 -2.40129,-1.47517 3.21749,-3.09679 2.46651,-0.71186 6.23856,-1.98285 8.38232,-2.82443 3.42864,-1.34599 4.32361,-1.43804 7.43631,-0.76476 3.59744,0.77814 5.31616,0.58546 2.55631,-0.28658 -0.83306,-0.26322 -4.52127,-1.9047 -8.19604,-3.64772 l -6.68139,-3.16915 -8.20326,1.56869 c -9.30575,1.77952 -10.10236,1.66708 -17.46273,-2.46498 -2.83774,-1.59309 -5.282,-2.45942 -6.93899,-2.45942 -5.32972,0 -2.12482,-1.99964 7.85048,-4.89816 5.39266,-1.56695 8.20851,-1.75913 10.71802,-0.7315 0.91894,0.3763 1.67079,0.57939 1.67079,0.45134 0,-0.12806 -2.74338,-2.48308 -6.09641,-5.23338 l -6.0964,-5.00054 -7.09351,0.43148 c -11.23068,0.68313 -16.49237,-1.34117 -24.92667,-9.58992 l -2.85203,-2.78927 h 9.19574 c 7.61824,0 9.78356,0.24063 12.62233,1.40272 1.88463,0.7715 3.4785,1.40288 3.54193,1.40307 0.0634,2e-4 -2.0128,-2.28841 -4.61383,-5.08579 -2.60105,-2.79738 -5.31897,-6.00109 -6.03984,-7.11935 -1.22593,-1.90173 -1.89578,-2.14106 -10.35908,-3.7011 -4.97662,-0.91734 -10.22454,-2.28761 -11.66204,-3.04504 -1.43751,-0.75744 -4.92392,-4.08558 -7.74759,-7.39586 -6.103313,-7.15515 -6.005931,-8.06003 0.68902,-6.40234 2.44471,0.60532 5.61736,1.30139 7.05033,1.54683 3.64345,0.62405 7.47527,2.55396 10.21507,5.14487 1.28295,1.21323 2.47554,2.20588 2.6502,2.20588 0.45777,0 -8.38953,-14.34454 -9.4071,-15.25217 -0.46901,-0.41833 -3.14176,-1.73945 -5.93944,-2.93581 -12.143287,-5.1928 -16.231325,-8.87134 -20.49383,-18.441 -1.424321,-3.19771 -2.498281,-5.92582 -2.386576,-6.06246 0.111705,-0.13665 1.760251,0.55132 3.663435,1.52883 1.903184,0.9775 5.724808,2.77295 8.492498,3.98988 4.041234,1.7769 5.700253,2.99545 8.424883,6.18808 1.866,2.1865 3.2108,3.50193 2.98843,2.92316 -0.22236,-0.57877 -1.40871,-3.57784 -2.63633,-6.6646 -1.22762,-3.08677 -2.7191,-7.06394 -3.3144,-8.83815 -1.183041,-3.5259 -3.26906,-5.43037 -10.941911,-9.98965 -5.579398,-3.31532 -8.144371,-6.11064 -8.989385,-9.79669 -1.55501,-6.78313 -2.079463,-8.24873 -3.688929,-10.30884 -1.819184,-2.32854 -1.629422,-3.75099 0.257246,-1.9283 0.629124,0.60779 3.397856,2.27058 6.152738,3.69509 5.631393,2.91192 8.906089,6.05902 11.664177,11.20966 2.283165,4.26375 2.303388,3.89779 0.249939,-4.52295 -0.888897,-3.64515 -1.616174,-7.18268 -1.616174,-7.86118 0,-0.71752 -2.567565,-3.43517 -6.137189,-6.49593 -9.137746,-7.8351 -11.523658,-12.17809 -12.366687,-22.51063 L 75,199.75276 l 3.13019,3.21253 c 1.721603,1.7669 4.865212,4.76597 6.985795,6.66461 2.120583,1.89863 4.664594,4.82041 5.653359,6.49284 l 1.797755,3.04078 0.208826,-6.82391 c 0.233792,-7.63978 0.172055,-7.8029 -5.977593,-15.79353 -5.687917,-7.39067 -5.934227,-8.08473 -6.529918,-18.40022 -0.295022,-5.10885 -0.737237,-10.15064 -0.9827,-11.204 -0.820936,-3.52288 0.831955,-2.02103 5.196969,4.72204 4.961481,7.6645 7.459885,12.73135 7.980073,16.18387 0.473648,3.14361 1.499025,3.15278 1.499025,0.0134 0,-1.33147 0.305823,-3.95673 0.679609,-5.83391 0.811507,-4.07546 -0.282592,-7.39356 -4.909877,-14.89024 -1.581963,-2.56295 -3.182529,-5.52742 -3.556815,-6.58771 -0.982179,-2.78236 -0.836309,-9.1174 0.306331,-13.30385 1.611255,-5.90338 1.964673,-6.13892 4.531299,-3.01996 2.805619,3.40939 4.835425,9.7723 5.348873,16.76735 0.219493,2.99029 0.648745,5.43691 0.95389,5.43691 0.305147,-10e-6 0.554813,-0.61937 0.554813,-1.37636 0,-0.757 0.70683,-3.77366 1.570732,-6.7037 l 1.570734,-5.32736 -2.547764,-7.28184 c -2.821444,-8.06406 -3.133899,-11.63401 -1.566265,-17.8953 0.531322,-2.12215 1.157302,-6.46291 1.39107,-9.64614 0.233767,-3.18322 0.691029,-5.78767 1.016136,-5.78767 0.789573,0 3.214433,6.00696 5.382203,13.33304 1.78576,6.03506 1.81435,6.75032 0.63067,15.78074 -0.32302,2.46443 -0.10077,2.16544 1.82509,-2.45538 1.2061,-2.89383 2.86372,-7.20756 3.6836,-9.58605 l 1.49069,-4.32453 -1.75797,-5.48571 c -1.52855,-4.7698 -1.7236,-6.31116 -1.4946,-11.81082 0.23029,-5.53088 0.53687,-6.87569 2.44152,-10.709728 1.19798,-2.41153 2.54124,-4.3846 2.98501,-4.3846 0.44378,0 1.50179,1.97307 2.35113,4.3846 1.20853,3.431348 1.54442,5.757298 1.54497,10.698438 3.8e-4,3.47261 -0.22482,7.40988 -0.50044,8.74948 l -0.50114,2.43564 2.47716,-2.60523 c 1.36243,-1.43289 3.4601,-4.35206 4.66148,-6.48706 2.03283,-3.61255 2.201,-4.37938 2.42446,-11.054998 0.48481,-14.48272 3.21097,-21.67463 11.0293,-29.09649 2.12223,-2.01462 4.06803,-3.66741 4.32397,-3.67287 0.25597,-0.006 -0.13765,1.48961 -0.8747,3.32238 -0.81667,2.03075 -1.56338,6.04388 -1.91178,10.27467 -0.66248,8.04481 -1.44815,11.09705 -3.68745,14.32521 -3.00704,4.33488 -1.06021,2.97222 5.89349,-4.12512 5.71053,-5.82849 7.04893,-7.58846 7.60705,-10.00308 3.9172,-16.94749 8.07157,-25.5288 14.53833,-30.03048 2.15014,-1.49677 4.0126,-2.61019 4.13881,-2.47427 0.12621,0.13593 -0.48749,1.9526 -1.36379,4.03705 -0.87629,2.08444 -1.94455,6.47327 -2.37391,9.75296 -0.90565,6.91798 -1.68207,8.81526 -5.38861,13.16784 -3.64983,4.28597 -1.02775,2.73519 4.18844,-2.47718 2.21596,-2.21433 5.33165,-4.81529 6.92375,-5.7799 2.55807,-1.54986 3.06507,-2.28421 4.35917,-6.31383 3.29839,-10.27072 6.34644,-14.92696 11.38256,-17.38813 2.00866,-0.98164 4.6715,-2.67981 5.91742,-3.7737 3.1081,-2.72886 3.44631,-2.50307 1.59488,1.06473 -0.87155,1.6795 -2.1792,4.91494 -2.9059,7.18986 -1.85077,5.79381 -3.88323,8.80162 -7.75624,11.4784 -1.83896,1.27098 -3.2293,2.43394 -3.08963,2.58436 0.13965,0.15043 2.27584,-0.64525 4.74708,-1.76817 2.47123,-1.12291 5.67158,-2.24918 7.1119,-2.50281 1.4403,-0.25363 2.92531,-0.68241 3.30004,-0.95284 0.37472,-0.27043 2.05087,-3.28311 3.72479,-6.69483 3.89027,-7.92901 6.44184,-11.36875 9.80845,-13.22267 2.74641,-1.51239 8.94994,-3.53468 9.38977,-3.06097 0.32227,0.34711 -4.22411,8.83151 -6.71743,12.53596 -1.08665,1.61449 -3.39137,3.96144 -5.1216,5.21544 l -3.14589,2.27999 h 6.81188 c 7.94293,0 7.44786,0.35459 11.58316,-8.29623 1.53562,-3.21248 3.50916,-6.34693 4.38561,-6.96545 0.87646,-0.61852 3.36925,-1.38613 5.53956,-1.70581 2.32012,-0.34174 6.11836,-1.70669 9.21835,-3.31275 2.8998,-1.50233 5.37795,-2.62274 5.50703,-2.48978 0.31753,0.32709 -7.63991,10.80149 -9.67931,12.74092 -0.89562,0.85171 -4.6443,3.05214 -8.33041,4.88985 l -6.70202,3.34129 4.42228,0.81339 c 7.12336,1.31021 9.65286,2.25854 12.99578,4.87225 1.73298,1.35495 4.38733,3.32328 5.89854,4.37408 1.51122,1.05079 2.75693,2.1589 2.76825,2.46247 0.0274,0.73355 -16.66386,-0.13559 -19.3217,-1.00611 -1.14478,-0.37494 -4.02685,-2.39922 -6.4046,-4.49838 l -4.32319,-3.81666 -5.97112,0.0167 -5.97112,0.0166 3.72021,1.6479 c 2.04611,0.90634 5.24809,3.12743 7.11549,4.93574 1.86742,1.80832 4.44341,3.77267 5.72443,4.36524 l 2.32913,1.07739 -1.62838,0.69885 c -0.89562,0.38437 -4.70604,0.74779 -8.46761,0.8076 -7.51242,0.11946 -8.6489,-0.27103 -13.50387,-4.63974 -4.4483,-4.00277 -6.0645,-4.43205 -11.47207,-3.04708 -2.56336,0.65651 -5.8331,1.80824 -7.26608,2.55939 l -2.60541,1.36572 2.93109,-0.50654 c 5.84977,-1.01093 8.48038,-0.4443 12.65378,2.72561 2.13337,1.62041 5.09955,3.44527 6.5915,4.05524 1.49195,0.60996 2.76392,1.42472 2.82661,1.81057 0.14146,0.87081 -6.63073,2.00038 -12.35044,2.05998 -4.11766,0.0429 -4.47761,-0.0973 -9.34278,-3.63844 -2.78306,-2.02569 -5.48175,-3.68307 -5.99709,-3.68307 -1.88045,0 -5.83278,2.24057 -10.31334,5.84663 -2.52224,2.02995 -5.68504,4.41186 -7.02845,5.29315 -3.25523,2.13541 -3.0854,2.41678 0.44383,0.73536 1.58753,-0.75635 4.29879,-1.40865 6.02502,-1.44957 2.58711,-0.0613 11.47862,1.21844 18.30922,2.63525 2.32495,0.48225 1.11222,1.4917 -2.4208,2.01506 -2.34378,0.34718 -4.23896,1.30105 -7.04132,3.54396 -4.73825,3.79232 -7.69309,4.4292 -12.93491,2.78796 -2.09458,-0.65583 -5.84,-1.60935 -8.32315,-2.11895 l -4.51482,-0.92654 -3.53938,3.60531 c -1.94667,1.98291 -3.82713,4.18438 -4.17882,4.89214 -0.61768,1.24307 -0.56593,1.24438 1.52153,0.0384 2.20611,-1.27458 3.13109,-1.32245 19.23989,-0.99569 3.30326,0.067 6.15515,0.3819 6.33755,0.69978 0.18241,0.31786 -1.01215,1.13069 -2.65457,1.80626 -1.64242,0.67557 -4.42417,2.60381 -6.18167,4.28498 -5.99446,5.734108 -8.56235,6.387778 -17.57645,4.474198 -3.5993,-0.76412 -7.20056,-1.38928 -8.00282,-1.38928 -1.73571,0 -3.78752,2.26544 -7.5703,8.35849 l -2.79376,4.50004 2.30867,-1.89659 c 4.24444,-3.48681 8.6755,-4.64811 17.73545,-4.64811 4.73756,0 8.15819,0.28039 8.15819,0.66871 0,0.36779 -1.28934,1.28299 -2.86521,2.03378 -1.57587,0.75079 -4.67867,3.16068 -6.89512,5.35531 -5.43154,5.37809 -7.16966,6.05321 -15.96489,6.20107 -8.27023,0.13905 -8.71031,0.35547 -11.11469,5.46585 -0.86086,1.82969 -1.86945,3.52924 -2.24132,3.77678 -0.67359,0.44837 -3.90812,6.89538 -3.90812,7.78959 0,0.25855 1.47515,-1.01605 3.27811,-2.83245 4.29995,-4.33197 7.83362,-5.92834 15.04135,-6.79506 3.26098,-0.39213 6.62842,-0.99936 7.48322,-1.34938 2.57118,-1.05288 1.8195,0.55941 -1.40049,3.00393 -1.62507,1.23371 -4.37308,4.33692 -6.10671,6.89603 -3.46656,5.11721 -7.20887,7.66886 -11.24733,7.66886 -4.45679,0 -9.28595,1.36763 -10.39594,2.94417 -1.10855,1.57449 -5.315056,13.91628 -4.89672,14.36685 0.1307,0.14075 0.97224,-0.93969 1.87012,-2.401 2.15391,-3.50555 5.72907,-6.09319 11.28131,-8.16525 2.49574,-0.9314 5.62745,-2.19862 6.95936,-2.81603 1.33192,-0.61743 3.08408,-1.1226 3.8937,-1.1226 1.32605,0 1.23495,0.21048 -0.91861,2.12238 -1.472,1.30683 -3.2829,4.12042 -4.71266,7.32204 -2.7431,6.14253 -4.2625,7.47012 -11.61173,10.1457 -7.221797,2.6292 -9.506441,3.97995 -9.900265,5.85336 -0.754435,3.58883 -1.633484,10.87797 -1.627077,13.49183 l 0.0069,2.80615 1.941269,-3.85845 c 2.535294,-5.03913 5.634313,-7.90738 12.140993,-11.23686 2.92349,-1.49597 5.50909,-3.05741 5.74578,-3.46989 0.23669,-0.41247 0.68993,-0.57716 1.00719,-0.36598 0.31726,0.21118 -0.28686,1.71586 -1.34248,3.34374 -1.05563,1.62788 -2.66373,5.53436 -3.57356,8.68108 -0.90983,3.14671 -2.24837,6.5348 -2.97452,7.52908 -0.72615,0.99428 -3.57469,2.95228 -6.33008,4.35111 -2.755396,1.39883 -5.500074,3.00972 -6.09929,3.57974 -1.319138,1.25488 -2.214306,9.8258 -1.535457,14.70146 l 0.457228,3.28392 1.522169,-4.03376 c 0.837193,-2.21857 2.273854,-5.19076 3.19258,-6.60487 1.78619,-2.74931 12.26058,-14.14648 13.00111,-14.14648 0.24391,0 -0.0205,0.96642 -0.58764,2.14759 -0.56712,1.18118 -1.32087,5.04841 -1.67501,8.59383 -0.91407,9.15134 -1.45943,10.53473 -5.65477,14.3443 -2.01488,1.82959 -4.959608,4.71555 -6.543847,6.41322 l -2.880435,3.08668 0.395365,4.07407 c 0.21745,2.24074 1.060664,6.84988 1.873809,10.24253 l 1.478444,6.16845 0.33961,-6.09188 c 0.311661,-5.59054 0.512815,-6.31219 2.444304,-8.76921 1.15759,-1.47253 3.46063,-5.14647 5.11787,-8.16429 1.65724,-3.01784 3.25422,-5.22734 3.54883,-4.91003 0.29461,0.31731 0.0619,2.6027 -0.5172,5.07865 -0.8748,3.74032 -0.92449,5.17118 -0.2938,8.45993 1.31271,6.84516 1.10571,7.74619 -3.47472,15.12489 -2.32859,3.75117 -4.2338,7.54007 -4.2338,8.41978 0,1.76338 3.07371,12.2029 5.05167,17.15745 l 1.25938,3.15456 -0.0532,-4.21597 c -0.0463,-3.67096 0.36165,-5.14755 3.1557,-11.422 3.95465,-8.88075 5.17545,-10.30081 4.56006,-5.30433 -0.36558,2.96819 -0.12605,4.26436 1.59128,8.61096 2.73777,6.92935 2.67505,10.29607 -0.33971,18.23518 l -2.36135,6.21842 1.6358,3.76274 c 0.89969,2.06951 2.071,4.37318 2.6029,5.11926 0.88502,1.24135 0.94033,1.05623 0.65154,-2.1807 -0.39782,-4.45931 2.21766,-18.46809 3.44807,-18.46809 0.4622,0 1.04761,1.026 1.30091,2.28 0.2533,1.254 1.91798,5.29294 3.69928,8.97543 l 3.23875,6.69544 -0.98671,3.5786 c -0.54268,1.96824 -1.19319,5.35859 -1.44557,7.53413 -0.43468,3.74721 -0.33557,4.15552 1.88212,7.75293 1.28753,2.08856 4.10955,5.78739 6.27115,8.21962 l 3.93017,4.42222 -1.60379,-3.50768 c -2.29165,-5.01211 -4.76041,-25.60611 -3.06962,-25.60611 0.30165,0 1.36111,2.23091 2.35435,4.95758 1.23525,3.39099 2.88595,6.21745 5.22378,8.94459 4.99303,5.82448 6.02735,8.45327 6.5552,16.66053 l 0.44826,6.96954 3.01948,3.38797 c 1.66072,1.86338 3.85088,4.03524 4.86704,4.82635 l 1.84754,1.43837 -1.32761,-2.80283 c -1.32124,-2.78939 -1.55408,-3.71153 -3.72293,-14.74392 -1.61007,-8.19008 -0.44839,-8.58617 3.67754,-1.25395 1.16701,2.07393 3.53174,4.92881 5.25496,6.3442 3.90965,3.21125 5.57963,6.07831 6.53979,11.22763 0.98735,5.29513 3.98932,11.15462 6.59393,12.87055 2.81693,1.85581 9.45217,5.44028 11.85692,6.40532 1.79815,0.7216 1.71418,0.54341 -1.05229,-2.23317 -3.25007,-3.26193 -4.59863,-5.67676 -6.50777,-11.6533 -0.67597,-2.11613 -1.96703,-5.26964 -2.86903,-7.00782 -0.90198,-1.73817 -1.49513,-3.3163 -1.31811,-3.50697 0.17703,-0.19066 1.59128,0.9136 3.1428,2.45392 1.55151,1.54033 4.93866,3.99916 7.52698,5.46407 6.57558,3.72159 9.82952,7.835 12.85862,16.25498 l 2.41834,6.72227 4.6246,2.34866 c 2.54353,1.29177 6.37156,2.83216 8.50673,3.42313 4.17776,1.15628 12.99266,1.35238 18.2639,0.40629 3.43045,-0.61569 5.07369,0.0242 4.46307,1.7381 -0.54522,1.53027 -13.15373,2.6263 -19.52154,1.69696 z m 48.16598,0.0471 c -4.00206,-0.19724 -7.4823,-0.58177 -7.73389,-0.8545 -0.25158,-0.27275 -0.272,-1.01634 -0.0454,-1.65244 0.36318,-1.01935 1.12602,-1.08698 6.43117,-0.57012 3.31051,0.32253 7.56051,0.50764 9.44446,0.41135 4.13457,-0.21131 12.32317,-2.94996 16.71133,-5.58903 3.02141,-1.81709 3.33607,-2.28841 5.59422,-8.37956 3.09556,-8.34997 5.83817,-11.91478 11.73388,-15.25159 2.55775,-1.44761 6.23526,-4.02231 8.17225,-5.72156 1.93698,-1.69925 3.64165,-3.08955 3.78816,-3.08955 0.1465,0 -0.94852,2.60447 -2.43338,5.78769 -1.48486,3.18322 -3.25539,7.36613 -3.9345,9.29536 -0.82738,2.35045 -2.43906,4.74098 -4.88515,7.24588 l -3.6504,3.7382 5.16143,-2.52628 c 8.35284,-4.08831 10.85907,-6.04049 13.16784,-10.25686 1.14842,-2.09728 2.43387,-5.769 2.85657,-8.15938 0.8931,-5.05051 2.39215,-7.49264 7.05231,-11.48898 1.85422,-1.5901 4.10247,-4.23485 4.99611,-5.8772 3.08707,-5.67354 5.82652,-6.6997 4.27152,-1.60007 -0.38008,1.24645 -1.27906,5.23713 -1.99775,8.86815 -0.71868,3.63102 -1.88421,7.65609 -2.59007,8.94459 -1.92673,3.51717 -0.57044,2.84197 4.10154,-2.04187 l 4.1944,-4.3846 0.43461,-6.31384 c 0.62156,-9.02961 1.39146,-11.20735 5.72698,-16.19911 2.50108,-2.87965 4.64253,-6.33096 6.33551,-10.21078 l 2.55739,-5.86081 0.0368,4.74292 c 0.0557,7.15365 -1.71176,17.88372 -3.60971,21.91548 l -1.65123,3.50768 3.02011,-3.15691 c 1.66105,-1.7363 4.46517,-5.24752 6.23134,-7.80271 2.93012,-4.2391 3.21124,-4.98167 3.21124,-8.48233 0,-2.1101 -0.43649,-5.38626 -0.96998,-7.28034 -1.42909,-5.07382 -1.26308,-6.17717 1.87421,-12.4558 1.57206,-3.14615 3.20689,-6.90412 3.63296,-8.35104 0.83426,-2.83313 1.68467,-3.36872 2.22776,-1.40308 1.35915,4.91929 2.41646,11.78871 2.42949,15.78459 0.009,2.60445 0.11258,4.73538 0.23132,4.73538 0.43944,0 3.13938,-5.346 3.96593,-7.85273 0.80859,-2.4523 0.71751,-2.92232 -1.69909,-8.76921 -3.11127,-7.52756 -3.19143,-9.93878 -0.557,-16.75448 1.55721,-4.02878 1.96528,-6.01556 1.79122,-8.72094 -0.13642,-2.12033 0.0317,-3.41739 0.42594,-3.28533 0.35824,0.12 2.19017,3.44778 4.07096,7.39504 2.92248,6.13352 3.4234,7.75914 3.44569,11.18228 0.0254,3.90612 0.0496,3.95877 0.97457,2.12399 1.06814,-2.11874 4.52287,-13.11875 5.1515,-16.40259 0.35221,-1.83984 -0.20075,-3.13466 -3.84744,-9.00919 -4.64079,-7.47594 -4.96647,-8.93448 -3.5112,-15.72479 0.61534,-2.87121 0.55774,-4.30213 -0.32568,-8.08999 -1.25869,-5.39703 -1.25608,-5.36574 -0.44933,-5.36574 0.34314,0 1.41929,1.49954 2.39143,3.3323 0.97214,1.83277 3.25609,5.5293 5.07545,8.2145 3.22948,4.76642 3.31377,5.01594 3.55475,10.52305 l 0.24682,5.64086 1.47052,-5.45706 c 0.80878,-3.00139 1.67236,-7.4871 1.91907,-9.96826 0.42023,-4.22632 0.33524,-4.66412 -1.3458,-6.93322 -0.98689,-1.33212 -3.60634,-3.89619 -5.82099,-5.69795 -5.3696,-4.36849 -6.58519,-6.87633 -7.37785,-15.22108 -0.35275,-3.71372 -1.12424,-7.75791 -1.71439,-8.98708 -0.59017,-1.22917 -0.96143,-2.35505 -0.82504,-2.50195 0.1364,-0.14691 3.18551,2.80258 6.77583,6.55441 6.35241,6.63818 6.81659,7.35849 10.49906,16.29226 0.58209,1.41218 0.73151,0.10528 0.76701,-6.70874 0.0435,-8.35194 0.0206,-8.48626 -1.74714,-10.27439 -0.98518,-0.9965 -3.88584,-2.93718 -6.44593,-4.31262 -5.4461,-2.926 -7.04549,-4.85933 -8.44526,-10.20859 -0.56465,-2.15781 -2.01245,-5.73852 -3.21732,-7.95712 -1.20488,-2.21862 -2.10502,-4.03384 -2.00033,-4.03384 0.1047,0 3.09655,1.60294 6.64857,3.56208 7.15218,3.94485 9.32174,5.81783 12.08227,10.43062 l 1.86651,3.11888 v -3.52803 c 0,-5.40193 -1.30011,-11.68045 -2.69258,-13.0031 -0.67944,-0.64537 -4.04335,-2.18096 -7.47536,-3.41242 -7.64357,-2.74266 -10.09326,-4.91358 -13.00829,-11.52804 -1.53186,-3.47592 -2.82035,-5.3667 -4.3215,-6.34155 -2.08356,-1.35309 -2.09815,-1.39531 -0.56415,-1.63253 0.86609,-0.13392 3.65063,0.6148 6.18786,1.66383 8.81344,3.64399 12.70324,5.95078 14.82142,8.78966 1.13267,1.51804 2.15635,2.65564 2.27486,2.528 0.30509,-0.32859 -2.6701,-9.59281 -3.91022,-12.17571 -1.27149,-2.64822 -1.97724,-2.95239 -8.79458,-3.79033 -7.61508,-0.936 -9.85209,-2.41132 -14.50012,-9.56287 -1.05865,-1.62886 -3.23547,-3.9328 -4.83737,-5.11985 -2.9371,-2.17646 -3.89734,-3.92513 -1.75284,-3.19206 0.63784,0.21805 4.30209,0.84094 8.14278,1.38423 7.89227,1.1164 11.42066,2.85263 15.68669,7.71902 l 2.51748,2.87176 -2.0613,-4.20922 c -3.26148,-6.66005 -6.76841,-12.30799 -8.18449,-13.18118 -0.76778,-0.47343 -3.70989,-0.7458 -7.16489,-0.66331 -7.95374,0.18993 -10.7422,-0.90376 -16.46971,-6.4597 -2.53822,-2.46219 -5.65981,-4.88365 -6.93686,-5.38102 -1.27704,-0.49735 -2.32191,-1.31441 -2.32191,-1.81567 0,-0.69616 1.82128,-0.91138 7.71273,-0.91138 8.47517,0 12.35665,0.90228 16.45847,3.82587 l 2.55007,1.81758 -1.7991,-3.59598 c -0.9895,-1.97779 -2.74926,-4.70954 -3.91055,-6.07054 -2.35928,-2.76501 -3.04355,-2.79899 -11.89267,-0.59052 -7.99232,1.99463 -11.52354,1.08778 -16.74054,-4.299138 -2.57773,-2.66169 -4.01377,-3.64037 -7.68523,-5.23761 -1.79861,-0.78248 -1.41,-0.90421 4.88516,-1.53017 9.87747,-0.98218 15.56546,-0.84033 18.40075,0.45891 1.34341,0.6156 2.44257,0.88873 2.44257,0.60696 0,-0.28177 -1.71816,-2.34355 -3.81814,-4.58171 l -3.81814,-4.0694 -3.18391,0.47697 c -1.75116,0.26232 -5.52879,1.10724 -8.39475,1.87758 -6.72563,1.8078 -10.54909,1.45767 -13.72417,-1.25677 -4.24061,-3.62536 -4.59356,-3.81236 -8.64727,-4.58142 -2.20008,-0.4174 -3.85598,-1.01015 -3.67976,-1.31723 0.17622,-0.30709 2.15285,-0.77465 4.39251,-1.03903 2.23968,-0.26439 6.10074,-0.96441 8.58014,-1.55561 5.03783,-1.20126 9.63251,-0.89197 12.77839,0.86015 2.96236,1.64993 3.09087,0.79034 0.17158,-1.14771 -1.36226,-0.90438 -4.62661,-3.30339 -7.25411,-5.33113 -2.6275,-2.02774 -5.87739,-4.0418 -7.22198,-4.47568 -2.72951,-0.8808 -4.00952,-0.37176 -10.2038,4.05788 -4.19814,3.00216 -6.81009,3.44633 -13.84634,2.3546 -7.19047,-1.11565 -8.0058,-1.39701 -6.28861,-2.17013 4.73706,-2.13275 7.55871,-3.74778 10.32995,-5.91261 2.7326,-2.13465 3.66764,-2.47247 6.84352,-2.47247 2.02315,0 4.7024,0.30551 5.9539,0.67893 1.99625,0.59562 2.13035,0.56049 1.09292,-0.28631 -1.40941,-1.15045 -10.56529,-3.90031 -12.98639,-3.90031 -2.50022,0 -4.65702,1.04587 -8.47893,4.11157 -4.86578,3.90302 -7.34587,4.58088 -14.93775,4.08272 -3.52073,-0.23102 -6.89539,-0.71783 -7.49926,-1.0818 -0.93005,-0.56059 -0.75419,-0.81818 1.15013,-1.68465 1.23643,-0.56259 3.71361,-2.35109 5.50483,-3.97446 3.7951,-3.43946 7.47134,-5.63636 9.58152,-5.72587 1.11396,-0.0473 0.91442,-0.24231 -0.78824,-0.77055 -3.95627,-1.22742 -8.82192,-0.37254 -11.91004,2.09257 -7.62354,6.08551 -7.6397,6.09103 -18.37792,6.27255 -7.93994,0.13422 -9.54202,0.003 -8.55178,-0.70154 0.6702,-0.47668 3.16162,-2.37654 5.53651,-4.22191 4.79333,-3.72459 9.0663,-5.34206 15.97978,-6.04893 l 4.62205,-0.47258 -7.27236,-3.98219 c -5.85746,-3.20742 -7.82172,-4.69 -10.09598,-7.62022 -1.553,-2.00093 -3.96565,-5.01728 -5.36144,-6.70301 -1.3958,-1.68572 -2.35906,-3.25749 -2.14056,-3.49281 0.21848,-0.23532 2.74403,0.88715 5.61233,2.49437 3.71081,2.07931 6.44091,3.08117 9.46476,3.47325 5.333,0.6915 6.80175,2.06604 10.22381,9.56799 1.40705,3.08457 2.85145,5.9258 3.20977,6.31384 0.53473,0.57906 15.57666,2.46349 15.57509,1.95123 -2.6e-4,-0.0866 -0.89732,-0.65688 -1.99346,-1.26738 -3.58973,-1.99934 -7.19665,-6.12966 -9.44183,-10.81193 -1.2132,-2.53012 -2.7147,-5.45561 -3.33664,-6.50108 -0.62196,-1.04548 -0.96818,-2.07605 -0.76939,-2.29015 0.19879,-0.21411 2.35595,0.27422 4.7937,1.08518 5.82038,1.93623 9.84793,6.24407 14.32959,15.3268 1.79122,3.63018 3.69643,6.84019 4.2338,7.13335 0.53736,0.29316 2.73568,0.97935 4.88515,1.52486 2.14947,0.54552 5.44695,1.66979 7.32773,2.49838 1.88079,0.8286 3.41962,1.36661 3.41962,1.19558 0,-0.17103 -1.29999,-1.1315 -2.88886,-2.13437 -4.42299,-2.79175 -7.17716,-6.53438 -8.82635,-11.99406 -0.80284,-2.65783 -2.17157,-6.1741 -3.04164,-7.81394 -1.82554,-3.44069 -1.53796,-3.70649 1.26342,-1.16768 1.1008,0.99762 3.85512,2.75716 6.12073,3.91008 3.09039,1.57264 4.62892,2.894 6.15962,5.29021 2.17152,3.39937 6.39207,13.7907 6.41198,15.78682 0.007,0.7457 1.17497,1.74725 3.10586,2.66433 1.70166,0.80821 4.26636,2.66314 5.69934,4.12206 3.22589,3.28429 7.82019,7.1018 8.54691,7.1018 0.29874,0 -0.54977,-0.97032 -1.88561,-2.15626 -3.82017,-3.39151 -5.495,-7.15691 -6.53425,-14.69043 -0.50642,-3.67093 -1.54822,-7.99911 -2.31512,-9.61819 -0.76691,-1.61908 -1.39438,-3.13391 -1.39438,-3.36629 0,-1.12895 6.95617,3.84981 9.17914,6.56982 3.37732,4.13244 5.35764,8.84241 8.06856,19.19015 l 2.26123,8.63119 6.8532,7.19076 c 6.81458,7.15022 9.71989,9.30035 6.58454,4.87299 -2.58363,-3.64829 -3.56322,-6.89754 -3.98384,-13.21421 -0.21479,-3.2257 -0.9774,-7.69353 -1.69467,-9.92852 -0.71728,-2.23498 -1.20221,-4.39293 -1.07764,-4.79544 0.12457,-0.40251 2.47212,1.59444 5.21678,4.43767 7.91153,8.19568 9.36775,12.57048 9.89348,29.722108 0.16322,5.32459 0.32905,5.90287 2.81668,9.82153 3.003,4.73054 7.21377,9.31304 6.40454,6.96996 -0.26652,-0.77169 -0.64583,-3.83553 -0.84291,-6.80853 -0.2942,-4.43789 -0.0915,-6.29927 1.13244,-10.39896 0.81992,-2.746428 1.9878,-5.654598 2.59529,-6.462608 1.08944,-1.44906 1.12801,-1.41725 2.82676,2.33128 0.94724,2.09021 1.99359,5.373508 2.32522,7.296208 0.70633,4.09522 -0.0482,13.13512 -1.52341,18.25183 l -1.01131,3.50769 3.65663,9.32827 c 2.01116,5.13055 3.78129,9.19401 3.93364,9.02993 0.15235,-0.16408 -0.0619,-1.74751 -0.47591,-3.51874 -1.31646,-5.63097 -0.50839,-12.60528 2.36302,-20.39456 1.41076,-3.827 2.90494,-7.07964 3.32039,-7.2281 0.50698,-0.18116 0.89764,1.53028 1.18797,5.20434 0.23792,3.01084 0.85061,7.1013 1.36153,9.08991 1.63902,6.37948 1.22824,12.09075 -1.39433,19.38613 -2.51479,6.99552 -2.51497,6.68635 0.01,15.58275 1.45809,5.13834 1.59552,5.37296 1.62748,2.77815 0.0727,-5.90669 4.46235,-19.05143 7.27891,-21.79676 1.15283,-1.12369 1.26414,-1.04956 2.33207,1.55317 0.76928,1.87487 1.12927,4.63512 1.14636,8.78983 l 0.0249,6.05666 -4.45148,9.42689 -4.45147,9.42689 0.85712,6.87861 0.85711,6.87862 1.18881,-4.47297 c 0.82779,-3.11462 2.80945,-7.07563 6.52545,-13.04329 2.93515,-4.71368 5.70303,-8.58091 6.15083,-8.59383 0.96778,-0.0279 0.97288,0.13872 0.12523,4.09858 -0.36143,1.6884 -0.74845,6.10807 -0.86006,9.82152 -0.2406,8.0049 -1.0111,9.97237 -6.84145,17.46956 -5.68669,7.31247 -5.94032,8.01491 -5.9332,16.4319 l 0.006,7.22559 1.90681,-3.58065 c 1.04876,-1.96935 3.46416,-4.94504 5.36756,-6.61263 1.90341,-1.66759 5.17993,-4.79167 7.28115,-6.94241 L 425,199.75276 l -0.36635,2.45538 c -0.2015,1.35045 -0.56621,4.34953 -0.81046,6.6646 -0.79639,7.54811 -3.40417,11.73778 -11.88803,19.09935 -3.34148,2.89945 -6.15907,5.62852 -6.26132,6.06462 -1.78536,7.61452 -3.34858,15.87595 -3.00401,15.87595 0.24419,0 0.93458,-1.10806 1.5342,-2.46235 2.01733,-4.5563 6.32702,-8.82797 11.45712,-11.35603 2.64853,-1.30516 5.55109,-2.99621 6.45014,-3.7579 2.28375,-1.9348 2.57913,-1.14522 0.54539,1.45795 -0.93711,1.19949 -2.15156,3.97513 -2.69879,6.16808 -2.01417,8.07163 -3.2482,9.76765 -10.51893,14.45716 -9.05323,5.83919 -10.21679,7.08187 -11.97687,12.79138 -0.81388,2.64008 -2.29179,6.75333 -3.28425,9.14057 l -1.80449,4.34044 4.02532,-4.38511 c 3.17814,-3.4622 4.91639,-4.73245 8.25913,-6.03543 2.32859,-0.90767 5.91082,-2.54495 7.96051,-3.6384 2.04969,-1.09344 3.87018,-1.98808 4.04553,-1.98808 0.66021,0 -4.27636,10.30608 -6.44468,13.45454 -2.98019,4.32731 -6.41584,6.78154 -15.0391,10.74303 -3.92249,1.80198 -7.65401,3.7822 -8.29231,4.4005 -0.63828,0.61831 -2.08049,2.88144 -3.20491,5.02918 -1.12443,2.14774 -2.8246,5.00991 -3.77818,6.36037 -3.02152,4.27911 -2.94987,4.60601 0.35989,1.64183 4.03802,-3.61642 6.54791,-4.98847 10.15793,-5.5529 1.56014,-0.24393 4.2821,-0.88434 6.04877,-1.42314 3.72563,-1.13623 7.53519,-1.28462 7.53519,-0.29352 0,1.34702 -11.47725,13.30503 -13.75313,14.32921 -1.27561,0.57404 -5.95746,1.69881 -10.40409,2.49947 -4.44664,0.80065 -8.52445,1.61235 -9.06183,1.80377 -0.53736,0.19142 -1.85635,1.64189 -2.93109,3.22327 -1.07473,1.58138 -3.82838,4.733 -6.11922,7.0036 -2.29084,2.27059 -4.01348,4.12835 -3.82809,4.12835 0.1854,0 1.71537,-0.65665 3.39995,-1.45923 2.58922,-1.23357 4.51581,-1.47767 12.45882,-1.57846 5.1678,-0.0656 9.32256,0.10769 9.23283,0.38502 -0.36954,1.1421 -8.19456,7.79307 -10.98301,9.33513 -4.6114,2.55018 -10.47134,3.40118 -17.26082,2.50672 -4.43617,-0.58444 -5.97533,-0.55868 -6.83209,0.11436 -0.60824,0.47782 -3.47116,2.79897 -6.36203,5.15812 l -5.25615,4.28936 4.44241,-0.34234 c 3.73346,-0.28771 5.52326,0.0171 11.21543,1.90989 3.72516,1.23872 7.01127,2.49726 7.30246,2.79674 0.29119,0.29948 -0.88125,0.74726 -2.60541,0.99506 -1.72417,0.24781 -5.44903,1.71172 -8.27745,3.25315 -6.09782,3.32317 -8.20377,3.47953 -17.96991,1.33425 l -6.68436,-1.46832 -6.27057,3.10609 c -3.44882,1.70835 -7.00335,3.42954 -7.89896,3.82489 -1.24177,0.54816 -0.45802,0.63904 3.30103,0.3828 3.94231,-0.26874 5.37705,-0.0803 7.16489,0.94095 1.22951,0.70233 4.55629,1.92516 7.39282,2.71741 5.34249,1.49213 7.324,3.18911 3.72385,3.18911 -1.08611,0 -4.40801,0.84307 -7.38203,1.8735 -7.29677,2.52816 -10.48885,2.42149 -18.66011,-0.62357 l -6.73929,-2.51143 -4.80709,2.35944 c -5.28978,2.59636 -12.37117,4.97505 -15.91042,5.3444 -1.25385,0.13086 -5.55413,0.0766 -9.55617,-0.12068 z M 238.56234,355.07058 C 204.85222,351.90412 174.74432,336.40229 151.9189,310.46 127.39118,282.58298 114.37344,245.73501 115.65813,207.82043 c 1.5809,-46.65637 23.89626,-88.66612 61.12701,-115.074518 33.60989,-23.84007 76.40032,-29.82096 114.7566,-16.03972 43.41442,15.59859 76.79215,53.574148 88.36745,100.540168 10.54139,42.77096 1.79252,87.1256 -24.36562,123.52774 -1.66358,2.31507 -6.16879,7.63588 -10.01155,11.82401 -22.85429,24.90829 -52.3236,39.52809 -85.67332,42.50274 -9.24811,0.8249 -12.23749,0.82065 -21.29636,-0.0303 z m 29.35816,-5.22672 c 50.3053,-7.55695 91.94522,-45.59253 106.71284,-97.47582 9.45735,-33.22667 7.16247,-66.24098 -6.78932,-97.67145 -6.74061,-15.1852 -13.44807,-25.54009 -24.37007,-37.62227 -11.63951,-12.87589 -21.8097,-20.986128 -35.56251,-28.359398 -19.04776,-10.21206 -37.35099,-14.88807 -58.27608,-14.88807 -26.08393,0 -50.30225,8.0231 -72.30028,23.9518 -32.38341,23.448738 -53.079,60.218198 -57.28152,101.771068 -3.52917,34.89496 7.28131,72.49263 29.00423,100.87361 20.1976,26.38816 50.00908,44.50511 81.3453,49.43495 8.42598,1.32558 28.64899,1.3178 37.51741,-0.0144 z m -33.05562,-8.99888 c -1.10501,-1.00144 -2.49305,-2.91921 -3.08454,-4.26172 l -1.07544,-2.44093 3.34842,-5.18754 c 3.86548,-5.98858 4.6816,-9.36763 3.75285,-15.5382 -0.84423,-5.609 -0.38733,-7.6037 2.77502,-12.11489 1.46195,-2.08552 2.54653,-3.91201 2.41019,-4.05886 -0.13634,-0.14684 -13.71907,0.49865 -30.18384,1.43441 -32.30035,1.83576 -42.12586,3.13105 -44.8785,5.91626 -2.12858,2.15376 -3.84262,1.77376 -6.54818,-1.45169 -2.78607,-3.32145 -4.99554,-8.33523 -6.85083,-15.54611 -1.53903,-5.98165 -1.49673,-5.41235 -0.40212,-5.41235 0.64608,0 1.02212,-1.5952 1.36027,-5.7704 0.54831,-6.77003 1.80191,-11.2065 4.09105,-14.47824 1.87653,-2.68203 1.7215,-2.67937 12.36649,-0.21146 6.5158,1.5106 4.22902,1.53764 48.69522,-0.5759 8.23458,-0.39141 17.24016,-0.71164 20.01241,-0.71164 4.87086,0 5.0724,0.0666 5.99081,1.97943 0.52271,1.08868 1.4457,4.61228 2.0511,7.83021 1.32372,7.03613 0.94068,13.56403 -1.28057,21.82385 -1.32054,4.91052 -1.37803,5.58788 -0.45872,5.4056 1.66616,-0.33036 4.0492,-9.09413 4.45575,-16.38631 0.41982,-7.5302 -0.60421,-14.77227 -2.73487,-19.34115 l -1.51513,-3.24894 4.33075,-0.41615 c 2.38191,-0.22888 7.72154,-0.6216 11.86585,-0.87271 l 7.53509,-0.45656 1.45694,4.78009 c 2.12542,6.9733 3.08478,18.32336 2.19863,26.0117 -0.39391,3.41767 -0.91603,6.76641 -1.16024,7.44164 -0.94335,2.60832 0.86622,1.06994 2.03901,-1.73343 1.05162,-2.51371 1.23418,-4.60723 1.20824,-13.85536 -0.0259,-9.24553 -0.24375,-11.57978 -1.43923,-15.42412 -0.77477,-2.49143 -1.3382,-4.60577 -1.25207,-4.69854 0.0861,-0.0928 10.9926,-0.67477 24.23661,-1.29338 24.50244,-1.14445 33.09481,-2.15057 39.24843,-4.59579 4.1512,-1.64952 5.34924,-1.71512 5.34924,-0.2929 0,0.59159 0.70994,2.58455 1.57764,4.42881 4.17093,8.86509 3.48939,22.49596 -1.56522,31.3046 -0.72332,1.26054 -1.31513,2.84736 -1.31513,3.52627 0,1.15124 -0.82269,1.20223 -12.21289,0.75715 -8.22631,-0.32145 -18.05985,-0.12431 -30.12512,0.60396 -9.85172,0.59466 -18.57722,1.08483 -19.38998,1.08927 -1.224,0.007 -0.67563,0.82124 3.19337,4.74345 5.86856,5.9493 7.71375,9.87744 7.72265,16.44045 0.004,2.57935 -0.30472,5.57842 -0.68494,6.66461 -0.96786,2.76496 -4.16615,6.15017 -7.205,7.62608 -2.38772,1.15966 -2.72932,1.16852 -4.76377,0.12363 -1.20538,-0.6191 -2.96832,-2.22242 -3.91764,-3.56292 l -1.72602,-2.43729 1.0942,-4.44729 c 1.34971,-5.4858 1.53004,-12.15516 0.40614,-15.02095 -0.46486,-1.18535 -2.31597,-3.33781 -4.11356,-4.78322 l -3.26833,-2.62803 -7.48405,0.49637 c -7.39737,0.49063 -7.50165,0.52166 -9.00196,2.67862 -2.43901,3.50648 -4.27213,7.91909 -4.27213,10.2837 0,1.20687 1.06051,4.77098 2.35669,7.92025 1.69484,4.11789 2.36121,6.73845 2.37279,9.33126 0.0327,7.31284 -4.57489,13.34056 -10.77256,14.09296 -2.34405,0.28455 -3.14341,0.0391 -4.81927,-1.47966 z m 7.971,-3.26663 c 1.18117,-0.78624 2.75458,-2.78006 3.49649,-4.43072 1.91426,-4.25896 1.73656,-8.64796 -0.60514,-14.94662 -2.32042,-6.24146 -2.49488,-10.37795 -0.60591,-14.36592 2.36412,-4.9911 0.36058,-4.38577 -3.06096,0.92479 -1.76564,2.74045 -1.88901,3.4127 -2.21799,12.08571 -0.3176,8.3728 -0.50454,9.46808 -2.1169,12.40241 -2.016,3.6689 -2.25592,6.61398 -0.69056,8.47694 1.40065,1.66695 3.14264,1.62293 5.80097,-0.14659 z m 41.22447,-12.2704 c 1.07648,-0.97559 2.47113,-3.22309 3.09923,-4.99445 2.18372,-6.15854 -0.44678,-13.32305 -7.1595,-19.49974 -3.12883,-2.87899 -3.87126,-3.2579 -5.58779,-2.85184 -2.11357,0.49999 -2.59721,1.54863 -1.0157,2.20227 0.53012,0.2191 1.62928,1.55088 2.44258,2.95952 1.34178,2.32396 1.47873,3.41509 1.47873,11.7818 0,8.0825 0.15316,9.40307 1.24082,10.69844 1.63307,1.94495 3.117,1.86511 5.50163,-0.296 z M 167.38692,302.73112 c 3.19578,-5.2616 -0.69166,-24.69898 -5.40206,-27.01053 -0.89029,-0.4369 -1.51489,-1.13458 -1.38799,-1.5504 0.32189,-1.05479 2.68264,-1.31923 6.81416,-0.76326 3.25293,0.43775 3.59498,0.66217 4.47785,2.93796 0.52574,1.35522 1.56462,5.27527 2.30862,8.71125 l 1.35274,6.24721 3.00932,-0.11227 c 2.27685,-0.085 2.50903,-0.17994 0.95387,-0.39029 -1.96961,-0.26639 -2.11396,-0.51158 -3.45668,-5.87117 -1.42736,-5.6974 -4.55353,-14.21763 -6.4007,-17.4448 -2.87137,-5.0165 -7.01548,-7.84822 -8.27453,-5.65406 -0.22365,0.38976 0.0225,0.51972 0.56201,0.29674 1.55221,-0.64153 3.62041,0.98622 5.66496,4.45851 1.05069,1.78441 1.91034,3.48639 1.91034,3.78219 0,0.29577 -1.85419,0.35129 -4.12041,0.12337 -4.72667,-0.47539 -6.47099,0.23531 -7.90426,3.22051 -1.34914,2.80995 -1.96844,7.47749 -1.07135,8.07462 0.41785,0.27815 0.98005,-0.24783 1.33269,-1.24681 0.33548,-0.95036 0.91509,-1.93102 1.28804,-2.17927 2.32871,-1.55011 6.21983,6.16506 6.94287,13.7661 0.71091,7.47344 -0.34247,9.64521 -3.61169,7.44625 -1.74189,-1.17164 -2.3231,-0.2731 -1.06986,1.654 0.97095,1.49304 3.38373,3.32455 4.45368,3.38072 0.26041,0.0136 0.99319,-0.83078 1.62838,-1.87657 z m 160.73658,-72.0223 c -2.73916,-0.56838 -3.89065,-1.12256 -3.84969,-1.85276 0.0321,-0.573 0.24603,-2.46243 0.47532,-4.19874 l 0.41688,-3.15691 -1.95131,4.03384 c -2.36488,4.8888 -3.0333,5.27866 -1.20281,0.70154 3.02594,-7.56641 7.34019,-20.31944 8.8002,-26.01368 l 1.55934,-6.08165 -1.89499,-1.75385 c -1.7933,-1.65972 -1.85224,-1.8856 -1.09823,-4.20922 0.4485,-1.38216 1.68977,-3.06864 2.83986,-3.85845 l 2.04312,-1.40307 0.0251,-19.2572 c 0.0152,-11.70377 0.25954,-18.99578 0.62283,-18.59074 0.32876,0.36656 0.80896,9.11122 1.06711,19.43258 0.44601,17.83201 0.53134,18.76613 1.71435,18.76613 2.17189,0 5.05372,2.0623 5.4884,3.92763 0.29301,1.25741 0.006,2.39859 -0.95434,3.79797 -1.65988,2.4181 -1.77478,2.00056 5.36107,19.48113 5.27582,12.92406 6.14717,15.58703 5.10027,15.58703 -0.36074,0 -1.46022,-2.37526 -2.4433,-5.27835 -0.98307,-2.90309 -1.91031,-5.14598 -2.06052,-4.98418 -0.15022,0.16179 0.0564,2.88577 0.459,6.05331 0.40268,3.16752 0.64068,5.84514 0.52891,5.95025 -0.57454,0.54029 -5.76727,3.16972 -6.25972,3.16972 -0.31453,0 -0.86987,-1.81522 -1.23409,-4.03383 l -0.66221,-4.03384 -0.0946,4.03384 c -0.10877,4.63944 -1.35856,5.53148 -1.47433,1.05231 -0.0424,-1.63985 -0.30082,-3.92861 -0.57429,-5.08615 -0.44912,-1.90097 -0.50468,-1.79068 -0.5743,1.14 -0.0424,1.78453 -0.26025,4.23114 -0.48415,5.43691 -0.38016,2.04719 -0.58495,2.18725 -3.09393,2.11584 -1.47776,-0.042 -4.4455,-0.44139 -6.59496,-0.88741 z m -86.95574,-13.4752 c -1.25386,-0.15775 -4.95734,-0.6222 -8.22996,-1.03212 -7.76564,-0.97271 -16.97472,-3.4583 -23.2688,-6.28041 -5.71848,-2.56402 -11.06572,-7.5401 -11.75975,-10.94347 -0.27657,-1.35624 0.83492,-8.65602 3.1901,-20.95111 1.98801,-10.37831 3.6833,-18.94368 3.76731,-19.03416 0.084,-0.0905 9.82494,2.64993 21.64653,6.08979 11.82158,3.43986 22.14163,6.25522 22.93345,6.25634 1.14832,0.002 42.01676,-11.9205 44.78534,-13.06476 0.83836,-0.3465 7.52592,34.09336 7.51711,38.71198 -0.0206,10.77863 -20.86137,19.54055 -48.20561,20.26664 -5.55279,0.14746 -11.12186,0.13903 -12.37572,-0.0187 z m -13.02708,-56.42118 c -10.92646,-3.02028 -33.00017,-9.04608 -49.05268,-13.39067 -16.05252,-4.34459 -28.80277,-8.12066 -28.33389,-8.39127 0.98469,-0.56831 5.95044,-1.90237 48.07564,-12.91565 17.01663,-4.44887 35.12761,-9.18446 40.24665,-10.52356 l 9.30732,-2.4347 13.81574,3.50681 c 29.39077,7.46021 84.86059,21.80807 85.79034,22.1906 0.53736,0.22109 -2.10062,1.25023 -5.86218,2.28698 -6.29743,1.73567 -6.87396,1.79056 -7.27775,0.69289 -0.72539,-1.97198 -6.88784,-2.70362 -37.99135,-4.51054 -16.12101,-0.93653 -33.87148,-2.08638 -39.44549,-2.55525 -9.57994,-0.80582 -10.27505,-0.77862 -12.70141,0.49693 -3.11727,1.63877 -3.55909,3.25245 -1.20657,4.40692 4.48878,2.2028 11.67137,1.48118 13.51782,-1.3581 l 0.92167,-1.41723 33.13542,1.80669 c 18.22448,0.99367 34.1613,1.98277 35.41516,2.19798 3.33908,0.57311 6.51354,1.70591 6.51354,2.32436 0,0.48834 -83.23383,23.28951 -84.47499,23.14116 -0.28968,-0.0346 -9.46653,-2.53408 -20.39299,-5.55435 z"
         id="path1525" />
      <path
         style="fill:#ffffff;stroke:#ffffff;stroke-width:5.84216;stroke-miterlimit:4;stroke-dasharray:none;stroke-opacity:1"
         d="m 53.682046,408.61692 c -19.44332,1.58304 -29.98016,5.56828 -24.25492,9.1737 1.00937,0.63563 17.260326,5.82307 36.113272,11.52764 18.852946,5.70458 59.542922,18.02011 90.422182,27.36785 30.87929,9.34774 58.55631,17.44445 61.5045,17.99272 17.06486,3.17346 47.72585,3.17346 64.82925,0 2.95487,-0.54827 24.92158,-6.91585 48.81497,-14.15016 23.89338,-7.23436 47.40752,-14.35045 52.25367,-15.81357 88.36383,-26.67838 88.7812,-26.81462 88.80379,-28.98715 0.0294,-2.83269 -11.2298,-5.90037 -26.09952,-7.11103 l -8.54658,-0.69584 H 249.87565 62.228624 Z m 388.765514,2.95347 c 9.09678,1.21327 12.81169,2.42609 12.81917,4.18517 0.007,1.42475 -3.71514,2.61116 -91.31912,29.11469 -50.40496,15.24943 -93.32876,27.91693 -95.7964,28.27106 -10.37649,1.48914 -27.96531,1.41309 -37.38113,-0.16164 -2.55063,-0.42657 -21.31155,-5.83001 -41.69095,-12.00764 -20.37939,-6.17764 -61.25163,-18.54482 -90.827182,-27.48264 -50.28365,-15.19586 -53.773715,-16.34307 -53.773715,-17.67562 0,-0.78378 1.073193,-1.78423 2.384864,-2.22322 3.247281,-1.08682 10.924007,-2.28492 17.056044,-2.66191 3.458135,-0.21261 63.465519,-0.29487 188.624359,-0.25857 l 183.55279,0.0532 z"
         id="path1208" />
    </g>
  </g>
</svg>
