<?xml version="1.0" encoding="UTF-8" standalone="no"?>
<!-- Created with Inkscape (http://www.inkscape.org/) -->

<svg
   version="1.1"
   id="svg1630"
   width="500"
   height="500"
   viewBox="0 0 499.99999 499.99999"
   sodipodi:docname="Loisir.svg"
   inkscape:version="1.1.2 (b8e25be833, 2022-02-05)"
   xmlns:inkscape="http://www.inkscape.org/namespaces/inkscape"
   xmlns:sodipodi="http://sodipodi.sourceforge.net/DTD/sodipodi-0.dtd"
   xmlns="http://www.w3.org/2000/svg"
   xmlns:svg="http://www.w3.org/2000/svg">
  <defs
     id="defs1634" />
  <sodipodi:namedview
     id="namedview1632"
     pagecolor="#505050"
     bordercolor="#eeeeee"
     borderopacity="1"
     inkscape:pageshadow="0"
     inkscape:pageopacity="0"
     inkscape:pagecheckerboard="0"
     showgrid="false"
     inkscape:zoom="0.93795086"
     inkscape:cx="-31.451541"
     inkscape:cy="306.51926"
     inkscape:window-width="1920"
     inkscape:window-height="991"
     inkscape:window-x="-9"
     inkscape:window-y="-9"
     inkscape:window-maximized="1"
     inkscape:current-layer="g1636"
     width="500px" />
  <g
     inkscape:groupmode="layer"
     inkscape:label="Image"
     id="g1636">
    <g
       id="g2474">
      <path
         style="fill:#ffffff;stroke-width:0.699952"
         d="m 112.39548,378.98082 c -2.24819,-0.53041 -4.23549,-1.19316 -4.41625,-1.47283 -0.18075,-0.27964 1.17864,-5.31421 3.02087,-11.1879 3.56103,-11.35392 5.20464,-18.19116 9.4978,-39.5099 6.50218,-32.28809 17.84572,-72.19762 29.84271,-104.9944 10.55898,-28.86557 14.55393,-37.53876 26.11728,-56.70148 7.18686,-11.91003 11.06433,-20.60898 12.84747,-28.82282 0.29911,-1.37778 0.60332,-1.08737 2.0723,1.97823 2.3224,4.84657 7.60439,9.87565 11.73155,11.16984 2.48036,0.77779 14.8513,0.97485 48.86414,0.77839 l 45.54295,-0.26307 3.13107,-2.24536 c 1.7221,-1.23493 4.78393,-4.20182 6.80411,-6.59309 l 3.67301,-4.34773 1.49892,5.37095 c 2.11203,7.56785 4.36155,12.19214 11.32692,23.28441 9.25821,14.7436 14.87408,26.76288 24.33781,52.08868 13.85536,37.07819 24.03662,73.66409 34.84636,125.21873 1.58795,7.57337 4.39365,18.66343 6.2349,24.64462 l 3.34774,10.87482 -3.19606,0.50072 c -9.8897,1.54936 -11.12439,1.54549 -13.15847,-0.0414 -4.1788,-3.26004 -10.5605,-22.4553 -16.82568,-50.60913 -5.22294,-23.47036 -7.40696,-31.34658 -12.18448,-43.94091 -5.80565,-15.30457 -8.89198,-20.41293 -15.26186,-25.26076 -4.49796,-3.42318 -7.61714,-3.76992 -14.33476,-1.59347 l -6.00736,1.94638 h -61.76762 c -56.96946,0 -62.06889,-0.11699 -65.64565,-1.50607 -11.1759,-4.34027 -18.84031,-0.0277 -26.89042,15.13053 -5.52487,10.40326 -10.0003,24.95903 -16.18587,52.6425 -5.09955,22.82303 -10.83309,42.935 -14.06742,49.34538 -2.64601,5.24437 -6.02697,6.18491 -14.79601,4.11616 z m 89.19598,-147.09858 c 4.42183,-2.45733 9.61085,-10.4054 11.34785,-17.38163 1.88813,-7.58321 1.50055,-17.74181 -0.95418,-25.00931 -2.09654,-6.20709 -5.38074,-10.93072 -9.75607,-14.0321 -2.71401,-1.92381 -3.97667,-2.26785 -8.32297,-2.26785 -4.3463,0 -5.60895,0.34404 -8.32299,2.26785 -4.50043,3.19007 -7.58666,7.74146 -9.74637,14.3734 -1.67902,5.15591 -1.85568,6.43751 -1.85568,13.46198 0,6.60835 0.22535,8.49035 1.51454,12.64768 4.79578,15.46549 15.34955,21.91199 26.09587,15.93998 z m 113.9229,-1.16702 c 3.52923,-2.90381 6.75999,-7.82362 8.80922,-13.41472 1.53478,-4.18752 1.65705,-5.18785 1.65705,-13.55751 0,-8.13203 -0.15779,-9.52231 -1.57718,-13.89154 -6.65931,-20.49965 -26.27563,-22.86073 -34.69656,-4.17619 -5.5313,12.27291 -4.81503,28.15178 1.75596,38.92846 5.8527,9.59864 16.5192,12.30901 24.05151,6.1115 z M 95.876029,373.19483 c -9.901277,-5.75453 -17.517366,-28.79388 -20.169646,-61.01501 -0.945123,-11.48177 -0.94098,-45.88538 0.0073,-60.673 4.232945,-66.00856 14.910287,-126.60677 31.767267,-180.291975 3.73738,-11.902605 5.8406,-16.357348 7.72283,-16.357348 2.22457,0 3.27179,-1.633916 3.27179,-5.104785 0,-2.727964 0.36121,-3.802441 2.01715,-6.000406 4.11743,-5.465152 13.28848,-11.157304 21.01041,-13.040442 5.44847,-1.328711 18.77928,-0.687804 21.14143,1.016424 1.42874,1.030795 1.69805,1.791201 1.94325,5.486801 l 0.28464,4.29017 2.7398,0.588227 c 4.7884,1.028049 6.83066,4.177217 8.15957,12.581984 4.79211,30.308148 9.88186,68.87118 9.86608,74.75161 -0.026,9.71032 -2.743,16.79213 -12.498,32.57633 -11.54953,18.68788 -29.33319,62.09703 -39.26323,95.8399 -3.57157,12.13641 -8.20012,30.61969 -14.2534,56.91834 -11.71325,50.88864 -12.13028,52.44463 -15.39626,57.44572 -2.16711,3.31842 -3.97291,3.53196 -8.35099,0.98746 z M 146.59449,173.62165 c 0.69813,0 1.82998,-0.78964 2.51524,-1.75476 1.11847,-1.57526 1.24464,-2.60954 1.23341,-10.11216 -0.0124,-8.33968 -0.81155,-12.82561 -2.94503,-16.53321 -1.50373,-2.6132 -5.60317,-7.74548 -6.18677,-7.74548 -1.15409,0 -6.96626,9.06265 -8.00308,12.47884 -0.76701,2.52721 -1.04811,5.53357 -1.05729,11.30774 -0.0172,10.81507 0.50642,11.75653 6.90926,12.42301 2.61173,0.27186 5.08979,0.36868 5.50678,0.21516 0.41699,-0.15354 1.32937,-0.27914 2.02748,-0.27914 z m -22.82303,-29.22798 c 4.36283,-1.08018 8.07514,-3.97702 10.43289,-8.1411 2.82919,-4.9967 2.59617,-7.11024 -1.40067,-12.70423 -3.93406,-5.50609 -6.21531,-6.72694 -12.56984,-6.72694 -4.18484,0 -4.79797,0.21394 -6.05379,2.11241 -1.31283,1.98466 -1.39734,2.68027 -1.39734,11.50217 0,12.51101 0.53816,13.66453 6.83144,14.64283 0.46966,0.073 2.34045,-0.2353 4.15731,-0.68514 z m 44.98441,-2.18428 c 0.788,-2.02168 1.37728,-12.03808 1.04768,-17.80776 -0.36523,-6.39353 -1.48099,-7.58023 -7.12709,-7.58023 -7.0295,0 -9.78942,1.55131 -13.65248,7.67384 -1.77246,2.80913 -3.22263,5.6336 -3.22263,6.27658 0,1.90798 5.77336,9.91661 8.53931,11.84543 2.1424,1.494 3.47711,1.74773 8.15306,1.54991 4.89371,-0.20705 5.67497,-0.45128 6.26215,-1.95777 z m -25.83409,-19.76812 c 1.75246,-1.36998 4.45367,-6.15433 5.9172,-10.48051 2.47813,-7.32521 2.49874,-18.690623 0.0408,-22.406591 -1.2187,-1.842394 -1.79289,-1.993497 -7.57496,-1.993497 -5.71115,0 -6.38918,0.172821 -7.78153,1.983342 -1.42478,1.852686 -1.52238,2.433796 -1.48175,8.821251 0.0239,3.760845 0.30005,8.129185 0.61359,9.707405 0.97936,4.92946 3.44993,10.43882 5.86912,13.08807 2.72098,2.97972 2.35894,2.8743 4.39767,1.28053 z m 27.61669,-38.307609 c 2.34249,-1.346363 2.80948,-4.555146 1.68838,-11.600841 -1.0331,-6.49262 -1.74584,-9.125261 -2.743,-10.131809 -1.15155,-1.162374 -3.0197,-0.67639 -4.59339,1.194922 -1.36892,1.627819 -1.51585,2.259109 -1.20651,5.183561 0.82273,7.77785 1.62714,11.960137 2.69526,14.012899 1.24442,2.391591 1.94102,2.616227 4.15926,1.341268 z M 395.72026,371.44968 c -3.56315,-7.39622 -4.55985,-11.06043 -11.67416,-42.91827 -11.88545,-53.22286 -18.68734,-77.0297 -31.96521,-111.87927 -11.2311,-29.47757 -16.21744,-40.1089 -27.63338,-58.91697 -9.21958,-15.18948 -10.99515,-23.77829 -8.73665,-42.26123 1.25285,-10.25281 6.28356,-46.280404 7.74316,-55.452784 2.16229,-13.588158 4.51499,-18.062957 9.50038,-18.069587 l 2.41947,-0.0032 v -4.197673 c 0,-2.341146 0.31942,-4.598426 0.72223,-5.103795 2.70961,-3.399552 20.70545,-3.521794 28.30448,-0.192266 4.92036,2.155868 12.81585,7.859072 15.39905,11.123277 1.30014,1.642912 1.82894,3.121602 1.97606,5.525669 0.24045,3.929268 1.12347,5.753933 2.78452,5.753933 2.47153,0 3.92442,2.865072 8.03314,15.841191 13.85758,43.764985 23.94303,94.578805 29.26488,147.446135 2.66786,26.5025 3.12549,35.939 3.14132,64.77428 0.016,30.1299 -0.38383,36.20026 -3.46236,52.4972 -1.7259,9.1365 -6.83074,25.07309 -9.56802,29.87005 -2.41958,4.24014 -8.21983,8.86441 -11.90671,9.49263 -2.45133,0.41769 -2.58728,0.31348 -4.3422,-3.32929 z M 364.18894,184.88435 c 4.74335,-3.25635 7.11907,-12.1597 5.37558,-20.1459 -1.3866,-6.35145 -7.42177,-11.77859 -11.60915,-10.43952 -6.28937,2.01125 -10.17389,10.42469 -8.87101,19.21354 1.55979,10.52185 8.61046,15.83013 15.10458,11.37188 z m -25.3076,-39.85174 c 5.98496,-5.06337 7.26386,-17.50978 2.55109,-24.82731 -6.06248,-9.41321 -16.79524,-5.0404 -18.34843,7.47565 -0.71592,5.76896 0.21768,10.52388 2.84663,14.49813 3.8065,5.75441 8.34088,6.75351 12.95071,2.85353 z m 49.15156,1.82082 c 7.30678,-3.01725 10.47277,-15.40407 6.34642,-24.8302 -2.86771,-6.55097 -8.82245,-8.80581 -13.74381,-5.20428 -8.66237,6.33929 -7.34973,25.91432 2.00996,29.97396 2.63477,1.14281 2.763,1.14425 5.38743,0.0605 z m -23.82174,-40.72064 c 3.82892,-2.69508 5.8892,-7.650146 5.8892,-14.163817 0,-4.69609 -1.31519,-9.713445 -3.23365,-12.336118 -1.64905,-2.254369 -5.02999,-4.122822 -7.42218,-4.101821 -9.32623,0.08187 -14.11149,17.618548 -7.52471,27.575996 3.55393,5.3726 7.55713,6.35806 12.29134,3.02576 z M 333.60694,83.34691 c 1.06726,-1.613412 2.9055,-11.714277 2.9055,-15.965305 0,-5.376735 -4.76347,-7.485657 -6.90582,-3.0574 -1.22673,2.53568 -2.54966,13.284441 -2.02439,16.448215 0.64098,3.860766 4.17491,5.370894 6.02471,2.57449 z m -130.69236,59.77516 c -3.34391,-1.58062 -5.92618,-4.16957 -8.70582,-8.72828 -3.32539,-5.45374 -4.80708,-10.96739 -6.57242,-24.45727 -3.88956,-29.721826 -7.27711,-51.96316 -9.15568,-60.112558 -1.12918,-4.898454 -1.83499,-9.210975 -1.56847,-9.583377 0.46357,-0.647748 12.93636,-2.553959 28.09499,-4.293738 3.91385,-0.449198 15.56726,-1.248181 25.89648,-1.775517 25.61812,-1.307876 50.54256,-0.09991 81.12945,3.931944 5.47939,0.722272 10.54056,1.503614 11.24705,1.736315 l 1.28452,0.423092 -1.50207,4.481082 c -2.57272,7.675143 -3.47145,12.78649 -7.34568,41.77766 -2.06888,15.481647 -4.15706,30.278467 -4.64042,32.881807 -2.14916,11.57551 -6.62463,19.88369 -12.50157,23.20776 -3.01849,1.7073 -4.19233,1.74852 -48.18848,1.69235 -35.42225,-0.0452 -45.60453,-0.29859 -47.47188,-1.18127 z"
         id="path1676" />
      <path
         style="fill:#ffffff;stroke:#ffffff;stroke-width:5.84216;stroke-miterlimit:4;stroke-dasharray:none;stroke-opacity:1"
         d="m 53.682046,408.61692 c -19.44332,1.58304 -29.98016,5.56828 -24.25492,9.1737 1.00936,0.63563 17.26032,5.82307 36.11327,11.52764 18.85294,5.70458 59.542924,18.02011 90.422184,27.36785 30.87929,9.34774 58.55631,17.44445 61.5045,17.99272 17.06486,3.17346 47.72584,3.17346 64.82924,0 2.95487,-0.54827 24.92158,-6.91585 48.81497,-14.15016 23.89338,-7.23436 47.40752,-14.35045 52.25367,-15.81357 88.36383,-26.67838 88.7812,-26.81462 88.80379,-28.98715 0.0294,-2.83269 -11.2298,-5.90037 -26.09952,-7.11103 l -8.54658,-0.69584 H 249.87564 62.228616 Z m 388.765504,2.95347 c 9.09678,1.21327 12.81169,2.42609 12.81917,4.18517 0.007,1.42475 -3.71514,2.61116 -91.31912,29.11469 -50.40496,15.24943 -93.32876,27.91693 -95.7964,28.27106 -10.37649,1.48914 -27.9653,1.41309 -37.38112,-0.16164 -2.55063,-0.42657 -21.31155,-5.83001 -41.69095,-12.00764 -20.37939,-6.17764 -61.25163,-18.54482 -90.827184,-27.48264 -50.28365,-15.19586 -53.77372,-16.34307 -53.77372,-17.67562 0,-0.78378 1.0732,-1.78423 2.38487,-2.22322 3.24728,-1.08682 10.924,-2.28492 17.05604,-2.66191 3.45814,-0.21261 63.465524,-0.29487 188.624354,-0.25857 l 183.55279,0.0532 z"
         id="path1208" />
    </g>
  </g>
</svg>
